<svg width="22" height="18" viewBox="0 0 22 18" fill="none" xmlns="http://www.w3.org/2000/svg">
<path d="M20 0.00999451H2C0.9 0.00999451 0 0.909995 0 2.00999V5.99999H2V1.98999H20V16.02H2V12H0V16.01C0 17.11 0.9 17.99 2 17.99H20C21.1 17.99 22 17.11 22 16.01V2.00999C22 0.899995 21.1 0.00999451 20 0.00999451ZM10 13L14 8.99999L10 4.99999V7.99999H0V9.99999H10V13ZM20 0.00999451H2C0.9 0.00999451 0 0.909995 0 2.00999V5.99999H2V1.98999H20V16.02H2V12H0V16.01C0 17.11 0.9 17.99 2 17.99H20C21.1 17.99 22 17.11 22 16.01V2.00999C22 0.899995 21.1 0.00999451 20 0.00999451ZM10 13L14 8.99999L10 4.99999V7.99999H0V9.99999H10V13Z" fill="#FAFAFA"/>
</svg>
