<svg width="70" height="70" viewBox="0 0 70 70" fill="none" xmlns="http://www.w3.org/2000/svg">
<path d="M16.4094 60.8951C18.1956 62.4168 21.131 63.6094 25.7824 62.7235C25.7904 64.132 25.8011 65.3515 25.8095 66.3079C25.8172 67.1803 25.8229 67.8338 25.8229 68.2125C25.8229 68.5887 25.6949 68.9573 25.4418 69.194C25.2096 69.4112 24.7956 69.5881 24.0589 69.4533C10.3755 64.7706 0.5 51.521 0.5 35.8882C0.5 16.3335 15.9505 0.5 35 0.5C54.0409 0.5 69.5 16.3336 69.5 35.8882C69.5 51.4975 59.6324 64.7561 45.8499 69.4081C45.0866 69.5542 44.6715 69.3754 44.4443 69.1627C44.1957 68.9298 44.0721 68.5634 44.0721 68.1881C44.0721 67.8053 44.0768 67.1305 44.0832 66.224C44.0865 65.7556 44.0902 65.2253 44.0939 64.6415C44.1049 62.9302 44.1158 60.7636 44.1158 58.3609C44.1158 55.5103 43.3232 53.4141 42.2874 52.0945C45.9082 51.596 49.6087 50.5555 52.4838 48.0867C55.6407 45.3758 57.7221 41.0149 57.7221 34.0164C57.7221 30.09 56.3982 26.8461 54.2051 24.2807C54.6518 22.9778 55.5368 19.4 53.7519 14.7106L53.667 14.4877L53.4405 14.4134L53.2846 14.8885C53.4405 14.4134 53.44 14.4132 53.4394 14.4131L53.4384 14.4127L53.436 14.412L53.4305 14.4102L53.4161 14.4059C53.405 14.4027 53.391 14.3988 53.374 14.3944C53.3401 14.3857 53.2943 14.3752 53.2366 14.3646C53.1211 14.3432 52.958 14.3211 52.7459 14.3113C52.3215 14.2915 51.7037 14.3206 50.8816 14.4992C49.27 14.8492 46.8773 15.7725 43.6118 18.023C40.8318 17.2552 37.8923 16.8747 34.9564 16.8567L34.9503 16.8567C32.0141 16.8747 29.0742 17.2552 26.294 18.0233C23.0068 15.7723 20.6033 14.849 18.9865 14.4991C18.1617 14.3206 17.5428 14.2915 17.1177 14.3113C16.9053 14.3211 16.7421 14.3432 16.6265 14.3645C16.5687 14.3752 16.5229 14.3857 16.489 14.3944C16.472 14.3988 16.458 14.4026 16.4469 14.4059L16.4325 14.4102L16.4269 14.4119L16.4246 14.4127L16.4235 14.4131C16.423 14.4132 16.4225 14.4134 16.5783 14.8885L16.4225 14.4134L16.1959 14.4877L16.111 14.7106C14.3308 19.3877 15.2048 22.9637 15.6943 24.2876C13.4912 26.8522 12.17 30.094 12.17 34.0164C12.17 40.9969 14.2486 45.3608 17.3996 48.0816C20.2717 50.5616 23.969 51.6172 27.5864 52.1238C26.8317 53.09 26.2204 54.4482 25.9414 56.2044C24.9515 56.6273 23.4037 57.1109 21.7646 56.9606C20.0197 56.8006 18.1181 55.9192 16.6391 53.3214L16.6346 53.3131L16.6152 53.2787C16.5987 53.2496 16.5748 53.2084 16.5437 53.1569C16.4814 53.0539 16.3897 52.9092 16.2689 52.7359C16.0278 52.3899 15.6682 51.9265 15.1917 51.4541C14.2426 50.513 12.7964 49.5042 10.8767 49.3679L10.8623 49.3669L10.8479 49.3667L10.8413 49.8666C10.8479 49.3667 10.8478 49.3667 10.8476 49.3667L10.8471 49.3667L10.8461 49.3667L10.8429 49.3666L10.833 49.3666L10.7994 49.3667C10.7711 49.3669 10.7315 49.3676 10.6829 49.3693C10.5863 49.3728 10.4521 49.3804 10.3012 49.3974C10.0192 49.4292 9.60231 49.5009 9.27807 49.6899C9.10996 49.7879 8.92322 49.9425 8.8208 50.182C8.71248 50.4352 8.73178 50.7044 8.83393 50.9552C9.01896 51.4097 9.51097 51.895 10.309 52.455L10.3425 52.4785L10.3768 52.495L10.3776 52.4954L10.3777 52.4954L10.3784 52.4958L10.3789 52.496L10.3886 52.5011C10.4001 52.5072 10.4198 52.5179 10.447 52.5337C10.5013 52.5653 10.5855 52.6172 10.6938 52.6931C10.9104 52.8448 11.2237 53.0926 11.5878 53.4664C12.313 54.2106 13.2466 55.4609 14.0174 57.4597L14.0197 57.4673C14.0251 57.484 14.0327 57.5072 14.0427 57.5363C14.0627 57.5944 14.0925 57.6764 14.1335 57.7781C14.2153 57.9814 14.3423 58.2645 14.5259 58.595C14.8926 59.2553 15.4889 60.1109 16.4094 60.8951Z" fill="#5B1DAE" stroke="#E3B134"/>
</svg>
