<svg width="70" height="70" viewBox="0 0 70 70" fill="none" xmlns="http://www.w3.org/2000/svg">
<g clip-path="url(#clip0_388_365)">
<path d="M20.8547 0.5H49.1497C60.3727 0.5 69.5042 9.6315 69.5043 20.8547V49.1497C69.5043 60.3728 60.3728 69.5043 49.1497 69.5043H20.8547C9.6315 69.5043 0.5 60.3728 0.5 49.1497V20.8547C0.5 9.6315 9.6315 0.5 20.8547 0.5ZM49.1497 63.4619C57.054 63.4619 63.4619 57.054 63.4619 49.1497V20.8547C63.4619 12.9502 57.054 6.54243 49.1497 6.54243H20.8547C12.9503 6.54243 6.54243 12.9502 6.54243 20.8547V49.1497C6.54243 57.054 12.9503 63.4619 20.8547 63.4619H49.1497Z" fill="#5B1DAE" stroke="#E3B134"/>
<path d="M17.3965 35.002C17.3965 25.2948 25.2948 17.3965 35.0021 17.3965C44.7094 17.3965 52.6077 25.2947 52.6077 35.002C52.6077 44.7093 44.7094 52.6076 35.0021 52.6076C25.2948 52.6076 17.3965 44.7091 17.3965 35.002ZM23.4389 35.0021C23.4389 41.3883 28.6159 46.5653 35.0021 46.5653C41.3882 46.5653 46.5653 41.3882 46.5653 35.0021C46.5653 28.6159 41.3883 23.4389 35.0021 23.4389C28.616 23.4389 23.4389 28.6159 23.4389 35.0021Z" fill="#5B1DAE" stroke="#E3B134"/>
<path d="M56.9814 17.0326C56.9814 19.1525 55.2628 20.871 53.1429 20.871C51.023 20.871 49.3044 19.1525 49.3044 17.0326C49.3044 14.9126 51.023 13.1941 53.1429 13.1941C55.2628 13.1941 56.9814 14.9126 56.9814 17.0326Z" fill="#5B1DAE" stroke="#E3B134"/>
</g>
<defs>
<clipPath id="clip0_388_365">
<rect width="70" height="70" fill="white"/>
</clipPath>
</defs>
</svg>
