<svg width="70" height="70" viewBox="0 0 70 70" fill="none" xmlns="http://www.w3.org/2000/svg">
<path d="M1.07677 69.5L27.3362 38.409L26.9933 38.1194L27.3725 37.811L2.33822 0.5H22.7658L38.5843 24.0786L38.9537 24.6291L39.3815 24.1227L59.3384 0.5H66.278L42.2902 28.9184L42.5698 29.1544L42.2104 29.4813L69.0624 69.5H48.6348L31.0172 43.2423L30.6478 42.6916L30.22 43.1984L8.01586 69.5H1.07677ZM20.1796 6.08515L20.0311 5.86364H19.7643H13.197H12.2592L12.7818 6.64228L51.2211 63.915L51.3697 64.1364H51.6363H58.1725H59.1098L58.5878 63.3579L20.1796 6.08515Z" fill="#5B1DAE" stroke="#E3B134"/>
</svg>
