<svg width="70" height="70" viewBox="0 0 70 70" fill="none" xmlns="http://www.w3.org/2000/svg">
<path d="M60.5675 69.5H46.0625L46.1037 45.4859H54.2441C55.2744 45.4859 56.142 44.715 56.2633 43.6918L57.219 35.6288C57.3625 34.4193 56.4176 33.356 55.1998 33.356H46.0616V27.1111C46.0616 25.6031 46.2772 24.4744 46.917 23.7145C47.5406 22.9738 48.6707 22.4679 50.7972 22.4679H50.7975L54.8591 22.4661H54.8592C55.9816 22.4654 56.8915 21.5553 56.8915 20.4326V13.6338C56.8915 12.5107 55.9809 11.6004 54.858 11.6004H48.2396C44.1054 11.6004 40.5715 12.8638 38.0698 15.3365C35.5666 17.8107 34.1521 21.4408 34.1521 26.0648V33.3558H28.1652C27.0392 33.3558 26.1275 34.2709 26.1318 35.397L26.163 43.46C26.1673 44.58 27.0763 45.4856 28.1962 45.4856H34.1941L34.1528 69.4997H9.43271C4.49924 69.4997 0.5 65.5004 0.5 60.567V9.43264C0.5 4.49922 4.4994 0.5 9.43271 0.5H60.5671C65.5006 0.5 69.4998 4.49922 69.5 9.43264V60.5675C69.5 65.5008 65.5008 69.5 60.5675 69.5Z" fill="#5B1DAE" stroke="#E3B134"/>
</svg>
