<svg width="70" height="70" viewBox="0 0 70 70" fill="none" xmlns="http://www.w3.org/2000/svg">
<path d="M6.33207 0.5H63.6679C66.8889 0.5 69.5 3.11114 69.5 6.33207V63.6678C69.5 66.8889 66.8889 69.5 63.6678 69.5H6.33207C3.11115 69.5 0.5 66.8889 0.5 63.6678V6.33207C0.5 3.11114 3.11114 0.5 6.33207 0.5ZM19.8182 62.7853C21.1121 62.7853 22.161 61.7365 22.161 60.4426V27.5608C22.161 26.2669 21.1121 25.218 19.8182 25.218H11.9742C10.6803 25.218 9.63149 26.2669 9.63149 27.5608V60.4426C9.63149 61.7365 10.6803 62.7853 11.9742 62.7853H19.8182ZM7.94435 15.1665C7.94435 19.5582 11.5046 23.1184 15.8962 23.1184C20.2881 23.1184 23.8481 19.5582 23.8481 15.1665C23.8481 10.7749 20.2879 7.21466 15.8962 7.21466C11.5046 7.21466 7.94435 10.7749 7.94435 15.1665ZM60.9594 62.7853C62.1712 62.7853 63.1537 61.8028 63.1537 60.591V44.6769L63.1537 44.5241C63.1541 41.0928 63.1546 36.196 61.4693 32.1354C60.6085 30.0613 59.3005 28.1843 57.3145 26.8289C55.3277 25.4729 52.7021 24.6663 49.2527 24.6663C46.1482 24.6663 43.8264 25.2348 42.0214 26.2003C40.7273 26.8925 39.7178 27.7787 38.884 28.7737V27.4123C38.884 26.2005 37.9015 25.218 36.6897 25.218H28.5488C27.337 25.218 26.3545 26.2005 26.3545 27.4123V60.591C26.3545 61.8028 27.337 62.7853 28.5488 62.7853H36.6897C37.9017 62.7853 38.884 61.8028 38.884 60.591V42.8239C38.9892 41.6542 39.2981 39.8239 40.1768 38.2964C41.045 36.7872 42.4562 35.5852 44.835 35.5852C46.4025 35.5852 47.4927 36.038 48.2672 36.7138C49.0504 37.3972 49.5534 38.3465 49.8703 39.4067C50.4144 41.2277 50.3786 43.2477 50.3556 44.5494C50.3515 44.7796 50.3479 44.9874 50.3479 45.1676V60.591C50.3479 61.8028 51.3304 62.7853 52.5421 62.7853H60.9594Z" fill="#5B1DAE" stroke="#E3B134"/>
</svg>
