<svg width="30" height="30" viewBox="0 0 30 30" fill="none" xmlns="http://www.w3.org/2000/svg">
<path d="M26.7857 0H3.21429C2.3618 0 1.54424 0.338647 0.941442 0.941443C0.338647 1.54424 0 2.3618 0 3.21429L0 26.7857C0 27.6382 0.338647 28.4558 0.941442 29.0586C1.54424 29.6614 2.3618 30 3.21429 30H12.4051V19.8007H8.18638V15H12.4051V11.3411C12.4051 7.17924 14.8828 4.88036 18.6777 4.88036C20.4951 4.88036 22.3955 5.20446 22.3955 5.20446V9.28929H20.3016C18.2384 9.28929 17.5949 10.5696 17.5949 11.8828V15H22.2007L21.4641 19.8007H17.5949V30H26.7857C27.6382 30 28.4558 29.6614 29.0586 29.0586C29.6614 28.4558 30 27.6382 30 26.7857V3.21429C30 2.3618 29.6614 1.54424 29.0586 0.941443C28.4558 0.338647 27.6382 0 26.7857 0Z" fill="black"/>
</svg>
