<svg width="30" height="30" viewBox="0 0 30 30" fill="none" xmlns="http://www.w3.org/2000/svg">
<path d="M15.0033 7.31017C10.7468 7.31017 7.31344 10.7435 7.31344 15.0001C7.31344 19.2566 10.7468 22.69 15.0033 22.69C19.2599 22.69 22.6933 19.2566 22.6933 15.0001C22.6933 10.7435 19.2599 7.31017 15.0033 7.31017ZM15.0033 19.9995C12.2527 19.9995 10.0039 17.7575 10.0039 15.0001C10.0039 12.2427 12.246 10.0006 15.0033 10.0006C17.7607 10.0006 20.0028 12.2427 20.0028 15.0001C20.0028 17.7575 17.754 19.9995 15.0033 19.9995ZM24.8015 6.99561C24.8015 7.99282 23.9983 8.78925 23.0078 8.78925C22.0106 8.78925 21.2142 7.98613 21.2142 6.99561C21.2142 6.00509 22.0173 5.20197 23.0078 5.20197C23.9983 5.20197 24.8015 6.00509 24.8015 6.99561ZM29.8946 8.81602C29.7808 6.41335 29.232 4.28507 27.4718 2.53158C25.7184 0.778097 23.5901 0.229296 21.1874 0.108828C18.7111 -0.0317187 11.2889 -0.0317187 8.8126 0.108828C6.41662 0.222604 4.28834 0.771405 2.52817 2.52489C0.767987 4.27838 0.225878 6.40665 0.10541 8.80933C-0.0351366 11.2856 -0.0351366 18.7078 0.10541 21.1841C0.219186 23.5868 0.767987 25.7151 2.52817 27.4686C4.28834 29.222 6.40993 29.7708 8.8126 29.8913C11.2889 30.0319 18.7111 30.0319 21.1874 29.8913C23.5901 29.7775 25.7184 29.2287 27.4718 27.4686C29.2253 25.7151 29.7741 23.5868 29.8946 21.1841C30.0351 18.7078 30.0351 11.2923 29.8946 8.81602ZM26.6955 23.8411C26.1735 25.1529 25.1629 26.1635 23.8444 26.6922C21.8701 27.4753 17.1852 27.2946 15.0033 27.2946C12.8215 27.2946 8.12995 27.4686 6.1623 26.6922C4.85053 26.1702 3.83993 25.1596 3.31121 23.8411C2.52817 21.8668 2.70887 17.1819 2.70887 15.0001C2.70887 12.8183 2.53486 8.12668 3.31121 6.15902C3.83324 4.84726 4.84384 3.83666 6.1623 3.30794C8.13664 2.52489 12.8215 2.70559 15.0033 2.70559C17.1852 2.70559 21.8767 2.53158 23.8444 3.30794C25.1562 3.82997 26.1668 4.84056 26.6955 6.15902C27.4785 8.13337 27.2978 12.8183 27.2978 15.0001C27.2978 17.1819 27.4785 21.8735 26.6955 23.8411Z" fill="black"/>
</svg>
