<svg width="30" height="30" viewBox="0 0 30 30" fill="none" xmlns="http://www.w3.org/2000/svg">
<path d="M26.25 1.875H3.74414C2.71289 1.875 1.875 2.72461 1.875 3.76758V26.2324C1.875 27.2754 2.71289 28.125 3.74414 28.125H26.25C27.2812 28.125 28.125 27.2754 28.125 26.2324V3.76758C28.125 2.72461 27.2812 1.875 26.25 1.875ZM9.80859 24.375H5.91797V11.8477H9.81445V24.375H9.80859ZM7.86328 10.1367C6.61523 10.1367 5.60742 9.12305 5.60742 7.88086C5.60742 6.63867 6.61523 5.625 7.86328 5.625C9.10547 5.625 10.1191 6.63867 10.1191 7.88086C10.1191 9.12891 9.11133 10.1367 7.86328 10.1367ZM24.3926 24.375H20.502V18.2812C20.502 16.8281 20.4727 14.959 18.4805 14.959C16.4531 14.959 16.1426 16.541 16.1426 18.1758V24.375H12.252V11.8477H15.9844V13.5586H16.0371C16.5586 12.5742 17.8301 11.5371 19.7227 11.5371C23.6602 11.5371 24.3926 14.1328 24.3926 17.5078V24.375Z" fill="black"/>
</svg>
