<svg width="18" height="23" viewBox="0 0 18 23" fill="none" xmlns="http://www.w3.org/2000/svg">
<path d="M9 2.49221C7.14348 2.49221 5.36301 3.22971 4.05025 4.54246C2.7375 5.85522 2 7.63569 2 9.49221C2 12.3542 3.782 15.1152 5.738 17.2542C6.73814 18.3438 7.82943 19.3461 9 20.2502C9.17467 20.1162 9.37967 19.9529 9.615 19.7602C10.5548 18.9885 11.4393 18.1518 12.262 17.2562C14.218 15.1152 16 12.3552 16 9.49221C16 7.63569 15.2625 5.85522 13.9497 4.54246C12.637 3.22971 10.8565 2.49221 9 2.49221ZM9 22.7062L8.433 22.3162L8.43 22.3142L8.424 22.3092L8.404 22.2952L8.329 22.2422L8.059 22.0452C6.69086 21.017 5.41988 19.8655 4.262 18.6052C2.218 16.3672 0 13.1282 0 9.49121C3.55683e-08 7.10426 0.948211 4.81508 2.63604 3.12725C4.32387 1.43942 6.61305 0.491211 9 0.491211C11.3869 0.491211 13.6761 1.43942 15.364 3.12725C17.0518 4.81508 18 7.10426 18 9.49121C18 13.1282 15.782 16.3682 13.738 18.6032C12.5804 19.8635 11.3098 21.0149 9.942 22.0432C9.82805 22.1283 9.71305 22.212 9.597 22.2942L9.576 22.3082L9.57 22.3132L9.568 22.3142L9 22.7062ZM9 7.49221C8.46957 7.49221 7.96086 7.70292 7.58579 8.078C7.21071 8.45307 7 8.96178 7 9.49221C7 10.0226 7.21071 10.5314 7.58579 10.9064C7.96086 11.2815 8.46957 11.4922 9 11.4922C9.53043 11.4922 10.0391 11.2815 10.4142 10.9064C10.7893 10.5314 11 10.0226 11 9.49221C11 8.96178 10.7893 8.45307 10.4142 8.078C10.0391 7.70292 9.53043 7.49221 9 7.49221ZM5 9.49221C5 8.43134 5.42143 7.41393 6.17157 6.66378C6.92172 5.91364 7.93913 5.49221 9 5.49221C10.0609 5.49221 11.0783 5.91364 11.8284 6.66378C12.5786 7.41393 13 8.43134 13 9.49221C13 10.5531 12.5786 11.5705 11.8284 12.3206C11.0783 13.0708 10.0609 13.4922 9 13.4922C7.93913 13.4922 6.92172 13.0708 6.17157 12.3206C5.42143 11.5705 5 10.5531 5 9.49221Z" fill="#5B1DAE"/>
</svg>
