<svg width="24" height="24" viewBox="0 0 24 24" fill="none" xmlns="http://www.w3.org/2000/svg">
<path d="M11.9704 0.454102C14.3275 0.454102 16.6846 0.454102 19.0417 0.454102C19.9845 0.454102 20.8472 0.629706 21.3493 1.56194C21.5373 1.88452 21.6407 2.24939 21.6498 2.62263C21.6498 3.05516 21.6498 3.48651 21.6498 3.91904C21.6498 4.7346 21.6498 4.7346 22.4571 4.80885C23.6204 4.91492 24.377 6.34096 23.8042 7.36159C23.7605 7.4499 23.6903 7.52231 23.6033 7.56864C23.5164 7.61497 23.4171 7.6329 23.3194 7.61989C23.2218 7.60689 23.1306 7.56361 23.0588 7.49614C22.987 7.42867 22.9382 7.3404 22.9191 7.24373C22.8844 7.03072 22.8725 6.8146 22.8838 6.59906C22.9097 6.06047 22.6481 5.86247 22.1319 5.87779C21.7783 5.88722 21.6263 6.02629 21.6498 6.37514C21.6604 6.53189 21.6498 6.68981 21.6498 6.84656C21.6498 10.7931 21.6498 14.7397 21.6498 18.6863C21.6498 19.7529 21.4236 20.0664 20.3794 20.3492C20.0635 20.4341 19.9692 20.5955 19.9751 20.8866C19.9751 21.2402 19.9869 21.5938 19.9669 21.9473C19.9589 22.2645 19.8383 22.5685 19.6267 22.805C19.4151 23.0414 19.1263 23.1948 18.8119 23.2378C18.2876 23.3236 17.7538 23.3335 17.2267 23.2673C16.364 23.1601 15.9539 22.6981 15.9303 21.8118C15.9209 21.4783 15.9209 21.1436 15.9303 20.81C15.9303 20.5142 15.7948 20.3799 15.5025 20.3799C13.1454 20.3799 10.7883 20.3799 8.43121 20.3799C8.10593 20.3799 7.96922 20.5272 7.97747 20.8513C7.98572 21.1754 7.98572 21.5195 7.97747 21.853C7.94447 22.7028 7.53552 23.1624 6.70228 23.2673C6.17553 23.3361 5.6416 23.3281 5.11713 23.2437C4.80252 23.2052 4.51168 23.0566 4.29601 22.8243C4.08035 22.5921 3.95374 22.291 3.93858 21.9744C3.92909 21.8568 3.92909 21.7385 3.93858 21.6209C3.99397 20.9267 4.00694 20.3492 3.05113 20.1854C2.40057 20.0675 2.25443 19.417 2.25679 18.7711C2.26739 14.8242 2.25679 10.8748 2.25679 6.93141C2.25679 6.77467 2.24618 6.61674 2.25679 6.45999C2.28625 6.08286 2.17665 5.86247 1.7394 5.87897C1.33634 5.89311 1.03817 5.9815 1.03227 6.45764C1.0345 6.71233 1.0219 6.96693 0.99456 7.22016C0.983337 7.33172 0.930564 7.43499 0.846723 7.50944C0.762882 7.58389 0.654106 7.62409 0.541997 7.62205C0.482436 7.62905 0.422074 7.62396 0.364529 7.60707C0.306985 7.59018 0.253442 7.56185 0.20711 7.52377C0.160778 7.4857 0.122612 7.43865 0.0948979 7.38547C0.0671841 7.33229 0.0504937 7.27406 0.0458272 7.21427C-0.0991345 6.07461 0.0104707 4.82535 1.72055 4.81474C2.14011 4.81474 2.26622 4.62617 2.25207 4.23725C2.2344 3.7069 2.23793 3.17655 2.25207 2.64738C2.28389 1.46883 3.02992 0.656812 4.19786 0.515386C4.51079 0.478528 4.82561 0.460032 5.1407 0.459994C7.41609 0.456066 9.69265 0.454102 11.9704 0.454102ZM11.9539 4.7287C9.26327 4.7287 6.57146 4.7287 3.88083 4.7287C3.50369 4.7287 3.23852 4.76052 3.24441 5.2508C3.26327 6.94084 3.2562 8.62971 3.24441 10.3186C3.24441 10.6497 3.37995 10.8218 3.69933 10.8949C6.13658 11.4512 8.5856 11.886 11.0912 11.9591C14.1366 12.0463 17.1183 11.6138 20.0729 10.9232C20.4972 10.8242 20.6622 10.6427 20.6551 10.2078C20.6375 8.61674 20.6245 7.0257 20.661 5.43466C20.674 4.84538 20.4536 4.71456 19.9079 4.71928C17.2574 4.74285 14.6056 4.72988 11.9539 4.72988V4.7287ZM11.9539 19.3038C14.6434 19.3038 17.334 19.3038 20.0234 19.3038C20.5243 19.3038 20.654 19.0681 20.661 18.612C20.6681 18.1559 20.4913 17.978 20.0376 17.9956C19.4878 18.0218 18.937 18.0179 18.3876 17.9839C17.9174 17.9511 17.4781 17.738 17.1611 17.3892C16.8442 17.0403 16.6741 16.5826 16.6864 16.1114C16.6988 15.6402 16.8925 15.192 17.2272 14.8602C17.5619 14.5284 18.0118 14.3386 18.4831 14.3304C19.0523 14.3139 19.6215 14.3186 20.1908 14.3304C20.5137 14.3304 20.6551 14.1901 20.6504 13.8684C20.6434 13.3969 20.6257 12.9255 20.6575 12.4541C20.6917 11.9497 20.5573 11.7965 20.0293 11.9497C17.5426 12.6745 14.9816 12.9185 12.4065 12.9503C9.49191 12.9868 6.6021 12.7322 3.78419 11.9296C3.4153 11.8248 3.22673 11.8695 3.24795 12.3103C3.27152 12.8206 3.26327 13.3321 3.24795 13.8424C3.2397 14.196 3.39409 14.3386 3.74176 14.3315C4.27211 14.3197 4.80246 14.3221 5.3328 14.3315C6.35814 14.3527 7.19727 15.1565 7.21848 16.1324C7.24323 17.0846 6.40175 17.9532 5.38937 17.9968C4.86021 18.0204 4.32868 18.0169 3.79951 17.9968C3.3988 17.9862 3.23616 18.1465 3.2397 18.5531C3.2397 19.1836 3.33045 19.2968 3.99397 19.2979C6.64728 19.3066 9.29941 19.3109 11.9504 19.3109L11.9539 19.3038ZM11.9622 3.73401H14.2603C16.1825 3.73401 18.1059 3.73401 20.0281 3.73401C20.2698 3.73401 20.5467 3.79883 20.6422 3.43819C20.9262 2.33978 20.3157 1.50419 19.1808 1.50301C14.3534 1.4983 9.52648 1.4983 4.69992 1.50301C3.67458 1.50301 3.27623 1.90608 3.25148 2.91727C3.23145 3.70219 3.25148 3.72811 4.07647 3.72811L11.9622 3.73401ZM4.51135 16.9538C4.78596 16.9538 5.05938 16.9538 5.33634 16.9538C5.82662 16.9538 6.10711 16.7098 6.14836 16.2172C6.18607 15.7517 5.89144 15.3922 5.38702 15.3545C4.9592 15.3192 4.52668 15.338 4.09061 15.338C3.24441 15.338 3.24441 15.338 3.24795 16.1713C3.24795 16.9385 3.26563 16.9538 4.03993 16.9585L4.51135 16.9538ZM19.2986 16.9479C20.7471 16.955 20.7471 16.955 20.6457 15.7859C20.6457 15.747 20.6457 15.7081 20.6398 15.668C20.6431 15.6236 20.6366 15.5791 20.621 15.5375C20.6053 15.4958 20.5807 15.4581 20.549 15.4269C20.5172 15.3957 20.4791 15.3719 20.4372 15.3569C20.3953 15.342 20.3506 15.3363 20.3063 15.3404C19.6805 15.3404 19.05 15.3086 18.43 15.3675C17.9963 15.4075 17.7312 15.714 17.7524 16.1807C17.7759 16.6674 18.0364 16.9361 18.5349 16.9456C18.7895 16.9538 19.0441 16.9467 19.2986 16.9467V16.9479ZM6.96745 21.2814C6.96745 20.3787 6.96745 20.3787 6.12479 20.3763C4.99927 20.3763 4.99927 20.3763 4.99574 21.1836C4.99574 22.2349 5.0087 22.2537 5.95861 22.2549C6.93445 22.2573 6.9651 22.2266 6.96745 21.2814ZM17.902 20.3716C16.9309 20.3716 16.9309 20.3716 16.9309 21.2072C16.9309 22.2278 16.9521 22.2514 17.928 22.2502C18.8814 22.2502 18.9038 22.2266 18.9026 21.2484C18.9026 20.3716 18.9026 20.3716 17.902 20.3716Z" fill="#5B1DAE" stroke="#5B1DAE" stroke-width="0.5"/>
<path d="M11.9193 17.9228C11.1332 17.9228 10.3483 17.937 9.56218 17.9228C8.68769 17.9028 8.18092 17.3901 8.14792 16.5251C8.13967 16.3094 8.14203 16.0925 8.14792 15.8769C8.16677 14.9812 8.65469 14.3954 9.53743 14.373C11.1458 14.3314 12.7564 14.3314 14.3695 14.373C15.2522 14.3954 15.7413 14.98 15.759 15.8769C15.759 16.1126 15.7684 16.3483 15.759 16.584C15.7154 17.3807 15.2098 17.8804 14.4037 17.9252C14.3648 17.9252 14.3247 17.9252 14.2858 17.9252L11.9193 17.9228ZM12.0088 15.429C11.2652 15.429 10.5215 15.442 9.77785 15.429C9.27343 15.4172 9.13908 15.6777 9.14615 16.1255C9.15322 16.551 9.17326 16.9234 9.74485 16.9211C11.2133 16.9148 12.6814 16.9148 14.1491 16.9211C14.7183 16.9211 14.7454 16.5569 14.7513 16.1291C14.7513 15.6836 14.6335 15.416 14.1232 15.429C13.4196 15.442 12.7136 15.429 12.0088 15.429Z" fill="#5B1DAE" stroke="#5B1DAE" stroke-width="0.5"/>
</svg>
