<svg width="1160" height="808" viewBox="0 0 1160 808" fill="none" xmlns="http://www.w3.org/2000/svg">
<g filter="url(#filter0_d_1015_1329)">
<path d="M254.912 60.917H50.293V428.388H254.912V60.917Z" fill="#FAFAFA"/>
<path d="M114.038 431.903C114.038 431.903 91.5995 266.59 79.8739 248.413C79.8739 248.413 146.914 196.754 148.958 56.7227H47.2373V431.903H114.038Z" fill="#F5F5F5"/>
<path d="M191.147 431.184C191.147 431.184 213.549 265.852 225.293 247.694C225.293 247.694 158.271 196.016 156.209 56.0039H257.929V431.184H191.147Z" fill="#F5F5F5"/>
<path d="M260.285 46.916H31.332V440.537H269.784V46.916H260.285ZM91.4144 251.417V345.023H50.2918V251.417H91.4144ZM50.2918 244.653V147.778H91.4144V244.653H50.2918ZM154.019 244.653V147.778H205.56V244.653H154.019ZM205.56 251.417V345.023H154.019V251.417H205.56ZM93.2735 244.653V147.778H147.447V244.653H93.2735ZM147.447 251.417V345.023H93.2551V251.417H147.447ZM93.2551 146.039V61.0117H147.429V146.039H93.2551ZM147.429 346.705V428.426H93.2551V346.705H147.429ZM154.019 346.705H205.56V428.426H154.019V346.705ZM154.019 146.096V61.0117H205.56V146.039L154.019 146.096ZM207.29 251.417H250.806V345.023H207.29V251.417ZM207.29 244.653V147.778H250.806V244.653H207.29ZM250.806 146.039H207.29V61.0117H250.806V146.039ZM91.4144 61.0117V146.039H50.2918V61.0117H91.4144ZM50.2918 346.705H91.4144V428.426H50.2918V346.705ZM207.29 428.426V346.705H250.806V428.426H207.29Z" fill="#EBEBEB"/>
<path d="M951.6 133.72H329.037V561.73H951.6V133.72Z" fill="#F5F5F5"/>
<path d="M951.6 133.72H329.037V176.479H951.6V133.72Z" fill="#EBEBEB"/>
<path d="M356.005 155.091C356.079 156.129 355.846 157.165 355.338 158.065C354.83 158.965 354.069 159.687 353.156 160.137C352.242 160.587 351.217 160.744 350.215 160.588C349.213 160.431 348.281 159.968 347.539 159.26C346.797 158.551 346.28 157.629 346.056 156.615C345.831 155.6 345.91 154.54 346.281 153.572C346.653 152.604 347.3 151.774 348.138 151.189C348.976 150.603 349.966 150.291 350.979 150.292C352.265 150.246 353.517 150.726 354.459 151.625C355.401 152.525 355.957 153.772 356.005 155.091Z" fill="#FAFAFA"/>
<path d="M372.241 155.091C372.315 156.129 372.083 157.165 371.574 158.065C371.066 158.965 370.306 159.687 369.392 160.137C368.478 160.587 367.454 160.744 366.452 160.588C365.45 160.431 364.517 159.968 363.775 159.26C363.033 158.551 362.516 157.629 362.292 156.615C362.068 155.6 362.146 154.54 362.518 153.572C362.889 152.604 363.536 151.774 364.374 151.189C365.212 150.603 366.202 150.291 367.216 150.292C368.502 150.246 369.753 150.726 370.695 151.625C371.637 152.525 372.193 153.772 372.241 155.091Z" fill="#FAFAFA"/>
<path d="M388.476 155.091C388.55 156.129 388.318 157.165 387.81 158.065C387.302 158.965 386.541 159.687 385.627 160.137C384.714 160.587 383.689 160.744 382.687 160.588C381.685 160.431 380.752 159.968 380.01 159.26C379.268 158.551 378.752 157.629 378.527 156.615C378.303 155.6 378.382 154.54 378.753 153.572C379.125 152.604 379.771 151.774 380.609 151.189C381.447 150.603 382.437 150.291 383.451 150.292C384.737 150.246 385.988 150.726 386.93 151.625C387.872 152.525 388.428 153.772 388.476 155.091Z" fill="#FAFAFA"/>
<path d="M1142.19 218.295H1017.11V385.724L1142.19 388.955V218.295Z" fill="#EBEBEB"/>
<path d="M1133.96 224.266H1024.51V376.106L1133.96 379.904V224.266Z" fill="#FAFAFA"/>
<path d="M1114.8 251.852L1042.17 249.018V355.151H1114.8V251.852Z" fill="#EBEBEB"/>
<path d="M1042.17 355.151L1114.8 300.62L1042.17 249.018V355.151Z" fill="#F5F5F5"/>
<path d="M1128.4 100.484L1058.79 98.2539V191.444L1128.4 193.239V100.484Z" fill="#EBEBEB"/>
<path d="M1123.82 104.547L1062.91 101.58V186.079L1123.82 188.195V104.547Z" fill="#FAFAFA"/>
<path d="M1113.16 116.923L1072.74 115.354V174.42H1113.16V116.923Z" fill="#EBEBEB"/>
<path d="M1072.74 174.42L1113.16 144.075L1072.74 115.354V174.42Z" fill="#F5F5F5"/>
<path d="M649.457 21.5596L642.794 85.0847H728.223L735.31 21.5596H649.457Z" fill="#EBEBEB"/>
<path d="M652.974 25.7354L646.477 81.3246H723.586L729.826 25.7354H652.974Z" fill="#FAFAFA"/>
<path d="M665.951 35.4658L661.957 72.3678H710.608L713.112 35.4658H665.951Z" fill="#EBEBEB"/>
<path d="M760.935 0L751.989 85.0844H866.448L875.946 0H760.935Z" fill="#EBEBEB"/>
<path d="M765.629 5.59277L756.94 80.0581H860.244L868.601 5.59277H765.629Z" fill="#FAFAFA"/>
<path d="M783.024 18.6309L777.667 68.0414H842.848L846.198 18.6309H783.024Z" fill="#EBEBEB"/>
<path d="M918.668 85.084H585.344V94.8716H918.668V85.084Z" fill="#EBEBEB"/>
<path d="M642.371 118.679L627.773 94.8711H649.458V118.679H642.371Z" fill="#EBEBEB"/>
<path d="M634.824 94.8711L647.728 118.679H649.458V94.8711H634.824Z" fill="#E0E0E0"/>
<path d="M834.695 118.679L820.098 94.8711H841.782V118.679H834.695Z" fill="#EBEBEB"/>
<path d="M827.146 94.8711L840.05 118.679H841.78V94.8711H827.146Z" fill="#E0E0E0"/>
<path d="M186.619 666.956C217.304 646.36 225.09 606.888 224.741 571.252C224.741 565.3 225.477 559.046 222.808 553.755C220.139 548.465 213.715 544.761 208.395 547.123C203.995 549.107 201.971 554.19 199.43 558.46C196.023 564.064 191.141 568.564 185.349 571.441C181.575 573.331 176.918 574.389 173.273 572.235C168.285 569.287 167.861 562.183 168.027 556.268L169.021 523.221C169.518 517.315 169.064 511.365 167.677 505.611C166.002 499.942 162.155 494.652 156.633 492.932C151.11 491.213 144.171 494.293 142.864 500.056C142.587 502.501 142.476 504.964 142.533 507.425C142.312 509.862 141.115 512.564 138.851 513.093C136.587 513.622 134.212 511.997 132.5 510.221C126.628 504.099 122.708 496.314 119.081 488.568C115.455 480.821 111.847 472.922 106.509 466.271C101.171 459.62 93.7709 454.273 85.4138 453.593C77.0568 452.913 68.0371 457.92 65.8282 466.177C63.6192 474.434 68.1107 483.05 73.1912 489.928C80.7171 500.139 89.6385 509.182 99.6797 516.778C101.643 517.936 103.192 519.711 104.098 521.842C105.276 525.81 101.502 529.626 97.618 530.836C93.237 532.196 88.5247 531.629 83.9596 532.045C79.3945 532.461 74.4245 534.388 72.6021 538.715C70.0619 544.705 74.9031 551.148 79.7075 555.418C89.3678 563.993 100.388 570.805 112.289 575.56C116.541 577.242 121.014 578.754 124.401 581.89C127.788 585.027 129.758 590.412 127.567 594.512C125.377 598.612 119.983 599.84 115.492 598.877C111 597.913 107.061 595.362 102.809 593.605C94.8569 590.336 84.4014 590.657 79.1921 597.554C77.5672 599.921 76.506 602.647 76.0936 605.512C75.6812 608.377 75.9291 611.301 76.8175 614.049C78.6561 619.528 81.548 624.572 85.3218 628.882C97.7209 644.701 113.971 656.877 132.427 664.178C150.834 671.169 168.082 673.361 186.729 666.956" fill="#E3B134"/>
<path d="M74.3506 458.279L74.9028 458.846L76.5963 460.471C78.1057 461.869 80.2778 463.948 83.0758 466.688C90.9093 474.424 98.164 482.755 104.778 491.61C108.994 497.279 113.356 503.514 117.921 510.392C122.486 517.27 127.309 524.639 132.077 532.593C137.129 540.87 141.738 549.423 145.882 558.215C148.018 562.788 149.914 567.568 151.846 572.443L157.682 587.257C165.215 606.004 171.705 625.176 177.12 644.679C181.48 660.612 184.352 676.936 185.698 693.428C186.566 704.556 186.48 715.741 185.44 726.853C185.054 730.784 184.686 733.826 184.354 735.885C184.225 736.868 184.115 737.642 184.023 738.228C184.007 738.492 184.007 738.758 184.023 739.022C184.12 738.774 184.182 738.513 184.207 738.247L184.649 735.923C185.035 733.863 185.477 730.821 185.937 726.891C187.137 715.76 187.335 704.54 186.526 693.371C185.275 676.811 182.457 660.415 178.114 644.414C172.742 624.859 166.264 605.642 158.713 586.86L152.877 572.027C150.944 567.171 149.03 562.353 146.858 557.762C142.702 548.933 138.062 540.354 132.96 532.064C128.138 524.11 123.296 516.741 118.694 509.863C114.093 502.985 109.693 496.636 105.423 491.138C98.7195 482.291 91.3325 474.013 83.3335 466.385C80.5171 463.683 78.2714 461.643 76.7252 460.301L74.8844 458.771C74.7225 458.589 74.5437 458.425 74.3506 458.279Z" fill="#263238"/>
<path d="M146.528 557.704C146.828 556.894 147.038 556.05 147.153 555.191C147.503 553.566 147.926 551.204 148.405 548.276C149.362 542.399 150.43 534.256 151.571 525.261C152.712 516.267 153.872 508.161 154.921 502.323C155.437 499.394 155.879 497.051 156.21 495.407C156.429 494.574 156.559 493.719 156.596 492.856C156.242 493.642 155.977 494.466 155.805 495.313C155.363 496.919 154.793 499.262 154.185 502.172C152.933 507.991 151.645 516.116 150.504 525.11C149.362 534.104 148.405 542.021 147.65 548.143C147.282 550.921 146.988 553.245 146.748 555.116C146.576 555.967 146.502 556.835 146.528 557.704Z" fill="#263238"/>
<path d="M71.8115 541.663C72.7906 541.901 73.7888 542.046 74.7936 542.098C76.6343 542.324 79.5059 542.627 82.9297 543.099C89.7773 544.025 99.2204 545.631 109.529 547.861C119.837 550.09 129.114 552.565 135.759 554.531C139.091 555.475 141.76 556.326 143.619 556.911C144.56 557.277 145.535 557.543 146.528 557.705C145.637 557.22 144.707 556.815 143.748 556.496C141.908 555.797 139.294 554.833 135.98 553.775C129.372 551.621 120.113 549.051 109.75 546.784C99.3861 544.516 89.9246 543.005 83.0217 542.324C79.5795 541.946 76.7632 541.757 74.8304 541.663C73.8263 541.565 72.8156 541.565 71.8115 541.663Z" fill="#263238"/>
<path d="M177.194 642.977C177.417 642.698 177.597 642.386 177.728 642.051L179.072 639.33C180.25 636.968 181.833 633.511 183.747 629.184C187.576 620.568 192.491 608.494 197.737 595.173C202.983 581.852 207.788 569.664 211.451 560.973C213.292 556.74 214.691 553.263 215.795 550.694L216.955 547.878C217.105 547.558 217.222 547.222 217.304 546.877C217.081 547.152 216.896 547.457 216.752 547.784C216.402 548.521 215.942 549.428 215.408 550.505C214.249 552.867 212.666 556.343 210.751 560.651C206.923 569.268 202.008 581.436 196.743 594.757C191.479 608.078 186.693 620.265 183.048 628.957L178.704 639.198L177.544 641.995C177.384 642.304 177.266 642.635 177.194 642.977Z" fill="#263238"/>
<path d="M78.252 607.984C78.5549 608.177 78.8836 608.323 79.2276 608.419L82.0991 609.477L92.7019 613.256C101.648 616.449 113.944 620.984 127.529 626.029C141.114 631.074 153.484 635.477 162.503 638.481C167.013 639.993 170.676 641.164 173.217 641.92L176.143 642.789C176.484 642.905 176.836 642.981 177.193 643.016C176.888 642.821 176.56 642.669 176.217 642.562L173.345 641.523L162.743 637.744C153.797 634.57 141.5 630.035 127.897 624.99C114.294 619.945 101.961 615.542 92.9228 612.519C88.4129 611.026 84.7498 609.855 82.2096 609.08L79.2828 608.23C78.9519 608.1 78.605 608.017 78.252 607.984Z" fill="#263238"/>
<path d="M1022.27 738.53C1022.27 738.814 815.844 739.022 561.249 739.022C306.654 739.022 100.194 738.814 100.194 738.53C100.194 738.247 306.58 738.039 561.249 738.039C815.918 738.039 1022.27 738.266 1022.27 738.53Z" fill="#263238"/>
<path d="M852.236 170.112H225.587C223.018 170.112 220.475 170.632 218.102 171.642C215.729 172.651 213.573 174.131 211.757 175.996C209.942 177.862 208.502 180.076 207.521 182.513C206.54 184.95 206.036 187.561 206.038 190.198V644.529C206.036 647.166 206.54 649.777 207.521 652.214C208.502 654.651 209.942 656.865 211.757 658.73C213.573 660.596 215.729 662.076 218.102 663.085C220.475 664.095 223.018 664.614 225.587 664.614H466.1C466.1 664.614 481.397 713.175 433.961 738.305H658.846C658.846 738.305 605.317 719.41 619.086 664.614H852.236C857.426 664.614 862.403 662.498 866.072 658.732C869.742 654.965 871.803 649.856 871.803 644.529V190.198C871.803 184.871 869.742 179.762 866.072 175.995C862.403 172.228 857.426 170.112 852.236 170.112Z" fill="#263238"/>
<path d="M547.941 616.658C556.463 629.167 543.118 642.865 530.932 634.117C530.525 633.822 530.17 633.458 529.883 633.04C521.379 620.531 534.706 606.851 546.891 615.581C547.299 615.876 547.653 616.24 547.941 616.658Z" fill="#455A64"/>
<path d="M850.983 193.07H226.838C223.513 193.07 220.818 195.837 220.818 199.249V574.24C220.818 577.652 223.513 580.419 226.838 580.419H850.983C854.308 580.419 857.003 577.652 857.003 574.24V199.249C857.003 195.837 854.308 193.07 850.983 193.07Z" fill="#E0E0E0"/>
<path d="M857.003 221.45H220.818V580.418H857.003V221.45Z" fill="#FAFAFA"/>
<path d="M273.005 208.015C273.005 209.046 272.707 210.055 272.149 210.912C271.59 211.77 270.797 212.438 269.868 212.833C268.94 213.228 267.919 213.331 266.933 213.13C265.948 212.928 265.042 212.432 264.332 211.702C263.621 210.973 263.137 210.044 262.941 209.032C262.745 208.021 262.846 206.972 263.23 206.019C263.615 205.066 264.266 204.252 265.102 203.679C265.937 203.106 266.919 202.8 267.924 202.8C269.272 202.8 270.564 203.349 271.517 204.327C272.469 205.305 273.005 206.632 273.005 208.015Z" fill="#5B1DAE"/>
<path d="M242.209 208.015C242.209 209.046 241.911 210.055 241.353 210.912C240.794 211.77 240.001 212.438 239.073 212.833C238.144 213.228 237.123 213.331 236.137 213.13C235.152 212.928 234.246 212.432 233.536 211.702C232.825 210.973 232.342 210.044 232.145 209.032C231.949 208.021 232.05 206.972 232.435 206.019C232.819 205.066 233.47 204.252 234.306 203.679C235.141 203.106 236.124 202.8 237.128 202.8C238.476 202.8 239.768 203.349 240.721 204.327C241.674 205.305 242.209 206.632 242.209 208.015Z" fill="#E3B134"/>
<path d="M256.99 208.015C256.99 209.046 256.692 210.055 256.134 210.912C255.576 211.77 254.782 212.438 253.854 212.833C252.925 213.228 251.904 213.331 250.918 213.13C249.933 212.928 249.028 212.432 248.317 211.702C247.607 210.973 247.123 210.044 246.927 209.032C246.731 208.021 246.831 206.972 247.216 206.019C247.6 205.066 248.252 204.252 249.087 203.679C249.923 203.106 250.905 202.8 251.91 202.8C253.257 202.8 254.549 203.349 255.502 204.327C256.455 205.305 256.99 206.632 256.99 208.015Z" fill="#5B1DAE"/>
<path d="M534.282 388.595C534.282 388.879 510.978 389.125 482.244 389.125C453.51 389.125 430.188 388.879 430.188 388.595C430.188 388.312 453.491 388.066 482.244 388.066C510.997 388.066 534.282 388.293 534.282 388.595Z" fill="#455A64"/>
<path d="M534.282 402.9C534.282 403.183 510.978 403.429 482.244 403.429C453.51 403.429 430.188 403.183 430.188 402.9C430.188 402.616 453.491 402.352 482.244 402.352C510.997 402.352 534.282 402.597 534.282 402.9Z" fill="#455A64"/>
<path d="M492.571 417.183C492.571 417.486 478.618 417.731 461.388 417.731C444.159 417.731 430.188 417.486 430.188 417.183C430.188 416.881 444.159 416.654 461.388 416.654C478.618 416.654 492.571 416.9 492.571 417.183Z" fill="#455A64"/>
<path d="M479.685 242.461H430.188V248.904H479.685V242.461Z" fill="#5B1DAE"/>
<path d="M538.958 263.227H430.188V371.25H538.958V263.227Z" fill="#E0E0E0"/>
<path d="M438.617 361.992L468.714 306.402L493.324 341.944L508.271 323.068L530.526 361.992H438.617Z" fill="#E3B134"/>
<path d="M495.976 303.623C500.296 303.623 503.799 300.028 503.799 295.593C503.799 291.158 500.296 287.562 495.976 287.562C491.655 287.562 488.152 291.158 488.152 295.593C488.152 300.028 491.655 303.623 495.976 303.623Z" fill="#E3B134"/>
<path d="M530.526 362.293C530.507 362.149 530.507 362.002 530.526 361.858C530.526 361.518 530.526 361.121 530.526 360.592C530.526 359.44 530.526 357.815 530.526 355.736C530.526 351.447 530.526 345.25 530.416 337.389C530.416 321.612 530.287 299.146 530.195 272.164L530.637 272.617H438.746C438.617 272.73 439.703 271.616 439.243 272.107V296.33C439.243 304.266 439.243 312.051 439.243 319.609C439.243 334.725 439.243 349.047 439.243 362.198L438.783 361.726L505.234 361.972L523.973 362.085H528.943H530.232H528.999H524.102L505.474 362.198L438.728 362.444H438.286V361.972C438.286 348.745 438.286 334.517 438.286 319.382C438.286 311.824 438.286 304.039 438.286 296.104V272.201C437.826 272.655 438.912 271.521 438.82 271.653H530.71H531.152V272.107C531.06 299.202 530.987 321.763 530.931 337.616C530.931 345.439 530.839 351.598 530.802 355.869C530.802 357.909 530.802 359.496 530.802 360.63C530.802 361.14 530.802 361.537 530.802 361.839C530.723 361.998 530.631 362.15 530.526 362.293Z" fill="#455A64"/>
<path d="M666.89 388.595C666.89 388.879 643.586 389.125 614.833 389.125C586.08 389.125 562.795 388.879 562.795 388.595C562.795 388.312 586.08 388.066 614.833 388.066C643.586 388.066 666.89 388.293 666.89 388.595Z" fill="#455A64"/>
<path d="M666.89 402.9C666.89 403.183 643.586 403.429 614.833 403.429C586.08 403.429 562.795 403.183 562.795 402.9C562.795 402.616 586.08 402.352 614.833 402.352C643.586 402.352 666.89 402.597 666.89 402.9Z" fill="#455A64"/>
<path d="M625.178 417.183C625.178 417.486 611.207 417.731 593.978 417.731C576.748 417.731 562.832 417.486 562.832 417.183C562.832 416.881 576.785 416.654 594.014 416.654C611.244 416.654 625.178 416.9 625.178 417.183Z" fill="#455A64"/>
<path d="M612.293 242.461H562.795V248.904H612.293V242.461Z" fill="#5B1DAE"/>
<path d="M671.565 263.227H562.795V371.25H671.565V263.227Z" fill="#E0E0E0"/>
<path d="M571.227 361.992L601.305 306.402L625.915 341.944L640.881 323.068L663.117 361.992H571.227Z" fill="#E3B134"/>
<path d="M636.463 295.593C636.466 297.187 636.009 298.745 635.149 300.072C634.288 301.399 633.064 302.433 631.63 303.045C630.197 303.656 628.618 303.817 627.096 303.507C625.573 303.197 624.174 302.43 623.076 301.303C621.978 300.177 621.231 298.741 620.929 297.177C620.627 295.614 620.784 293.994 621.38 292.523C621.976 291.051 622.983 289.794 624.276 288.911C625.568 288.028 627.087 287.559 628.639 287.563C630.714 287.563 632.704 288.409 634.171 289.915C635.638 291.421 636.463 293.463 636.463 295.593Z" fill="#E3B134"/>
<path d="M663.117 362.293C663.117 362.293 663.117 362.142 663.117 361.858C663.117 361.575 663.117 361.121 663.117 360.592C663.117 359.44 663.117 357.815 663.117 355.736C663.117 351.447 663.117 345.25 663.007 337.389C663.007 321.612 662.859 299.146 662.767 272.164L663.209 272.617H571.319C571.19 272.73 572.294 271.616 571.834 272.107V296.33C571.834 304.266 571.834 312.051 571.834 319.609C571.834 334.725 571.834 349.047 571.834 362.198L571.392 361.726L637.844 361.972L656.582 362.085H661.552H662.841H661.589H656.711L638.064 362.198L571.337 362.444H570.877V361.972C570.877 348.745 570.877 334.517 570.877 319.382V272.201C570.398 272.655 571.503 271.521 571.392 271.653H663.283H663.743V272.107C663.633 299.202 663.559 321.763 663.504 337.616C663.504 345.439 663.412 351.598 663.393 355.869C663.393 357.909 663.393 359.496 663.393 360.63C663.393 361.14 663.393 361.537 663.393 361.839C663.327 362.005 663.233 362.159 663.117 362.293Z" fill="#455A64"/>
<path d="M483.164 437.118H433.666V443.561H483.164V437.118Z" fill="#5B1DAE"/>
<path d="M542.436 457.865H433.666V565.888H542.436V457.865Z" fill="#E0E0E0"/>
<path d="M442.097 556.648L472.193 501.059L496.804 536.581L511.751 517.724L534.006 556.648H442.097Z" fill="#E3B134"/>
<path d="M507.297 490.251C507.297 491.842 506.837 493.399 505.975 494.722C505.113 496.046 503.889 497.078 502.456 497.687C501.023 498.296 499.446 498.456 497.925 498.145C496.404 497.835 495.007 497.068 493.91 495.942C492.813 494.816 492.067 493.382 491.764 491.821C491.461 490.259 491.617 488.641 492.21 487.17C492.804 485.699 493.809 484.442 495.098 483.558C496.388 482.673 497.904 482.201 499.455 482.201C500.485 482.199 501.506 482.405 502.459 482.809C503.411 483.212 504.277 483.805 505.005 484.553C505.734 485.301 506.311 486.189 506.705 487.167C507.098 488.145 507.299 489.193 507.297 490.251Z" fill="#E3B134"/>
<path d="M534.005 556.951C534.005 556.951 534.005 556.781 534.005 556.497C534.005 556.214 534.005 555.76 534.005 555.231C534.005 554.098 534.005 552.473 534.005 550.375C534.005 546.105 534.005 539.907 533.877 532.028C533.877 516.251 533.748 493.785 533.656 466.821L534.097 467.275H442.207L442.722 466.746V472.924C442.722 474.965 442.722 477.006 442.722 479.028V514.342C442.722 529.458 442.722 543.762 442.722 556.932L442.262 556.459L508.713 556.705L527.452 556.818H532.441H533.729C533.876 556.804 534.024 556.804 534.171 556.818H532.533H527.655L509.008 556.951L442.262 557.177H441.82V556.724C441.82 543.497 441.82 529.251 441.82 514.135C441.82 506.577 441.82 498.817 441.82 490.856V466.821L442.354 466.273H534.245H534.686V466.746C534.594 493.841 534.521 516.402 534.466 532.255C534.466 540.077 534.466 546.237 534.355 550.489C534.355 552.548 534.355 554.135 534.355 555.269C534.355 555.76 534.355 556.157 534.355 556.478C534.277 556.662 534.157 556.824 534.005 556.951Z" fill="#455A64"/>
<path d="M615.865 437.118H566.367V443.561H615.865V437.118Z" fill="#5B1DAE"/>
<path d="M675.138 457.865H566.367V565.888H675.138V457.865Z" fill="#E0E0E0"/>
<path d="M574.797 556.648L604.893 501.059L629.504 536.581L644.451 517.724L666.706 556.648H574.797Z" fill="#E3B134"/>
<path d="M639.978 490.25C639.975 491.838 639.513 493.389 638.651 494.707C637.789 496.025 636.566 497.051 635.136 497.656C633.706 498.261 632.134 498.417 630.618 498.105C629.101 497.793 627.709 497.027 626.617 495.903C625.525 494.779 624.781 493.349 624.481 491.791C624.181 490.234 624.337 488.62 624.929 487.154C625.522 485.688 626.525 484.435 627.811 483.553C629.097 482.672 630.609 482.201 632.155 482.201C633.184 482.201 634.203 482.409 635.153 482.814C636.104 483.219 636.967 483.812 637.694 484.56C638.42 485.308 638.996 486.195 639.388 487.172C639.78 488.148 639.981 489.194 639.978 490.25Z" fill="#E3B134"/>
<path d="M666.705 556.951C666.692 556.8 666.692 556.648 666.705 556.497C666.705 556.176 666.705 555.76 666.705 555.231C666.705 554.098 666.705 552.473 666.705 550.375C666.705 546.105 666.705 539.907 666.595 532.028C666.595 516.251 666.466 493.785 666.374 466.821L666.816 467.275H574.907L575.422 466.746V491.007C575.422 498.943 575.422 506.703 575.422 514.286C575.422 529.402 575.422 543.705 575.422 556.875L574.962 556.403L641.414 556.648L660.152 556.762H665.122H666.411H666.871H665.233H660.336L641.708 556.894L574.962 557.121H574.502V556.667C574.502 543.441 574.502 529.194 574.502 514.078C574.502 506.52 574.502 498.76 574.502 490.799V466.821L575.017 466.273H666.926H667.368V466.746C667.276 493.841 667.203 516.402 667.147 532.255C667.147 540.077 667.055 546.237 667.018 550.489C667.018 552.548 667.018 554.135 667.018 555.269C667.018 555.76 667.018 556.157 667.018 556.478C666.928 556.645 666.824 556.803 666.705 556.951Z" fill="#455A64"/>
<path d="M752.78 437.118H703.282V443.561H752.78V437.118Z" fill="#5B1DAE"/>
<path d="M812.053 457.865H703.282V565.888H812.053V457.865Z" fill="#E0E0E0"/>
<path d="M711.712 556.648L741.808 501.059L766.419 536.581L781.366 517.724L803.621 556.648H711.712Z" fill="#E3B134"/>
<path d="M776.912 490.251C776.912 491.842 776.452 493.399 775.59 494.722C774.729 496.046 773.504 497.078 772.071 497.687C770.638 498.296 769.061 498.456 767.54 498.145C766.019 497.835 764.622 497.068 763.525 495.942C762.429 494.816 761.682 493.382 761.379 491.821C761.077 490.259 761.232 488.641 761.825 487.17C762.419 485.699 763.424 484.442 764.714 483.558C766.003 482.673 767.519 482.201 769.07 482.201C770.101 482.199 771.121 482.405 772.074 482.809C773.026 483.212 773.892 483.805 774.62 484.553C775.349 485.301 775.927 486.189 776.32 487.167C776.713 488.145 776.914 489.193 776.912 490.251Z" fill="#E3B134"/>
<path d="M803.622 556.951C803.622 556.951 803.622 556.781 803.622 556.497C803.622 556.214 803.622 555.76 803.622 555.231C803.622 554.098 803.622 552.473 803.622 550.375C803.622 546.105 803.622 539.907 803.493 532.028C803.493 516.251 803.364 493.785 803.272 466.821L803.714 467.275H711.823L712.338 466.746V514.286C712.338 529.402 712.338 543.705 712.338 556.875L711.878 556.403L778.33 556.648L797.069 556.762H802.057H803.327C803.48 556.746 803.634 556.746 803.787 556.762H802.149H797.271L778.624 556.894L711.878 557.121H711.437V556.667C711.437 543.441 711.437 529.194 711.437 514.078C711.437 506.52 711.437 498.76 711.437 490.799V466.821L711.97 466.273H803.861H804.303V466.746C804.211 493.841 804.137 516.402 804.082 532.255C804.082 540.077 803.99 546.237 803.971 550.489C803.971 552.548 803.971 554.135 803.971 555.269C803.971 555.76 803.971 556.157 803.971 556.478C803.893 556.662 803.773 556.824 803.622 556.951Z" fill="#455A64"/>
<path d="M801.873 371.232C805.827 370.709 809.818 370.532 813.801 370.703L813.286 371.232V370.022C813.286 369.607 813.286 369.21 813.286 368.813C813.286 368.019 813.286 367.264 813.286 366.508C813.286 365.166 813.286 363.863 813.396 362.615C813.34 361.406 813.465 360.196 813.764 359.025C814.04 360.2 814.158 361.408 814.114 362.615C814.114 363.863 814.114 365.166 814.225 366.508C814.225 367.264 814.225 368.019 814.225 368.813V371.232L813.691 371.78C809.743 371.954 805.789 371.771 801.873 371.232Z" fill="#455A64"/>
<path d="M747.625 371.23C756.656 370.525 765.727 370.525 774.758 371.23C765.727 371.961 756.655 371.961 747.625 371.23Z" fill="#455A64"/>
<path d="M708.564 358.986C709.084 363.044 709.256 367.141 709.079 371.23L708.564 370.701H713.221L717.013 370.815C718.19 370.783 719.366 370.91 720.51 371.193C719.37 371.498 718.191 371.626 717.013 371.57L713.221 371.684H710.975H708.564L708.048 371.136C707.888 367.078 708.06 363.014 708.564 358.986Z" fill="#455A64"/>
<path d="M708.565 303.303C709.085 307.924 709.257 312.58 709.08 317.228C709.258 321.871 709.085 326.52 708.565 331.135C708.056 326.519 707.883 321.871 708.05 317.228C707.884 312.58 708.056 307.925 708.565 303.303Z" fill="#455A64"/>
<path d="M720.512 263.189C716.553 263.722 712.555 263.899 708.566 263.718L709.081 263.189V265.626C709.081 266.401 709.081 267.175 709.081 267.931C709.081 269.273 709.081 270.558 708.971 271.824C709.025 273.033 708.9 274.243 708.603 275.414C708.305 274.243 708.181 273.033 708.234 271.824C708.234 270.558 708.234 269.273 708.124 267.931C708.124 267.175 708.124 266.401 708.124 265.626C708.124 265.229 708.124 264.814 708.124 264.398V263.189L708.639 262.66C712.605 262.494 716.576 262.671 720.512 263.189Z" fill="#455A64"/>
<path d="M774.758 263.189C765.727 263.895 756.656 263.895 747.625 263.189C756.656 262.484 765.727 262.484 774.758 263.189Z" fill="#455A64"/>
<path d="M813.819 275.47C813.287 271.407 813.109 267.303 813.285 263.207C814.334 264.265 813.58 263.51 813.801 263.736H811.334H809.088L805.296 263.623C804.119 263.678 802.94 263.551 801.799 263.245C802.94 262.939 804.119 262.812 805.296 262.867L809.088 262.754H813.727L814.261 263.283C814.446 267.351 814.299 271.428 813.819 275.47Z" fill="#455A64"/>
<path d="M813.819 331.211C813.286 326.597 813.108 321.947 813.285 317.305C813.108 312.655 813.287 307.999 813.819 303.379C814.328 308.001 814.5 312.656 814.334 317.305C814.501 321.947 814.328 326.595 813.819 331.211Z" fill="#455A64"/>
<path d="M812.293 388.444C812.293 388.728 788.971 388.973 760.236 388.973C731.502 388.973 708.18 388.728 708.18 388.444C708.18 388.161 731.484 387.915 760.236 387.915C788.989 387.915 812.293 388.142 812.293 388.444Z" fill="#455A64"/>
<path d="M812.291 402.748C812.291 403.032 788.968 403.277 760.234 403.277C731.5 403.277 708.251 403.013 708.251 402.748C708.251 402.484 731.555 402.2 760.308 402.2C789.06 402.2 812.291 402.446 812.291 402.748Z" fill="#455A64"/>
<path d="M757.678 242.311H708.18V248.754H757.678V242.311Z" fill="#5B1DAE"/>
<path d="M379.084 326.375C379.084 337.116 375.981 347.616 370.169 356.545C364.356 365.474 356.097 372.431 346.435 376.539C336.774 380.647 326.143 381.722 315.888 379.628C305.632 377.534 296.21 372.365 288.814 364.772C281.417 357.18 276.378 347.505 274.337 336.97C272.295 326.435 273.343 315.515 277.347 305.592C281.352 295.67 288.131 287.191 296.828 281.226C305.524 275.262 315.746 272.079 326.202 272.079C340.223 272.079 353.673 277.796 363.591 287.977C373.51 298.159 379.084 311.97 379.084 326.375Z" fill="#E0E0E0" stroke="#5B1DAE"/>
<path d="M390.131 445.715C390.131 445.998 362.741 446.244 328.963 446.244C295.185 446.244 267.776 445.998 267.776 445.715C267.776 445.432 295.167 445.167 328.963 445.167C362.759 445.167 390.131 445.413 390.131 445.715Z" fill="#455A64"/>
<path d="M390.131 459.697C390.131 459.999 362.741 460.226 328.963 460.226C295.185 460.226 267.776 459.999 267.776 459.697C267.776 459.395 295.167 459.168 328.963 459.168C362.759 459.168 390.131 459.3 390.131 459.697Z" fill="#455A64"/>
<path d="M390.131 473.492C390.131 473.794 362.741 474.021 328.963 474.021C295.185 474.021 267.776 473.794 267.776 473.492C267.776 473.189 295.167 472.925 329.055 472.925C362.944 472.925 390.131 473.208 390.131 473.492Z" fill="#455A64"/>
<path d="M338.075 487.68C338.075 487.983 322.19 488.209 302.604 488.209C283.018 488.209 267.114 487.983 267.114 487.68C267.114 487.378 283 487.151 302.604 487.151C322.208 487.151 338.075 487.397 338.075 487.68Z" fill="#455A64"/>
<path d="M267.776 423.684H352.083V417.354H267.776V423.684Z" fill="#5B1DAE"/>
<path d="M292.811 368.189C302.206 376.539 314.217 381.135 326.644 381.135C339.071 381.135 351.082 376.539 360.477 368.189C357.642 358.288 350.758 346.536 334.025 343.928C337.777 342.231 340.96 339.441 343.182 335.904C345.404 332.368 346.566 328.24 346.524 324.032C346.524 312.128 337.799 302.453 326.938 302.397C316.078 302.34 307.242 311.958 307.187 323.843C307.11 328.089 308.26 332.265 310.491 335.842C312.721 339.42 315.933 342.24 319.722 343.947C302.714 346.536 295.701 358.345 292.811 368.189Z" fill="#E3B134"/>
<path d="M315.047 509.373H267.776V515.287H315.047V509.373Z" fill="#E3B134"/>
<path d="M975.419 304.116L983.482 331.873C983.911 333.119 984.153 334.425 984.2 335.746C984.2 339.658 980.518 342.738 976.837 343.456C973.036 343.878 969.191 343.413 965.59 342.095C964.596 346.082 960.067 347.764 956.11 348.52C938.479 351.886 920.265 349.556 903.979 341.85C910.93 331.634 916.578 320.547 920.786 308.859L961.908 310.748C964.33 311.018 966.78 310.806 969.124 310.125C970.289 309.762 971.33 309.067 972.125 308.12C972.921 307.173 973.437 306.014 973.615 304.778" fill="#5B1DAE"/>
<path d="M928.297 358.326C928.812 355.227 927.579 342.19 927.579 342.19C927.579 342.19 916.001 340.924 915.301 329.133C914.602 317.343 915.301 290.134 915.301 290.134L936.396 279.553L959.627 297.598L956.111 356.569L930.984 379.583L928.297 358.326Z" fill="#FFBE9D"/>
<path d="M917.603 309.955C917.599 310.254 917.682 310.549 917.842 310.8C918.001 311.051 918.23 311.247 918.499 311.365C918.768 311.482 919.064 311.515 919.351 311.458C919.638 311.402 919.902 311.26 920.11 311.049C920.318 310.839 920.46 310.569 920.518 310.276C920.576 309.982 920.548 309.677 920.437 309.4C920.327 309.122 920.138 308.885 919.895 308.718C919.653 308.551 919.367 308.462 919.075 308.462C918.883 308.46 918.692 308.496 918.513 308.57C918.335 308.644 918.172 308.754 918.035 308.892C917.898 309.031 917.789 309.197 917.715 309.379C917.641 309.561 917.603 309.757 917.603 309.955Z" fill="#263238"/>
<path d="M916.258 308.311C916.46 308.519 917.546 307.574 919.129 307.48C920.712 307.385 921.891 308.179 922.056 307.952C922.222 307.725 921.946 307.499 921.43 307.14C920.728 306.665 919.894 306.439 919.056 306.497C918.222 306.54 917.426 306.866 916.792 307.423C916.258 307.858 916.074 308.236 916.258 308.311Z" fill="#263238"/>
<path d="M934.666 309.955C934.662 310.255 934.746 310.55 934.907 310.802C935.067 311.053 935.297 311.25 935.567 311.366C935.836 311.483 936.134 311.515 936.421 311.457C936.709 311.399 936.973 311.255 937.18 311.042C937.387 310.83 937.528 310.559 937.584 310.264C937.64 309.969 937.609 309.663 937.496 309.386C937.382 309.109 937.19 308.874 936.945 308.709C936.7 308.544 936.413 308.458 936.12 308.462C935.735 308.462 935.365 308.619 935.092 308.899C934.819 309.179 934.666 309.559 934.666 309.955Z" fill="#263238"/>
<path d="M933.726 308.311C933.91 308.519 934.996 307.574 936.579 307.479C938.162 307.385 939.359 308.178 939.525 307.952C939.69 307.725 939.414 307.498 938.88 307.139C938.182 306.671 937.356 306.446 936.524 306.497C935.692 306.548 934.899 306.873 934.26 307.423C933.781 307.857 933.634 308.235 933.726 308.311Z" fill="#263238"/>
<path d="M933.247 323.654C930.83 324.921 928.253 325.837 925.59 326.375C926.178 327.188 927.011 327.779 927.959 328.056C928.908 328.333 929.919 328.28 930.836 327.906C931.273 327.801 931.685 327.606 932.045 327.332C932.406 327.058 932.709 326.712 932.935 326.314C933.161 325.916 933.305 325.474 933.358 325.017C933.412 324.56 933.374 324.096 933.247 323.654Z" fill="#FAFAFA"/>
<path d="M927.579 342.19C933.039 341.958 938.321 340.129 942.802 336.918C942.802 336.918 939.36 345.572 927.837 345.081L927.579 342.19Z" fill="#EB996E"/>
<path d="M993.054 331.514C991.609 331.57 990.175 331.238 988.894 330.551C987.003 329.495 985.43 327.926 984.347 326.016C983.006 323.636 981.872 321.138 980.96 318.552C978.807 313.073 977.279 307.971 976.082 304.268C975.917 303.682 975.751 303.153 975.604 302.643C975.534 302.096 975.436 301.553 975.309 301.018C969.032 276.454 947.974 271.844 943.814 271.844C939.341 271.844 931.518 269.312 920.123 281.48C918.399 283.294 916.941 285.356 915.798 287.602C913.285 290.847 911.552 294.653 910.735 298.712C910.236 300.616 910.148 302.609 910.478 304.551C910.699 304.551 910.735 302.34 911.619 298.882C912.148 296.872 912.889 294.927 913.828 293.082C912.836 297.624 913.241 302.371 914.988 306.667L919.074 305.496L933.8 300.394C932.456 295.746 934.426 289.964 935.53 287.168H935.641C938.991 304.815 957.932 306.667 957.932 306.667L956.994 340.168C976.45 335.898 976.708 314.093 976.579 308.67C977.463 311.731 978.604 315.246 980.04 318.93C981.002 321.557 982.197 324.087 983.611 326.488C984.806 328.526 986.561 330.156 988.655 331.174C990.064 331.86 991.641 332.097 993.183 331.854C993.753 331.8 994.3 331.591 994.766 331.25C994.19 331.3 993.618 331.388 993.054 331.514Z" fill="#5B1DAE"/>
<path d="M928.02 322.047C927.181 321.85 926.322 321.754 925.461 321.764C925.056 321.764 924.651 321.764 924.578 321.386C924.521 320.932 924.598 320.472 924.799 320.063C925.148 319.005 925.498 317.89 925.885 316.7C926.639 314.3 927.284 312.127 927.725 310.54C928.03 309.702 928.222 308.824 928.296 307.933C927.864 308.718 927.53 309.556 927.302 310.427C926.75 311.976 926.032 314.206 925.277 316.549L924.228 319.931C924 320.466 923.948 321.063 924.081 321.632C924.146 321.774 924.24 321.901 924.358 322.002C924.476 322.103 924.613 322.177 924.762 322.217C924.988 322.243 925.217 322.243 925.443 322.217C926.305 322.267 927.171 322.21 928.02 322.047Z" fill="#263238"/>
<path d="M954.73 312.448C951.159 311.73 948.14 311.22 947.109 311.144C947.246 310.524 947.32 309.891 947.33 309.255C947.313 307.214 946.669 305.23 945.489 303.586C944.403 302.056 942.888 300.902 941.145 300.28C939.581 299.709 937.897 299.579 936.267 299.902C934.847 300.196 933.519 300.845 932.402 301.791C930.757 303.096 929.606 304.946 929.143 307.025C929.013 307.582 928.945 308.153 928.941 308.726C928.911 308.92 928.911 309.118 928.941 309.312C928.941 309.312 928.941 308.499 929.346 307.101C929.878 305.121 931.037 303.379 932.641 302.15C933.724 301.311 934.986 300.748 936.322 300.507C938.037 300.188 939.804 300.403 941.399 301.124C942.993 301.846 944.34 303.041 945.266 304.555C946.193 306.069 946.657 307.834 946.598 309.621C946.54 311.408 945.961 313.137 944.937 314.583C943.925 316.023 942.514 317.116 940.887 317.72C939.429 318.274 937.853 318.417 936.322 318.136C934.984 317.888 933.723 317.318 932.641 316.473C931.035 315.254 929.875 313.518 929.346 311.541C929.194 310.985 929.089 310.416 929.033 309.841C929.309 309.841 929.493 309.69 929.493 309.614C929.493 309.538 929.272 309.425 928.959 309.368C928.592 309.335 928.222 309.335 927.855 309.368C927.409 309.366 926.964 309.416 926.53 309.52V309.406C926.522 307.363 925.877 305.377 924.689 303.738C923.606 302.212 922.097 301.059 920.363 300.431C918.793 299.86 917.102 299.73 915.467 300.053C913.749 300.41 912.166 301.262 910.904 302.511C909.642 303.759 908.753 305.352 908.343 307.101C908.213 307.658 908.145 308.229 908.14 308.801C908.111 308.996 908.111 309.193 908.14 309.387C908.14 309.387 908.14 308.575 908.545 307.177C909.077 305.196 910.236 303.454 911.84 302.226C912.923 301.387 914.185 300.823 915.522 300.582C916.779 300.347 918.071 300.398 919.307 300.732C920.543 301.066 921.692 301.674 922.673 302.514C923.655 303.354 924.445 304.405 924.987 305.592C925.529 306.78 925.811 308.076 925.812 309.387C925.81 311.219 925.262 313.006 924.242 314.509C923.222 316.013 921.779 317.159 920.105 317.796C918.64 318.349 917.058 318.492 915.522 318.211C914.184 317.964 912.922 317.394 911.84 316.548C910.235 315.33 909.074 313.593 908.545 311.617C908.177 310.219 908.214 309.387 908.14 309.387C908.113 309.588 908.113 309.791 908.14 309.992C908.145 310.559 908.213 311.123 908.343 311.674C908.803 313.759 909.954 315.616 911.601 316.926C912.727 317.859 914.051 318.507 915.467 318.816C917.102 319.139 918.793 319.008 920.363 318.438C922.094 317.804 923.601 316.652 924.689 315.131C925.786 313.622 926.426 311.815 926.53 309.935C926.975 310.048 927.433 310.099 927.892 310.086C928.247 310.11 928.604 310.11 928.959 310.086C928.964 310.653 929.032 311.217 929.162 311.768C929.559 313.526 930.442 315.128 931.706 316.382C932.97 317.636 934.561 318.488 936.286 318.835C937.915 319.158 939.6 319.028 941.164 318.457C942.902 317.826 944.415 316.674 945.508 315.15C946.265 314.093 946.792 312.882 947.054 311.598C948.03 311.919 951.012 312.637 954.62 313.355C957.26 313.993 959.942 314.429 962.645 314.659C960.072 313.696 957.424 312.956 954.73 312.448Z" fill="#263238"/>
<path d="M960.841 321.557C960.658 319.593 960.871 317.612 961.467 315.737C961.771 314.803 962.314 313.97 963.04 313.325C963.765 312.68 964.646 312.247 965.59 312.071C966.682 312.015 967.758 312.367 968.617 313.062C969.477 313.756 970.062 314.747 970.265 315.85C970.399 316.98 970.198 318.125 969.689 319.136C969.181 320.147 968.387 320.977 967.412 321.519C966.43 322.041 965.345 322.329 964.239 322.362C963.134 322.394 962.035 322.171 961.025 321.708" fill="#FFBE9D"/>
<path d="M964.117 319.876C964.117 319.744 964.743 320.027 965.553 319.876C966.059 319.694 966.496 319.353 966.803 318.902C967.111 318.451 967.272 317.913 967.265 317.363C967.315 317.087 967.305 316.803 967.235 316.532C967.165 316.26 967.037 316.009 966.86 315.794C966.508 315.504 966.058 315.368 965.608 315.417C964.743 315.417 964.136 315.719 964.099 315.568C964.062 315.417 964.485 315.02 965.516 314.736C965.831 314.655 966.16 314.647 966.478 314.713C966.796 314.778 967.097 314.915 967.357 315.114C967.66 315.409 967.89 315.773 968.028 316.178C968.165 316.582 968.207 317.014 968.149 317.438C968.121 318.247 967.821 319.021 967.302 319.63C966.869 320.144 966.265 320.474 965.608 320.556C964.614 320.537 964.117 319.876 964.117 319.876Z" fill="#EB996E"/>
<path d="M1008.7 768.878L994.84 759.222L1012.31 732.467L1032.72 746.374L1031.75 748.093C1027.33 755.764 1008.76 786.714 1004.14 790.664C998.871 795.047 1008.7 768.878 1008.7 768.878Z" fill="#E3B134"/>
<path d="M1002.4 790.362C1002.15 790.192 1008.53 780.083 1016.67 767.801C1024.81 755.519 1031.58 745.675 1031.84 745.845C1032.1 746.015 1025.69 756.124 1017.55 768.519C1009.42 780.914 1002.64 790.569 1002.4 790.362Z" fill="#263238"/>
<path d="M1011.22 771.315C1011.22 771.617 1010.36 771.787 1009.38 771.863C1008.41 771.938 1007.54 771.863 1007.45 771.56C1007.36 771.258 1008.2 770.823 1009.29 770.767C1010.38 770.71 1011.26 771.012 1011.22 771.315Z" fill="#263238"/>
<path d="M1011.02 773.659C1011.02 773.961 1010.01 773.999 1008.88 773.923C1007.76 773.847 1006.82 773.696 1006.8 773.375C1006.79 773.054 1007.74 772.752 1008.94 772.827C1010.14 772.903 1011.07 773.356 1011.02 773.659Z" fill="#263238"/>
<path d="M1026.43 753.857C1026.3 753.857 1025.95 753.347 1025.53 752.383C1024.95 751.091 1024.62 749.7 1024.55 748.283C1024.48 746.813 1024.89 745.361 1025.73 744.164C1026.41 743.257 1027.07 743.011 1027.15 743.124C1027.22 743.238 1026.8 743.71 1026.35 744.579C1025.82 745.72 1025.56 746.979 1025.62 748.245C1025.71 749.56 1025.92 750.863 1026.24 752.137C1026.48 753.139 1026.57 753.8 1026.43 753.857Z" fill="#263238"/>
<path d="M1008.57 769.577C1008.44 769.312 1008.94 768.783 1009.62 768.273C1010.3 767.763 1010.93 767.423 1011.15 767.63C1011.37 767.838 1011.02 768.575 1010.25 769.161C1009.47 769.747 1008.68 769.86 1008.57 769.577Z" fill="#263238"/>
<path d="M1007.5 768.236C1007.27 768.047 1007.5 767.196 1008.13 766.346C1008.76 765.496 1009.4 764.929 1009.64 765.08C1009.88 765.231 1009.64 766.082 1009.01 766.97C1008.39 767.858 1007.73 768.425 1007.5 768.236Z" fill="#263238"/>
<path d="M845.334 790.871V773.677L876.627 773.469L876.885 798.637L874.934 798.769C866.282 799.317 830.903 800.942 825.086 799.185C818.698 797.22 845.334 790.871 845.334 790.871Z" fill="#E3B134"/>
<path d="M824.44 797.597C824.44 797.294 836.184 797.049 850.653 797.049C865.121 797.049 876.865 797.294 876.865 797.597C876.865 797.899 865.14 798.164 850.653 798.164C836.166 798.164 824.44 797.918 824.44 797.597Z" fill="#263238"/>
<path d="M844.78 794.385C844.523 794.536 843.915 793.913 843.289 793.082C842.664 792.25 842.24 791.494 842.443 791.192C842.645 790.89 843.473 791.438 844.136 792.345C844.799 793.252 845.038 794.234 844.78 794.385Z" fill="#263238"/>
<path d="M842.775 795.52C842.499 795.634 841.946 794.859 841.376 793.857C840.805 792.856 840.4 791.968 840.639 791.779C840.879 791.59 841.67 792.232 842.296 793.309C842.922 794.386 843.051 795.407 842.775 795.52Z" fill="#263238"/>
<path d="M867.403 797.485C867.293 797.485 867.55 796.786 868.084 795.897C868.806 794.691 869.736 793.628 870.827 792.761C871.98 791.881 873.384 791.416 874.821 791.438C875.926 791.438 876.515 791.948 876.46 792.062C876.404 792.175 875.779 792.062 874.84 792.213C873.621 792.408 872.466 792.901 871.471 793.649C870.46 794.46 869.529 795.372 868.692 796.37C868.01 797.126 867.532 797.579 867.403 797.485Z" fill="#263238"/>
<path d="M844.69 791.154C844.837 790.889 845.555 791.022 846.328 791.305C847.101 791.588 847.764 791.947 847.709 792.25C847.654 792.552 846.881 792.665 845.979 792.344C845.077 792.023 844.469 791.418 844.69 791.154Z" fill="#263238"/>
<path d="M845.186 789.492C845.186 789.19 846.051 788.944 847.026 788.963C848.002 788.982 848.867 789.246 848.867 789.549C848.867 789.851 848.057 790.078 847.026 790.078C845.996 790.078 845.149 789.794 845.186 789.492Z" fill="#263238"/>
<path d="M924.486 393.85L890.487 382.229C890.487 382.229 875.485 426.595 870.883 427.03C845.407 429.41 818.145 420.738 808.573 417.318C807.616 416.203 806.512 414.861 805.279 413.217C804.218 411.802 803.403 410.211 802.867 408.512C802.131 406.431 801.673 404.258 801.505 402.05C801.545 401.625 801.454 401.197 801.247 400.827C801.039 400.457 800.724 400.162 800.346 399.983C799.968 399.805 799.545 399.751 799.136 399.831C798.727 399.91 798.352 400.118 798.063 400.425C796.977 401.899 796.682 407.492 799.204 413.539C801.726 419.585 792.817 414.767 789.54 413.066C786.264 411.366 775.9 406.642 774.593 407.265C772.752 408.191 773.286 410.459 776.6 412.065C779.913 413.671 789.485 419.207 788.546 420.945C787.607 422.684 771.04 413.822 771.04 413.822C771.04 413.822 767.801 411.347 766.641 413.312C764.543 416.845 782.803 424.913 784.57 425.631C785.785 426.123 784.828 428.05 783.539 427.521C782.251 426.992 767.23 418.319 765.04 421.852C763.383 424.592 780.023 428.617 782.177 432.169C784.331 435.721 769.844 427.804 768.371 430.506C767.819 431.508 767.525 432.396 776.471 435.646C783.038 437.738 789.711 439.46 796.461 440.804V440.899C796.461 440.899 885.83 481.92 905.066 442.391C925.462 400.444 924.486 393.85 924.486 393.85Z" fill="#FFBE9D"/>
<path d="M903.685 491.347C903.685 491.347 882.019 639.144 885.13 646.286C888.241 653.429 999.662 774.772 999.662 774.772L1025.73 728.933C1025.73 728.933 937.831 628.223 938.493 625.521C939.156 622.819 969.639 479.084 969.639 479.084L903.685 491.347Z" fill="#455A64"/>
<path d="M908.417 673.893L926.733 632.607L945.048 591.321L914.197 646.211L908.417 673.893Z" fill="#263238"/>
<path d="M919.332 637.066C919.415 637.604 919.452 638.147 919.442 638.691C919.442 639.863 919.442 641.431 919.553 643.377V643.226C926.529 651.313 941.991 669.679 959.847 691.144L990.864 728.67L1000.18 740.139C1001.21 741.424 1002.02 742.482 1002.66 743.275C1002.98 743.625 1003.25 744.012 1003.47 744.428C1003.12 744.126 1002.79 743.791 1002.5 743.427L999.865 740.403C997.509 737.664 994.343 733.847 990.293 729.18L959 691.862C941.163 670.416 925.867 651.861 919.185 643.529C919.185 641.639 919.185 640.014 919.277 638.843C919.216 638.251 919.234 637.653 919.332 637.066Z" fill="#263238"/>
<path d="M1017.37 719.448C1017.63 719.618 1011.54 729.537 1003.79 741.593C996.037 753.648 989.558 763.303 989.318 763.133C989.079 762.963 995.154 753.043 1002.9 740.988C1010.65 728.933 1017.13 719.277 1017.37 719.448Z" fill="#263238"/>
<path d="M895.844 546.861C896.046 545.312 913.349 505.292 913.349 505.292L904.956 493.143L903.465 492.803L895.844 546.861Z" fill="#263238"/>
<path d="M920.656 489.93L903.464 492.878L913.349 505.368C897.389 542.44 864.421 620.93 860.464 646.23C855.199 679.75 835.374 784.447 837.362 786.053C839.35 787.66 885.056 786.053 885.056 786.053L914.195 646.23L978.622 531.688C986.636 517.425 988.977 500.537 985.157 484.545L983.868 479.104" fill="#455A64"/>
<path d="M869.152 770.521C869.162 770.261 869.193 770.002 869.244 769.747C869.244 769.18 869.429 768.424 869.576 767.46L870.993 758.712C872.3 751.06 874.159 740.082 876.515 726.59C878.872 713.099 881.688 696.869 884.799 678.956C886.419 670 888.112 660.59 889.861 650.84C890.303 648.422 890.781 645.965 891.241 643.49C891.481 642.243 891.702 641.015 891.978 639.711C892.125 639.088 892.235 638.445 892.42 637.822L893.101 635.932C894.941 631.133 897.04 626.485 899.102 621.591C915.76 583.177 931.26 548.599 942.47 523.582L955.852 493.974C957.417 490.535 958.668 487.852 959.534 485.962C959.939 485.093 960.27 484.394 960.528 483.884C960.626 483.638 960.749 483.404 960.896 483.185L960.62 483.94L959.736 486.057L956.22 494.163C953.073 501.267 948.581 511.47 943.096 523.941C932.051 549.053 916.662 583.668 900.022 622.082C897.96 626.881 895.88 631.643 894.039 636.348L893.377 638.086C893.193 638.691 893.101 639.314 892.953 639.976C892.677 641.185 892.456 642.451 892.199 643.755C891.738 646.23 891.278 648.686 890.818 651.105C888.977 660.836 887.339 670.245 885.701 679.183C882.498 697.095 879.608 713.194 877.178 726.779C874.748 740.365 872.779 751.23 871.417 758.901C870.717 762.68 870.165 765.552 869.797 767.612C869.594 768.556 869.447 769.312 869.336 769.879C869.298 770.099 869.237 770.315 869.152 770.521Z" fill="#263238"/>
<path d="M887.781 772.599C887.781 772.901 876.737 772.939 863.281 772.599C849.825 772.259 838.78 771.9 838.78 771.598C838.78 771.295 849.825 771.257 863.299 771.503C876.773 771.749 887.8 772.297 887.781 772.599Z" fill="#263238"/>
<path d="M903.464 492.858L904.127 494.465L986.721 487.606L983.813 479.084L903.464 492.858Z" fill="#263238"/>
<path d="M937.573 354.737L932.051 377.637L931.848 361.161L932.272 357.514L932.769 354.737L925.406 352.186L921.614 358.251H920.509C920.509 358.251 890.781 355.209 880.381 395.531L870.864 419.433L899.672 434.171V436.061L901.513 493.105L984.715 479.274C985.046 466.463 972.308 443.26 975.125 431.658L984.715 391.979L972.143 355.001L963.436 355.285L958.595 349.408L937.665 354.737" fill="#263238"/>
<path d="M900.188 433.83C899.518 433.638 898.892 433.311 898.347 432.866C896.812 431.784 895.504 430.396 894.5 428.785C892.977 426.372 892.283 423.505 892.53 420.641C892.671 417.138 893.796 413.752 895.77 410.891C897.302 408.648 899.318 406.799 901.661 405.487L901.403 405.828C902.102 400.594 902.728 396.097 903.244 392.903C903.42 391.199 903.727 389.512 904.164 387.858C904.165 389.579 904.042 391.296 903.796 392.998C903.483 396.191 902.986 400.726 902.36 405.96V406.187L902.139 406.319C899.639 407.78 897.537 409.862 896.025 412.375C894.514 414.887 893.641 417.749 893.488 420.698C893.209 423.39 893.791 426.102 895.144 428.426C896.066 429.999 897.25 431.393 898.642 432.545C899.691 433.377 900.206 433.754 900.188 433.83Z" fill="#455A64"/>
<path d="M903.372 395.455C903.133 395.568 902.323 394.359 901.532 392.734C900.74 391.109 900.317 389.692 900.556 389.579C900.795 389.465 901.605 390.675 902.397 392.299C903.188 393.924 903.556 395.228 903.372 395.455Z" fill="#455A64"/>
<path d="M818.256 379.243L1079.97 430.846C1098.64 434.53 1110.38 452.027 1108.27 471.961C1108.24 472.242 1108.19 472.519 1108.12 472.793C1107.25 477.505 1105.47 481.992 1102.9 485.994C1100.32 489.996 1097 493.432 1093.12 496.103C1089.23 498.774 1084.87 500.626 1080.29 501.551C1075.7 502.477 1070.99 502.457 1066.41 501.494L809.917 448.361L753.351 401.955L818.256 379.243Z" fill="#E3B134"/>
<path d="M818.256 379.243C818.256 379.243 832.54 384.742 829.595 398.8C826.65 412.857 812.825 412.272 812.825 412.272C812.825 412.272 826.263 415.333 822.545 435.04C820.133 447.738 809.917 448.399 809.917 448.399L753.351 401.955L818.256 379.243Z" fill="#E0E0E0"/>
<path d="M765.647 412.045C771.17 409.229 773.102 401.728 771.17 395.738L753.406 401.955L765.647 412.045Z" fill="#455A64"/>
<path d="M1076.4 467.105L1075.72 467.01L1073.7 466.67L1065.99 465.253C1059.28 464.006 1049.62 462.136 1037.66 459.774C1013.73 455.05 980.795 448.267 944.421 440.557L851.316 420.68L823.097 414.615L815.44 412.933L813.452 412.46C813.218 412.426 812.989 412.362 812.771 412.271C813.006 412.281 813.24 412.312 813.47 412.366L815.476 412.725L823.171 414.237L851.5 420.018L944.679 439.613C981.034 447.322 1013.98 454.218 1037.86 459.112L1066.11 464.894L1073.79 466.5L1075.8 466.935C1076 466.966 1076.21 467.023 1076.4 467.105Z" fill="#455A64"/>
<path d="M1066.41 501.494C1070.99 502.457 1075.7 502.477 1080.29 501.551C1084.87 500.626 1089.23 498.774 1093.12 496.103C1097 493.432 1100.32 489.996 1102.9 485.994C1105.47 481.993 1107.25 477.505 1108.12 472.793C1108.19 472.52 1108.24 472.242 1108.27 471.961C1110.38 452.027 1098.64 434.53 1079.97 430.846L1066.41 501.494Z" fill="#455A64"/>
<path d="M962.387 389.994C962.387 389.994 946.464 441.559 942.028 442.692C917.214 449.192 888.959 445.054 879 443.221C877.877 442.277 876.552 441.105 875.098 439.707C873.843 438.477 872.798 437.04 872.005 435.456C870.951 433.524 870.164 431.451 869.668 429.296C869.649 428.861 869.496 428.443 869.232 428.103C868.967 427.762 868.604 427.517 868.195 427.401C867.786 427.286 867.352 427.307 866.955 427.46C866.558 427.614 866.219 427.893 865.986 428.257C865.121 429.882 865.71 435.456 869.115 441.011C869.115 441.011 849.162 454.011 844.799 453.897C840.436 453.784 827.938 453.463 829.245 455.239C830.552 457.015 844.799 459.452 844.799 459.452L870.57 468.427C870.57 468.427 965.111 494.54 978.051 452.367C985.967 426.518 991.452 411.308 992.686 405.129L962.387 389.994Z" fill="#FFBE9D"/>
<path d="M972.272 355.078C972.272 355.078 993.073 358.857 993.883 393.812C994.268 415.07 989.805 436.125 980.85 455.297L944.256 435.57C952.475 418.687 958.656 400.838 962.663 382.419L972.162 355.059L972.272 355.078Z" fill="#263238"/>
<path d="M961.596 384.364C961.597 385.089 961.517 385.812 961.357 386.518C961.154 387.879 960.804 389.844 960.289 392.187C958.938 398.473 957.236 404.675 955.19 410.761C953.133 416.846 950.73 422.802 947.993 428.598C946.944 430.827 946.042 432.603 945.379 433.794C945.077 434.462 944.707 435.095 944.274 435.683C944.442 434.983 944.703 434.309 945.048 433.68C945.673 432.225 946.465 430.449 947.385 428.371C949.337 423.874 951.877 417.582 954.288 410.496C956.7 403.41 958.448 396.854 959.626 392.073C960.166 389.844 960.627 387.954 961.007 386.405C961.122 385.703 961.32 385.018 961.596 384.364Z" fill="#455A64"/>
</g>
<defs>
<filter id="filter0_d_1015_1329" x="27.332" y="0" width="1118.86" height="807.979" filterUnits="userSpaceOnUse" color-interpolation-filters="sRGB">
<feFlood flood-opacity="0" result="BackgroundImageFix"/>
<feColorMatrix in="SourceAlpha" type="matrix" values="0 0 0 0 0 0 0 0 0 0 0 0 0 0 0 0 0 0 127 0" result="hardAlpha"/>
<feOffset dy="4"/>
<feGaussianBlur stdDeviation="2"/>
<feComposite in2="hardAlpha" operator="out"/>
<feColorMatrix type="matrix" values="0 0 0 0 0 0 0 0 0 0 0 0 0 0 0 0 0 0 0.25 0"/>
<feBlend mode="normal" in2="BackgroundImageFix" result="effect1_dropShadow_1015_1329"/>
<feBlend mode="normal" in="SourceGraphic" in2="effect1_dropShadow_1015_1329" result="shape"/>
</filter>
</defs>
</svg>
