<svg width="41" height="35" viewBox="0 0 41 35" fill="none" xmlns="http://www.w3.org/2000/svg">
<path d="M31.3012 22.462L33.3666 31.7715C33.9386 34.342 32.3132 35.398 29.756 34.1174L20.5005 29.4812L11.2449 34.1174C8.68774 35.398 7.06233 34.342 7.63433 31.7715L8.66186 27.1376L9.69974 22.4597L5.79151 19.2246L1.91433 16.0172C-0.23908 14.2363 0.382097 12.5273 3.29127 12.2193L8.53504 11.6635L13.8254 11.1031L18.2694 2.48372C19.4962 0.103084 21.5047 0.103084 22.7315 2.48372L27.1755 11.1031L32.4659 11.6635L37.7096 12.2193C40.6188 12.5273 41.24 14.2363 39.0892 16.0172L35.212 19.2222L31.3012 22.462Z" fill="#E3B134"/>
</svg>
