<svg width="20" height="20" viewBox="0 0 20 20" fill="none" xmlns="http://www.w3.org/2000/svg">
<path d="M8.9855 1.10674L9.02606 1.07425C9.30669 0.863992 9.64807 0.75 9.99932 0.75C10.3682 0.75 10.7262 0.875723 11.0144 1.10664L11.0145 1.10674L18.1395 6.81338L18.6084 6.22799L18.1395 6.81338C18.5249 7.12207 18.75 7.59013 18.75 8.08536V17.6222C18.75 18.0541 18.5786 18.4683 18.2737 18.7735C17.9688 19.0787 17.5556 19.25 17.125 19.25H12.375C12.3042 19.25 12.2362 19.2219 12.186 19.1716L12.1858 19.1714C12.1356 19.1211 12.1071 19.0526 12.1071 18.981V11.8477V11.0977H11.3571H8.64286H7.89286V11.8477V18.981C7.89286 19.0526 7.86439 19.1211 7.81419 19.1714L7.814 19.1716C7.76377 19.2219 7.69579 19.25 7.625 19.25H2.875C2.44433 19.25 2.0311 19.0787 1.72626 18.7735C1.4214 18.4683 1.25 18.0542 1.25 17.6222V8.08401C1.25 7.59036 1.47488 7.12222 1.86049 6.81338L1.8605 6.81338L8.9855 1.10674Z" stroke="#6D8493" stroke-width="1.5"/>
</svg>
