<svg width="25" height="24" viewBox="0 0 25 24" fill="none" xmlns="http://www.w3.org/2000/svg">
<path d="M20.7644 13.9874C20.4114 15.4555 19.6746 16.7992 18.6346 17.8836C18.0432 16.9453 17.2425 16.1526 16.292 15.5697C15.8048 15.2709 15.2864 15.0322 14.7481 14.8568C15.0204 14.6871 15.2747 14.4857 15.5052 14.2552C16.3022 13.4582 16.75 12.3772 16.75 11.25C16.75 10.4094 16.5007 9.58774 16.0337 8.88883C15.5668 8.18992 14.903 7.64518 14.1264 7.32351C13.3498 7.00184 12.4953 6.91768 11.6709 7.08166C10.8464 7.24565 10.0892 7.65042 9.4948 8.2448C8.90043 8.83917 8.49565 9.59645 8.33166 10.4209C8.16768 11.2453 8.25184 12.0998 8.57351 12.8764C8.89519 13.653 9.43992 14.3168 10.1388 14.7837C10.1762 14.8087 10.2139 14.8331 10.252 14.8568C9.7136 15.0322 9.19518 15.2709 8.70802 15.5697C7.75746 16.1526 6.95681 16.9454 6.36533 17.8836C5.32535 16.7993 4.58863 15.4555 4.2356 13.9875C3.83358 12.3157 3.94802 10.5613 4.56381 8.95591C5.1796 7.35053 6.26777 5.96965 7.68468 4.99557C9.10158 4.02149 10.7806 3.50002 12.5 3.5C14.2194 3.5 15.8984 4.02146 17.3153 4.99553C18.7322 5.9696 19.8204 7.35048 20.4362 8.95586C21.052 10.5612 21.1664 12.3156 20.7644 13.9874Z" stroke="#6D8493"/>
<path fill-rule="evenodd" clip-rule="evenodd" d="M12.5 3.75C7.94365 3.75 4.25 7.44365 4.25 12C4.25 16.5563 7.94365 20.25 12.5 20.25C17.0563 20.25 20.75 16.5563 20.75 12C20.75 7.44365 17.0563 3.75 12.5 3.75ZM2.75 12C2.75 6.61522 7.11522 2.25 12.5 2.25C17.8848 2.25 22.25 6.61522 22.25 12C22.25 17.3848 17.8848 21.75 12.5 21.75C7.11522 21.75 2.75 17.3848 2.75 12Z" fill="#6D8493"/>
</svg>
