<svg width="25" height="24" viewBox="0 0 25 24" fill="none" xmlns="http://www.w3.org/2000/svg">
<path d="M4.517 17.5106C4.6727 17.6781 4.792 17.8803 4.86641 18.1029C4.94082 18.3254 4.96851 18.5628 4.9475 18.7981C4.84182 19.8872 4.64196 20.9634 4.3505 22.0128C6.443 21.4937 7.721 20.8925 8.3015 20.5775C8.63076 20.3988 9.00993 20.3564 9.3665 20.4585C10.3884 20.7516 11.4421 20.8986 12.5 20.8957C18.494 20.8957 23 16.3839 23 11.2515C23 6.11923 18.494 1.60736 12.5 1.60736C6.506 1.60736 2 6.12084 2 11.2515C2 13.6112 2.9255 15.8004 4.517 17.5106ZM3.7775 23.7874C3.42209 23.8628 3.06554 23.9319 2.708 23.9947C2.408 24.0462 2.18 23.7118 2.2985 23.4129C2.43133 23.0761 2.5534 22.7346 2.6645 22.389L2.669 22.3729C3.041 21.2156 3.344 19.8847 3.455 18.6454C1.6145 16.6684 0.5 14.0805 0.5 11.2515C0.5 5.03748 5.873 0 12.5 0C19.127 0 24.5 5.03748 24.5 11.2515C24.5 17.4656 19.127 22.5031 12.5 22.5031C11.3114 22.5059 10.1277 22.3405 8.9795 22.0112C8.1995 22.434 6.521 23.2039 3.7775 23.7874Z" fill="#6D8493"/>
</svg>
