<svg width="33" height="33" viewBox="0 0 33 33" fill="none" xmlns="http://www.w3.org/2000/svg">
<path d="M29.5743 13.5628H28.5003V13.5075H16.5003V18.8408H24.0357C22.9363 21.9455 19.9823 24.1742 16.5003 24.1742C12.0823 24.1742 8.50033 20.5922 8.50033 16.1742C8.50033 11.7562 12.0823 8.17415 16.5003 8.17415C18.5397 8.17415 20.395 8.94349 21.8077 10.2002L25.579 6.42882C23.1977 4.20949 20.0123 2.84082 16.5003 2.84082C9.13699 2.84082 3.16699 8.81082 3.16699 16.1742C3.16699 23.5375 9.13699 29.5075 16.5003 29.5075C23.8637 29.5075 29.8337 23.5375 29.8337 16.1742C29.8337 15.2802 29.7417 14.4075 29.5743 13.5628Z" fill="#FFC107"/>
<path d="M4.7041 9.96815L9.08477 13.1808C10.2701 10.2462 13.1408 8.17415 16.5001 8.17415C18.5394 8.17415 20.3948 8.94349 21.8074 10.2002L25.5788 6.42882C23.1974 4.20949 20.0121 2.84082 16.5001 2.84082C11.3788 2.84082 6.93743 5.73215 4.7041 9.96815Z" fill="#FF3D00"/>
<path d="M16.4999 29.5076C19.9439 29.5076 23.0732 28.1896 25.4392 26.0463L21.3125 22.5543C19.9289 23.6065 18.2382 24.1757 16.4999 24.1743C13.0319 24.1743 10.0872 21.963 8.97788 18.877L4.62988 22.227C6.83655 26.545 11.3179 29.5076 16.4999 29.5076Z" fill="#4CAF50"/>
<path d="M29.574 13.5622H28.5V13.5068H16.5V18.8402H24.0353C23.5095 20.3178 22.5622 21.609 21.3107 22.5542L21.3127 22.5528L25.4393 26.0448C25.1473 26.3102 29.8333 22.8402 29.8333 16.1735C29.8333 15.2795 29.7413 14.4068 29.574 13.5622Z" fill="#1976D2"/>
</svg>
