<svg width="671" height="500" viewBox="0 0 671 500" fill="none" xmlns="http://www.w3.org/2000/svg">
<path d="M334.896 63.6902C238.071 107.265 325.958 184.9 270.051 227.186C214.143 269.473 62.1482 220.583 120.082 330.399C188.149 459.379 486.22 441.53 550.489 283.268C614.757 125.006 431.722 20.1423 334.896 63.6902Z" fill="#E3B134"/>
<path opacity="0.9" d="M334.896 63.6902C238.071 107.265 325.958 184.9 270.051 227.186C214.143 269.473 62.1482 220.583 120.082 330.399C188.149 459.379 486.22 441.53 550.489 283.268C614.757 125.006 431.722 20.1423 334.896 63.6902Z" fill="white"/>
<path d="M335.5 499.987C479.205 499.987 595.701 493.186 595.701 484.796C595.701 476.406 479.205 469.604 335.5 469.604C191.795 469.604 75.2998 476.406 75.2998 484.796C75.2998 493.186 191.795 499.987 335.5 499.987Z" fill="#F5F5F5"/>
<path d="M512.711 426.258C512.711 426.258 502.297 413.885 495.641 419.656C488.985 425.426 492.353 437.679 500.029 438.081C504.582 438.327 509.075 436.953 512.711 434.203V426.258Z" fill="#E3B134"/>
<path opacity="0.2" d="M512.711 426.258C512.711 426.258 502.297 413.885 495.641 419.656C488.985 425.426 492.353 437.679 500.029 438.081C504.582 438.327 509.075 436.953 512.711 434.203V426.258Z" fill="white"/>
<path d="M555.159 394.855C555.159 394.855 563.896 385.703 569.304 387.259C574.712 388.816 574.162 410.677 557.373 401.82L555.159 394.855Z" fill="#E3B134"/>
<path opacity="0.3" d="M555.159 394.855C555.159 394.855 563.896 385.703 569.304 387.259C574.712 388.816 574.162 410.677 557.373 401.82L555.159 394.855Z" fill="white"/>
<path d="M523.944 463.149C523.944 463.149 495.225 423.869 518.576 415.911C541.927 407.953 546.047 447.515 539.391 458.533C532.734 469.55 523.944 463.149 523.944 463.149Z" fill="#E3B134"/>
<path d="M537.256 382.723C537.256 382.723 555.078 341.363 528.695 340.115C502.311 338.867 499.425 381.127 529.795 387.259L537.256 382.723Z" fill="#E3B134"/>
<path opacity="0.3" d="M523.944 463.149C523.944 463.149 495.225 423.869 518.576 415.911C541.927 407.953 546.047 447.515 539.391 458.533C532.734 469.55 523.944 463.149 523.944 463.149Z" fill="white"/>
<path opacity="0.3" d="M537.256 382.723C537.256 382.723 555.078 341.363 528.695 340.115C502.311 338.867 499.425 381.127 529.795 387.259L537.256 382.723Z" fill="white"/>
<path d="M530.936 416.582C530.936 416.582 522.28 380.067 538.988 377.154C555.696 374.242 572.068 407.242 537.646 423.829C537.565 423.829 531.661 420.166 530.936 416.582Z" fill="#E3B134"/>
<path opacity="0.2" d="M530.936 416.582C530.936 416.582 522.28 380.067 538.988 377.154C555.696 374.242 572.068 407.242 537.646 423.829C537.565 423.829 531.661 420.166 530.936 416.582Z" fill="white"/>
<path d="M503.277 457.58H551.482L547.456 488.433H507.303L503.277 457.58Z" fill="#263238"/>
<path d="M528.345 379.798C518.415 372.538 511.53 358.501 517.395 346.678C517.153 347.778 516.858 348.973 516.589 350.073C514.63 361.279 520.776 371.974 528.345 379.798Z" fill="#E3B134"/>
<path d="M522.038 344.275C533.485 346.597 538.545 358.742 537.216 369.438C536.961 370.954 536.746 372.444 536.438 373.934C536.588 370.937 536.556 367.935 536.344 364.942C535.633 356.125 530.775 347.496 522.038 344.275Z" fill="#E3B134"/>
<path d="M542.169 379.798C548.597 382.066 552.623 389.125 552.636 395.808C552.636 401.632 549.415 406.92 545.819 411.268C543.197 414.425 540.2 417.251 536.895 419.682C539.814 416.881 542.507 413.852 544.947 410.624C547.939 406.598 550.57 402.236 551.227 397.271C551.791 390.373 548.422 383.019 542.101 379.825L542.169 379.798Z" fill="#E3B134"/>
<path d="M537.256 382.724C538.974 388.092 540.504 394.466 537.712 399.727C535.377 403.135 535.136 407.591 535.028 411.657C535.028 413.08 535.028 414.489 535.122 415.911C534.437 413.124 534.126 410.259 534.196 407.39C534.151 404.433 534.957 401.526 536.518 399.016C539.095 394.104 537.86 388.025 537.202 382.724H537.256Z" fill="#E3B134"/>
<path d="M525.555 419.655C532.265 423.104 534.949 446.267 534.694 453.554C534.492 452.078 534.264 450.615 533.982 449.152C532.708 441.852 531.379 434.525 529.446 427.372C528.547 424.688 527.97 421.386 525.555 419.655Z" fill="#E3B134"/>
<path d="M517.395 420.931C515.778 426.189 515.531 431.773 516.677 437.154C517.823 442.534 520.325 447.533 523.944 451.676C522.879 450.763 521.871 449.786 520.924 448.75C517.682 444.966 515.619 440.314 514.992 435.369C514.365 430.425 515.2 425.405 517.395 420.931Z" fill="#E3B134"/>
<path d="M561.936 399.311C564.995 398.493 567.599 397.755 569.826 395.5C569.276 398.922 564.928 400.532 561.936 399.311Z" fill="#E3B134"/>
<path d="M560.151 393.286C561.587 390.36 566.499 388.535 568.579 391.715C565.64 390.44 562.782 392.037 560.151 393.286Z" fill="#E3B134"/>
<path d="M507.96 428.11C504.605 425.748 501.13 421.722 496.795 423.829C500.324 419.642 506.256 424.325 507.96 428.11Z" fill="#E3B134"/>
<path d="M507.961 434.203C503.573 435.813 494.809 435.934 494.272 429.801C496.782 434.806 503.183 433.706 507.961 434.203Z" fill="#E3B134"/>
<path d="M423.603 461.66C423.833 461.193 423.947 460.677 423.934 460.156C423.921 459.635 423.782 459.125 423.528 458.67C423.275 458.214 422.915 457.827 422.479 457.542C422.043 457.256 421.545 457.081 421.026 457.03C421.471 455.702 421.5 454.269 421.109 452.924C420.718 451.579 419.926 450.385 418.839 449.502C418.58 449.253 418.244 449.101 417.886 449.072C417.506 449.113 417.15 449.273 416.866 449.529L410.841 453.863C410.351 454.157 409.937 454.561 409.633 455.044C408.398 457.433 412.854 460.493 410.975 462.465C410.451 463.043 409.633 463.15 408.948 463.566C407.512 464.465 407.338 466.438 406.667 467.994C405.996 469.551 403.661 470.746 402.762 469.336C403.433 467.847 401.42 466.559 399.809 466.371C398.199 466.183 396.495 466.089 395.609 464.572C393.301 466.585 388.161 460.976 388.268 458.721C387.362 458.884 386.53 459.326 385.887 459.985C385.245 460.645 384.824 461.488 384.685 462.398C384.423 464.265 384.355 466.154 384.484 468.035C384.484 471.698 383.249 475.282 383.316 478.945C383.316 481.79 384.47 484.944 387.074 486.098C388.363 486.558 389.735 486.741 391.1 486.635L420.798 486.447C421.514 486.502 422.232 486.382 422.892 486.098C424.234 485.4 424.516 483.642 424.636 482.139C425.155 475.689 425.688 469.238 426.233 462.788L423.603 461.66Z" fill="#E3B134"/>
<path opacity="0.3" d="M423.603 461.66C423.833 461.193 423.947 460.677 423.934 460.156C423.921 459.635 423.782 459.125 423.528 458.67C423.275 458.214 422.915 457.827 422.479 457.542C422.043 457.256 421.545 457.081 421.026 457.03C421.471 455.702 421.5 454.269 421.109 452.924C420.718 451.579 419.926 450.385 418.839 449.502C418.58 449.253 418.244 449.101 417.886 449.072C417.506 449.113 417.15 449.273 416.866 449.529L410.841 453.863C410.351 454.157 409.937 454.561 409.633 455.044C408.398 457.433 412.854 460.493 410.975 462.465C410.451 463.043 409.633 463.15 408.948 463.566C407.512 464.465 407.338 466.438 406.667 467.994C405.996 469.551 403.661 470.746 402.762 469.336C403.433 467.847 401.42 466.559 399.809 466.371C398.199 466.183 396.495 466.089 395.609 464.572C393.301 466.585 388.161 460.976 388.268 458.721C387.362 458.884 386.53 459.326 385.887 459.985C385.245 460.645 384.824 461.488 384.685 462.398C384.423 464.265 384.355 466.154 384.484 468.035C384.484 471.698 383.249 475.282 383.316 478.945C383.316 481.79 384.47 484.944 387.074 486.098C388.363 486.558 389.735 486.741 391.1 486.635L420.798 486.447C421.514 486.502 422.232 486.382 422.892 486.098C424.234 485.4 424.516 483.642 424.636 482.139C425.155 475.689 425.688 469.238 426.233 462.788L423.603 461.66Z" fill="white"/>
<path d="M425.414 430.204H379.263L379.638 434.861L379.92 438.189L380.618 446.832L381.021 451.81L381.544 458.413L381.772 461.258L381.853 462.103L382.121 465.432L382.497 470.008L382.725 472.839L382.953 475.725L383.222 479.053L383.436 481.576L383.664 484.408L383.758 485.642H426.045L426.139 484.408L426.367 481.589L426.582 479.04L426.85 475.711L427.078 472.839L427.306 470.008L427.682 465.418L427.95 462.103L428.018 461.258L428.246 458.413L428.783 451.81L429.185 446.845L429.883 438.189L430.151 434.861L430.527 430.204H425.414ZM428.179 433.264L427.293 432.365H428.259L428.179 433.264ZM427.95 436.082L427.87 437.209L423.737 441.329L419.013 436.605L423.24 432.365H424.233L427.95 436.082ZM426.756 450.844L423.737 453.864L419.013 449.126L423.737 444.416L427.011 447.677L426.756 450.844ZM382.913 447.677L386.187 444.416L390.911 449.126L386.187 453.864L383.181 450.844L382.913 447.677ZM422.153 442.873L417.362 447.596L412.692 442.873L417.416 438.149L422.153 442.873ZM414.678 432.365H420.046L417.362 435.049L414.678 432.365ZM415.859 449.113L411.135 453.85L406.398 449.113L411.135 444.402L415.859 449.113ZM400.144 455.38L404.882 450.656L409.592 455.38L404.882 460.104L400.144 455.38ZM403.338 461.634L398.574 466.371L393.917 461.661L398.641 456.923L403.338 461.634ZM411.135 456.91L415.886 461.661L411.162 466.384L406.425 461.661L411.135 456.91ZM404.882 447.596L400.171 442.873L404.908 438.149L409.619 442.873L404.882 447.596ZM403.338 449.113L398.614 453.85L393.891 449.113L398.614 444.402L403.338 449.113ZM392.347 447.596L387.65 442.873L392.374 438.149L397.111 442.873L392.347 447.596ZM392.347 450.656L397.084 455.38L392.347 460.104L387.623 455.38L392.347 450.656ZM397.084 467.901L392.347 472.625L387.623 467.901L392.347 463.177L397.084 467.901ZM398.601 469.431L403.338 474.155L398.614 478.892L393.891 474.155L398.601 469.431ZM400.144 467.901L404.882 463.177L409.592 467.901L404.882 472.625L400.144 467.901ZM411.135 469.431L415.859 474.155L411.135 478.892L406.398 474.155L411.135 469.431ZM417.389 475.685L422.126 480.422L419.053 483.482H415.752L412.692 480.449L417.389 475.685ZM412.665 467.901L417.389 463.177L422.126 467.901L417.362 472.625L412.665 467.901ZM412.665 455.38L417.362 450.656L422.099 455.38L417.362 460.104L412.665 455.38ZM415.859 436.592L411.135 441.316L406.398 436.592L410.639 432.351H411.632L415.859 436.592ZM404.882 435.062L402.198 432.378H407.566L404.882 435.062ZM403.338 436.592L398.614 441.316L393.891 436.592L398.118 432.351H399.111L403.338 436.592ZM395.058 432.351L392.374 435.035L389.69 432.351H395.058ZM386.59 432.351L390.817 436.592L386.094 441.316L381.974 437.196L381.893 436.069L385.597 432.351H386.59ZM382.564 432.351L381.692 433.237L381.611 432.351H382.564ZM382.269 440.538L384.59 442.846L382.618 444.819L382.269 440.538ZM383.611 456.387L383.436 454.145L384.644 455.367L383.611 456.387ZM383.839 459.245L386.174 456.897L390.898 461.634L386.174 466.358L384.268 464.452L383.839 459.245ZM384.55 467.981V467.78L384.658 467.887L384.564 467.981H384.55ZM385.369 478.06L384.778 470.813L386.12 469.471L390.844 474.195L386.12 478.919L385.315 478.114L385.369 478.06ZM385.798 483.428L385.718 482.341L386.174 481.885L387.704 483.428H385.798ZM387.704 480.368L392.428 475.631L397.165 480.368L394.092 483.428H390.764L387.704 480.368ZM397.165 483.428L398.695 481.885L400.238 483.428H397.165ZM403.285 483.428L400.171 480.449L404.908 475.711L409.619 480.449L406.626 483.482L403.285 483.428ZM409.672 483.428L411.216 481.885L412.746 483.428H409.672ZM424.099 483.428H422.193L423.723 481.885L424.179 482.341L424.099 483.428ZM424.542 478.06L423.723 478.865L418.999 474.141L423.723 469.417L425.065 470.759L424.542 478.06ZM425.374 467.767V467.981L425.28 467.887L425.401 467.767H425.374ZM425.642 464.452L423.723 466.358L418.946 461.661L423.67 456.923L426.018 459.272L425.642 464.452ZM426.3 456.4L425.253 455.367L426.474 454.145L426.3 456.4ZM427.642 440.524L427.293 444.832L425.199 442.873L427.534 440.551L427.642 440.524Z" fill="#E3B134"/>
<g opacity="0.6">
<path d="M425.414 430.204H379.263L379.638 434.861L379.92 438.189L380.618 446.832L381.021 451.81L381.544 458.413L381.772 461.258L381.853 462.103L382.121 465.432L382.497 470.008L382.725 472.839L382.953 475.725L383.222 479.053L383.436 481.576L383.664 484.408L383.758 485.642H426.045L426.139 484.408L426.367 481.589L426.582 479.04L426.85 475.711L427.078 472.839L427.306 470.008L427.682 465.418L427.95 462.103L428.018 461.258L428.246 458.413L428.783 451.81L429.185 446.845L429.883 438.189L430.151 434.861L430.527 430.204H425.414ZM428.179 433.264L427.293 432.365H428.259L428.179 433.264ZM427.95 436.082L427.87 437.209L423.737 441.329L419.013 436.605L423.24 432.365H424.233L427.95 436.082ZM426.756 450.844L423.737 453.864L419.013 449.126L423.737 444.416L427.011 447.677L426.756 450.844ZM382.913 447.677L386.187 444.416L390.911 449.126L386.187 453.864L383.181 450.844L382.913 447.677ZM422.153 442.873L417.362 447.596L412.692 442.873L417.416 438.149L422.153 442.873ZM414.678 432.365H420.046L417.362 435.049L414.678 432.365ZM415.859 449.113L411.135 453.85L406.398 449.113L411.135 444.402L415.859 449.113ZM400.144 455.38L404.882 450.656L409.592 455.38L404.882 460.104L400.144 455.38ZM403.338 461.634L398.574 466.371L393.917 461.661L398.641 456.923L403.338 461.634ZM411.135 456.91L415.886 461.661L411.162 466.384L406.425 461.661L411.135 456.91ZM404.882 447.596L400.171 442.873L404.908 438.149L409.619 442.873L404.882 447.596ZM403.338 449.113L398.614 453.85L393.891 449.113L398.614 444.402L403.338 449.113ZM392.347 447.596L387.65 442.873L392.374 438.149L397.111 442.873L392.347 447.596ZM392.347 450.656L397.084 455.38L392.347 460.104L387.623 455.38L392.347 450.656ZM397.084 467.901L392.347 472.625L387.623 467.901L392.347 463.177L397.084 467.901ZM398.601 469.431L403.338 474.155L398.614 478.892L393.891 474.155L398.601 469.431ZM400.144 467.901L404.882 463.177L409.592 467.901L404.882 472.625L400.144 467.901ZM411.135 469.431L415.859 474.155L411.135 478.892L406.398 474.155L411.135 469.431ZM417.389 475.685L422.126 480.422L419.053 483.482H415.752L412.692 480.449L417.389 475.685ZM412.665 467.901L417.389 463.177L422.126 467.901L417.362 472.625L412.665 467.901ZM412.665 455.38L417.362 450.656L422.099 455.38L417.362 460.104L412.665 455.38ZM415.859 436.592L411.135 441.316L406.398 436.592L410.639 432.351H411.632L415.859 436.592ZM404.882 435.062L402.198 432.378H407.566L404.882 435.062ZM403.338 436.592L398.614 441.316L393.891 436.592L398.118 432.351H399.111L403.338 436.592ZM395.058 432.351L392.374 435.035L389.69 432.351H395.058ZM386.59 432.351L390.817 436.592L386.094 441.316L381.974 437.196L381.893 436.069L385.597 432.351H386.59ZM382.564 432.351L381.692 433.237L381.611 432.351H382.564ZM382.269 440.538L384.59 442.846L382.618 444.819L382.269 440.538ZM383.611 456.387L383.436 454.145L384.644 455.367L383.611 456.387ZM383.839 459.245L386.174 456.897L390.898 461.634L386.174 466.358L384.268 464.452L383.839 459.245ZM384.55 467.981V467.78L384.658 467.887L384.564 467.981H384.55ZM385.369 478.06L384.778 470.813L386.12 469.471L390.844 474.195L386.12 478.919L385.315 478.114L385.369 478.06ZM385.798 483.428L385.718 482.341L386.174 481.885L387.704 483.428H385.798ZM387.704 480.368L392.428 475.631L397.165 480.368L394.092 483.428H390.764L387.704 480.368ZM397.165 483.428L398.695 481.885L400.238 483.428H397.165ZM403.285 483.428L400.171 480.449L404.908 475.711L409.619 480.449L406.626 483.482L403.285 483.428ZM409.672 483.428L411.216 481.885L412.746 483.428H409.672ZM424.099 483.428H422.193L423.723 481.885L424.179 482.341L424.099 483.428ZM424.542 478.06L423.723 478.865L418.999 474.141L423.723 469.417L425.065 470.759L424.542 478.06ZM425.374 467.767V467.981L425.28 467.887L425.401 467.767H425.374ZM425.642 464.452L423.723 466.358L418.946 461.661L423.67 456.923L426.018 459.272L425.642 464.452ZM426.3 456.4L425.253 455.367L426.474 454.145L426.3 456.4ZM427.642 440.524L427.293 444.832L425.199 442.873L427.534 440.551L427.642 440.524Z" fill="white"/>
</g>
<path d="M378.511 434.311H431.279C432.494 434.311 433.479 433.325 433.479 432.11V430.486C433.479 429.27 432.494 428.285 431.279 428.285H378.511C377.296 428.285 376.31 429.27 376.31 430.486V432.11C376.31 433.325 377.296 434.311 378.511 434.311Z" fill="#E3B134"/>
<path d="M427.159 482.408H382.645C381.43 482.408 380.444 483.394 380.444 484.609V486.233C380.444 487.448 381.43 488.434 382.645 488.434H427.159C428.375 488.434 429.36 487.448 429.36 486.233V484.609C429.36 483.394 428.375 482.408 427.159 482.408Z" fill="#E3B134"/>
<path d="M581.811 125.65H313.881V308.068H581.811V125.65Z" fill="#E3B134"/>
<path opacity="0.6" d="M581.811 125.65H313.881V308.068H581.811V125.65Z" fill="white"/>
<path opacity="0.1" d="M486.395 125.65C486.395 125.65 409.31 197.823 313.881 199.541V125.65H486.395Z" fill="white"/>
<path opacity="0.1" d="M581.798 220.879C581.798 220.879 528.856 215.363 476.478 245.786C424.099 276.21 371.802 304.834 313.881 291.414V308.055H581.798V220.879Z" fill="white"/>
<path d="M511.893 166.89H383.772V188.831H511.893V166.89Z" fill="white"/>
<path d="M511.893 198.011H383.772V219.952H511.893V198.011Z" fill="white"/>
<g opacity="0.4">
<path d="M395.246 180.001V180.578H390.791V174.284H395.112V174.861H391.462V177.156H394.71V177.72H391.462V180.055L395.246 180.001Z" fill="#263238"/>
<path d="M396.132 177.854H398.494V178.417H396.132V177.854Z" fill="#263238"/>
<path d="M407.714 177.827V180.578H407.083V177.894C407.083 176.901 406.573 176.391 405.741 176.391C405.519 176.377 405.297 176.413 405.09 176.495C404.883 176.578 404.697 176.705 404.546 176.868C404.394 177.031 404.281 177.226 404.214 177.438C404.147 177.65 404.127 177.875 404.158 178.095V180.578H403.514V177.894C403.514 176.901 403.017 176.391 402.172 176.391C401.951 176.381 401.731 176.42 401.527 176.504C401.323 176.589 401.14 176.716 400.991 176.879C400.841 177.041 400.729 177.234 400.662 177.444C400.594 177.654 400.574 177.876 400.601 178.095V180.578H399.917V175.814H400.534V176.686C400.714 176.393 400.97 176.155 401.275 175.996C401.58 175.838 401.922 175.766 402.265 175.787C402.613 175.761 402.96 175.843 403.26 176.02C403.56 176.198 403.798 176.463 403.943 176.78C404.136 176.462 404.411 176.202 404.739 176.027C405.067 175.852 405.437 175.769 405.808 175.787C406.076 175.763 406.346 175.801 406.598 175.897C406.849 175.994 407.075 176.146 407.259 176.342C407.442 176.539 407.579 176.775 407.658 177.032C407.737 177.289 407.756 177.561 407.714 177.827Z" fill="#263238"/>
<path d="M413.015 177.639V180.578H412.397V179.84C412.221 180.103 411.977 180.314 411.692 180.451C411.406 180.588 411.089 180.646 410.773 180.618C409.7 180.618 409.056 180.068 409.056 179.276C409.056 178.484 409.512 177.934 410.867 177.934H412.37V177.639C412.387 177.463 412.363 177.285 412.3 177.119C412.238 176.953 412.137 176.804 412.008 176.684C411.878 176.563 411.722 176.474 411.552 176.423C411.382 176.372 411.203 176.361 411.028 176.391C410.45 176.382 409.888 176.582 409.445 176.955L409.163 176.471C409.71 176.045 410.389 175.822 411.082 175.841C411.333 175.801 411.59 175.819 411.833 175.894C412.077 175.968 412.3 176.097 412.486 176.27C412.672 176.443 412.816 176.656 412.908 176.893C413 177.131 413.036 177.386 413.015 177.639ZM412.37 179.155V178.377H410.894C409.982 178.377 409.673 178.739 409.673 179.223C409.673 179.706 410.116 180.122 410.867 180.122C411.188 180.143 411.507 180.06 411.778 179.886C412.049 179.712 412.256 179.456 412.37 179.155Z" fill="#263238"/>
<path d="M414.598 174.351C414.595 174.258 414.62 174.166 414.67 174.087C414.72 174.008 414.793 173.946 414.878 173.908C414.964 173.87 415.059 173.859 415.151 173.876C415.243 173.892 415.328 173.936 415.395 174.001C415.462 174.066 415.508 174.15 415.527 174.241C415.546 174.333 415.538 174.428 415.503 174.514C415.467 174.601 415.407 174.675 415.33 174.727C415.252 174.78 415.161 174.808 415.068 174.808C415.007 174.809 414.946 174.799 414.889 174.777C414.832 174.755 414.78 174.721 414.736 174.679C414.692 174.636 414.658 174.585 414.634 174.529C414.61 174.473 414.598 174.412 414.598 174.351ZM414.745 175.841H415.376V180.578H414.745V175.841Z" fill="#263238"/>
<path d="M417.161 173.908H417.792V180.618H417.161V173.908Z" fill="#263238"/>
</g>
<g opacity="0.4">
<path d="M395.716 207.58C395.716 208.922 394.75 209.74 393.153 209.74H391.462V211.727H390.791V205.433H393.207C394.75 205.433 395.716 206.238 395.716 207.58ZM395.059 207.58C395.059 206.573 394.388 206.01 393.126 206.01H391.462V209.15H393.126C394.388 209.15 395.059 208.573 395.059 207.58Z" fill="#263238"/>
<path d="M400.534 208.788V211.727H399.917V210.989C399.739 211.251 399.495 211.461 399.21 211.597C398.925 211.734 398.608 211.793 398.293 211.767C397.219 211.767 396.562 211.203 396.562 210.425C396.562 209.646 397.031 209.083 398.387 209.083H399.917V208.788C399.917 207.982 399.46 207.54 398.575 207.54C398 207.53 397.442 207.731 397.004 208.103L396.709 207.62C397.262 207.194 397.944 206.971 398.642 206.989C398.89 206.954 399.144 206.975 399.383 207.052C399.622 207.128 399.841 207.257 400.023 207.43C400.205 207.603 400.346 207.815 400.434 208.05C400.522 208.286 400.557 208.538 400.534 208.788ZM399.917 210.304V209.526H398.427C397.514 209.526 397.219 209.888 397.219 210.371C397.219 210.854 397.662 211.257 398.413 211.257C398.732 211.277 399.05 211.195 399.319 211.024C399.589 210.853 399.798 210.601 399.917 210.304Z" fill="#263238"/>
<path d="M401.607 211.177L401.903 210.68C402.392 211.028 402.98 211.211 403.58 211.203C404.479 211.203 404.842 210.908 404.842 210.439C404.842 209.204 401.782 210.17 401.782 208.305C401.782 207.526 402.453 206.963 403.647 206.963C404.235 206.949 404.816 207.098 405.325 207.392L405.043 207.916C404.648 207.644 404.18 207.499 403.701 207.5C402.855 207.5 402.48 207.835 402.48 208.291C402.48 209.633 405.539 208.6 405.539 210.412C405.539 211.23 404.815 211.754 403.594 211.754C402.885 211.79 402.186 211.587 401.607 211.177Z" fill="#263238"/>
<path d="M406.01 211.175L406.292 210.679C406.782 211.024 407.369 211.207 407.969 211.202C408.868 211.202 409.244 210.907 409.244 210.437C409.244 209.203 406.171 210.169 406.171 208.304C406.171 207.525 406.842 206.962 408.05 206.962C408.633 206.95 409.209 207.099 409.714 207.391L409.432 207.914C409.038 207.64 408.569 207.495 408.09 207.498C407.231 207.498 406.855 207.834 406.855 208.29C406.855 209.632 409.915 208.599 409.915 210.41C409.915 211.229 409.204 211.752 407.969 211.752C407.27 211.786 406.579 211.583 406.01 211.175Z" fill="#263238"/>
<path d="M417.9 206.989L416.115 211.727H415.511L414.021 207.848L412.532 211.727H411.995L410.21 206.989H410.827L412.303 211.015L413.82 206.989H414.37L415.887 211.015L417.39 206.989H417.9Z" fill="#263238"/>
<path d="M418.248 209.364C418.251 208.89 418.394 208.427 418.659 208.033C418.925 207.64 419.301 207.334 419.74 207.155C420.179 206.975 420.662 206.929 421.127 207.023C421.592 207.118 422.019 207.347 422.354 207.684C422.688 208.02 422.916 208.448 423.007 208.914C423.099 209.38 423.05 209.862 422.868 210.3C422.686 210.738 422.378 211.113 421.983 211.376C421.589 211.639 421.125 211.78 420.65 211.78C420.331 211.791 420.012 211.736 419.715 211.619C419.417 211.501 419.147 211.324 418.922 211.097C418.696 210.87 418.52 210.599 418.404 210.301C418.288 210.003 418.235 209.684 418.248 209.364ZM422.408 209.364C422.39 209.021 422.271 208.691 422.067 208.415C421.863 208.138 421.583 207.927 421.26 207.809C420.938 207.69 420.588 207.668 420.253 207.746C419.919 207.824 419.614 207.999 419.378 208.248C419.141 208.497 418.983 208.81 418.922 209.148C418.862 209.487 418.902 209.835 419.037 210.151C419.172 210.467 419.397 210.736 419.684 210.925C419.971 211.115 420.307 211.216 420.65 211.216C420.89 211.221 421.129 211.175 421.35 211.082C421.572 210.989 421.772 210.851 421.937 210.677C422.102 210.503 422.23 210.296 422.311 210.07C422.392 209.844 422.425 209.604 422.408 209.364Z" fill="#263238"/>
<path d="M426.756 206.962V207.58H426.609C426.383 207.567 426.157 207.605 425.947 207.691C425.738 207.776 425.55 207.907 425.398 208.074C425.245 208.241 425.131 208.44 425.064 208.656C424.997 208.872 424.98 209.1 425.012 209.324V211.74H424.381V207.003H424.985V207.929C425.148 207.608 425.405 207.344 425.721 207.171C426.037 206.999 426.398 206.926 426.756 206.962Z" fill="#263238"/>
<path d="M432.124 205.057V211.767H431.507V210.827C431.319 211.137 431.052 211.39 430.734 211.563C430.415 211.735 430.057 211.819 429.695 211.807C429.058 211.807 428.447 211.554 427.997 211.103C427.546 210.653 427.293 210.042 427.293 209.405C427.293 208.768 427.546 208.157 427.997 207.706C428.447 207.256 429.058 207.003 429.695 207.003C430.047 206.991 430.396 207.07 430.709 207.232C431.021 207.394 431.287 207.634 431.48 207.929V205.097L432.124 205.057ZM431.493 209.351C431.475 209.007 431.356 208.677 431.152 208.4C430.947 208.123 430.666 207.913 430.342 207.794C430.019 207.676 429.668 207.655 429.334 207.734C428.999 207.813 428.694 207.989 428.458 208.24C428.222 208.49 428.065 208.804 428.006 209.143C427.947 209.482 427.989 209.831 428.126 210.147C428.264 210.462 428.491 210.731 428.779 210.918C429.067 211.106 429.405 211.205 429.749 211.203C429.989 211.209 430.228 211.165 430.45 211.074C430.672 210.983 430.873 210.846 431.039 210.674C431.206 210.501 431.335 210.295 431.417 210.07C431.5 209.844 431.535 209.604 431.52 209.364L431.493 209.351Z" fill="#263238"/>
</g>
<path opacity="0.2" d="M513.235 242.324H385.114V264.266H513.235V242.324Z" fill="black"/>
<g opacity="0.5">
<path d="M401.111 233.239L400.252 232.045H398.91V233.226H398.574V229.495H399.916C400.869 229.495 401.446 229.978 401.446 230.837C401.459 231.102 401.38 231.364 401.224 231.578C401.068 231.793 400.843 231.948 400.587 232.018L401.5 233.293L401.111 233.239ZM401.111 230.783C401.111 230.18 400.708 229.831 399.956 229.831H398.963V231.723H399.916C400.695 231.723 401.097 231.374 401.097 230.837L401.111 230.783Z" fill="black"/>
<path d="M404.801 231.951H402.439C402.448 232.088 402.483 232.223 402.544 232.346C402.605 232.47 402.689 232.581 402.793 232.672C402.896 232.763 403.017 232.832 403.147 232.877C403.277 232.921 403.415 232.939 403.553 232.93C403.716 232.936 403.878 232.906 404.028 232.844C404.179 232.781 404.314 232.687 404.425 232.568L404.64 232.809C404.501 232.961 404.331 233.081 404.14 233.16C403.95 233.238 403.745 233.275 403.54 233.266C403.344 233.286 403.147 233.263 402.961 233.199C402.776 233.134 402.607 233.03 402.466 232.893C402.325 232.756 402.216 232.59 402.147 232.406C402.077 232.222 402.049 232.026 402.063 231.83C402.052 231.647 402.079 231.464 402.141 231.291C402.204 231.119 402.301 230.962 402.427 230.828C402.553 230.695 402.704 230.589 402.873 230.517C403.041 230.444 403.222 230.407 403.405 230.407C403.589 230.407 403.77 230.444 403.938 230.517C404.107 230.589 404.258 230.695 404.384 230.828C404.51 230.962 404.607 231.119 404.669 231.291C404.732 231.464 404.758 231.647 404.747 231.83C404.747 231.83 404.801 231.91 404.801 231.951ZM402.439 231.669H404.452C404.452 231.402 404.346 231.146 404.157 230.957C403.969 230.768 403.713 230.662 403.446 230.662C403.179 230.662 402.923 230.768 402.734 230.957C402.545 231.146 402.439 231.402 402.439 231.669Z" fill="black"/>
<path d="M410.25 231.615V233.239H409.86V231.642C409.86 231.051 409.565 230.743 409.055 230.743C408.923 230.736 408.791 230.758 408.668 230.808C408.545 230.858 408.435 230.934 408.345 231.031C408.255 231.129 408.188 231.245 408.149 231.371C408.109 231.498 408.098 231.631 408.116 231.763V233.239H407.727V231.642C407.727 231.051 407.431 230.743 406.921 230.743C406.789 230.736 406.656 230.758 406.533 230.808C406.409 230.858 406.299 230.934 406.208 231.031C406.117 231.128 406.049 231.244 406.007 231.37C405.966 231.497 405.953 231.631 405.969 231.763V233.239H405.593V230.421H405.955V230.944C406.062 230.769 406.215 230.627 406.397 230.532C406.579 230.437 406.784 230.394 406.988 230.407C407.197 230.389 407.406 230.436 407.586 230.542C407.766 230.648 407.909 230.807 407.995 230.998C408.109 230.807 408.274 230.652 408.47 230.548C408.666 230.444 408.887 230.395 409.109 230.407C409.268 230.393 409.428 230.416 409.577 230.473C409.727 230.53 409.861 230.619 409.971 230.736C410.081 230.852 410.163 230.991 410.211 231.143C410.259 231.296 410.272 231.457 410.25 231.615Z" fill="black"/>
<path d="M413.752 231.95H411.39C411.399 232.088 411.435 232.223 411.495 232.346C411.556 232.47 411.64 232.581 411.744 232.672C411.847 232.763 411.968 232.832 412.098 232.877C412.229 232.921 412.367 232.939 412.504 232.93C412.665 232.936 412.826 232.907 412.974 232.844C413.122 232.782 413.255 232.687 413.363 232.568L413.578 232.809C413.375 233.02 413.115 233.167 412.829 233.231C412.543 233.295 412.245 233.274 411.972 233.169C411.698 233.065 411.461 232.882 411.291 232.644C411.121 232.405 411.025 232.122 411.015 231.83C411.015 231.465 411.16 231.115 411.418 230.857C411.676 230.599 412.025 230.454 412.39 230.454C412.755 230.454 413.105 230.599 413.363 230.857C413.621 231.115 413.766 231.465 413.766 231.83C413.766 231.83 413.752 231.91 413.752 231.95ZM411.39 231.669H413.336C413.333 231.542 413.304 231.417 413.253 231.301C413.201 231.185 413.127 231.08 413.034 230.993C412.942 230.906 412.834 230.838 412.715 230.792C412.597 230.747 412.47 230.726 412.343 230.729C412.096 230.739 411.861 230.841 411.685 231.014C411.509 231.188 411.404 231.421 411.39 231.669Z" fill="black"/>
<path d="M419.201 231.615V233.239H418.811V231.642C418.811 231.051 418.516 230.743 418.006 230.743C417.874 230.736 417.742 230.758 417.619 230.808C417.496 230.858 417.386 230.934 417.296 231.031C417.207 231.129 417.14 231.245 417.1 231.371C417.06 231.498 417.049 231.631 417.067 231.763V233.239H416.678V231.642C416.678 231.051 416.383 230.743 415.859 230.743C415.727 230.738 415.596 230.762 415.475 230.812C415.353 230.863 415.244 230.94 415.155 231.036C415.065 231.133 414.998 231.248 414.958 231.374C414.917 231.499 414.904 231.632 414.92 231.763V233.239H414.544V230.421H414.906V230.944C415.013 230.769 415.166 230.627 415.348 230.532C415.53 230.437 415.735 230.394 415.94 230.407C416.148 230.389 416.357 230.436 416.537 230.542C416.718 230.648 416.861 230.807 416.946 230.998C417.061 230.807 417.225 230.652 417.421 230.548C417.617 230.444 417.838 230.395 418.06 230.407C418.219 230.393 418.379 230.416 418.529 230.473C418.678 230.53 418.812 230.619 418.922 230.736C419.032 230.852 419.114 230.991 419.162 231.143C419.21 231.296 419.224 231.457 419.201 231.615Z" fill="black"/>
<path d="M423.092 231.83C423.105 232.014 423.08 232.198 423.018 232.372C422.957 232.546 422.86 232.705 422.734 232.84C422.608 232.975 422.456 233.082 422.286 233.155C422.117 233.229 421.935 233.266 421.75 233.266C421.534 233.273 421.32 233.224 421.13 233.122C420.939 233.021 420.778 232.872 420.663 232.689V233.239H420.301V229.213H420.677V230.904C420.794 230.729 420.955 230.587 421.142 230.49C421.33 230.394 421.539 230.347 421.75 230.354C421.938 230.353 422.124 230.391 422.297 230.467C422.469 230.543 422.623 230.654 422.75 230.793C422.876 230.932 422.972 231.096 423.031 231.275C423.09 231.454 423.111 231.643 423.092 231.83ZM422.716 231.83C422.708 231.622 422.64 231.421 422.518 231.252C422.397 231.083 422.229 230.954 422.035 230.879C421.841 230.805 421.629 230.79 421.426 230.835C421.223 230.881 421.038 230.985 420.893 231.135C420.749 231.284 420.652 231.473 420.614 231.678C420.577 231.882 420.6 232.093 420.681 232.285C420.762 232.476 420.898 232.639 421.072 232.754C421.245 232.869 421.448 232.93 421.656 232.93C421.801 232.934 421.944 232.908 422.078 232.854C422.212 232.8 422.333 232.718 422.434 232.615C422.535 232.511 422.613 232.388 422.664 232.253C422.715 232.118 422.737 231.974 422.73 231.83H422.716Z" fill="black"/>
<path d="M426.326 231.951H423.965C423.973 232.088 424.009 232.223 424.069 232.346C424.13 232.47 424.214 232.581 424.318 232.672C424.421 232.763 424.542 232.832 424.672 232.877C424.803 232.921 424.941 232.939 425.078 232.93C425.241 232.935 425.403 232.905 425.553 232.842C425.704 232.78 425.839 232.686 425.951 232.568L426.152 232.809C426.017 232.963 425.85 233.084 425.661 233.163C425.473 233.242 425.269 233.277 425.065 233.266C424.87 233.286 424.672 233.263 424.487 233.199C424.301 233.134 424.132 233.03 423.991 232.893C423.85 232.756 423.741 232.59 423.672 232.406C423.602 232.222 423.574 232.026 423.589 231.83C423.578 231.647 423.604 231.464 423.667 231.291C423.729 231.119 423.826 230.962 423.952 230.828C424.078 230.695 424.23 230.589 424.398 230.517C424.566 230.444 424.748 230.407 424.931 230.407C425.114 230.407 425.295 230.444 425.464 230.517C425.632 230.589 425.784 230.695 425.909 230.828C426.035 230.962 426.132 231.119 426.195 231.291C426.257 231.464 426.284 231.647 426.273 231.83C426.273 231.83 426.326 231.91 426.326 231.951ZM423.965 231.669H425.964C425.961 231.542 425.932 231.417 425.88 231.301C425.829 231.185 425.754 231.08 425.662 230.993C425.57 230.906 425.461 230.838 425.343 230.792C425.224 230.747 425.098 230.726 424.971 230.729C424.714 230.725 424.466 230.821 424.279 230.996C424.091 231.171 423.978 231.412 423.965 231.669Z" fill="black"/>
<path d="M428.541 230.407V230.837H428.447C428.313 230.829 428.179 230.852 428.054 230.903C427.93 230.953 427.818 231.031 427.727 231.129C427.636 231.228 427.568 231.345 427.528 231.473C427.488 231.601 427.476 231.737 427.494 231.87V233.306H427.118V230.488H427.481V231.038C427.569 230.835 427.719 230.665 427.909 230.552C428.1 230.439 428.32 230.388 428.541 230.407Z" fill="black"/>
<path d="M435.332 231.615V233.239H434.956V231.642C434.956 231.051 434.647 230.743 434.137 230.743C434.005 230.736 433.873 230.758 433.75 230.808C433.627 230.858 433.517 230.934 433.427 231.031C433.337 231.129 433.27 231.245 433.231 231.371C433.191 231.498 433.18 231.631 433.198 231.763V233.239H432.809V231.642C432.809 231.051 432.513 230.743 432.003 230.743C431.871 230.736 431.738 230.758 431.615 230.808C431.491 230.858 431.381 230.934 431.29 231.031C431.199 231.128 431.131 231.244 431.089 231.37C431.048 231.497 431.035 231.631 431.051 231.763V233.239H430.675V230.421H431.037V230.944C431.144 230.769 431.297 230.627 431.479 230.532C431.661 230.437 431.866 230.394 432.07 230.407C432.279 230.389 432.488 230.436 432.668 230.542C432.848 230.648 432.991 230.807 433.077 230.998C433.191 230.807 433.356 230.652 433.552 230.548C433.748 230.444 433.969 230.395 434.191 230.407C434.35 230.393 434.51 230.416 434.659 230.473C434.809 230.53 434.943 230.619 435.053 230.736C435.163 230.852 435.245 230.991 435.293 231.143C435.341 231.296 435.354 231.457 435.332 231.615Z" fill="black"/>
<path d="M438.834 231.951H436.472C436.481 232.088 436.516 232.223 436.577 232.346C436.638 232.47 436.722 232.581 436.826 232.672C436.929 232.763 437.05 232.832 437.18 232.877C437.311 232.921 437.449 232.939 437.586 232.93C437.747 232.936 437.908 232.907 438.056 232.844C438.204 232.782 438.337 232.687 438.445 232.568L438.66 232.809C438.525 232.963 438.357 233.084 438.169 233.163C437.981 233.242 437.777 233.277 437.573 233.266C437.377 233.286 437.18 233.263 436.995 233.199C436.809 233.134 436.64 233.03 436.499 232.893C436.358 232.756 436.249 232.59 436.18 232.406C436.11 232.222 436.082 232.026 436.097 231.83C436.086 231.647 436.112 231.464 436.175 231.291C436.237 231.119 436.334 230.962 436.46 230.828C436.586 230.695 436.737 230.589 436.906 230.517C437.074 230.444 437.255 230.407 437.439 230.407C437.622 230.407 437.803 230.444 437.971 230.517C438.14 230.589 438.291 230.695 438.417 230.828C438.543 230.962 438.64 231.119 438.703 231.291C438.765 231.464 438.792 231.647 438.781 231.83C438.781 231.83 438.834 231.91 438.834 231.951ZM436.472 231.669H438.472C438.468 231.542 438.44 231.417 438.388 231.301C438.336 231.185 438.262 231.08 438.17 230.993C438.078 230.906 437.969 230.838 437.851 230.792C437.732 230.747 437.606 230.726 437.479 230.729C437.222 230.725 436.974 230.821 436.786 230.996C436.599 231.171 436.486 231.412 436.472 231.669Z" fill="black"/>
</g>
<path d="M511.893 240.981H383.772V262.923H511.893V240.981Z" fill="#E3B134"/>
<g opacity="0.5">
<path d="M424.703 276.867V278.33H426.649V278.679H424.703V280.276H424.301V276.465H426.877V276.814L424.703 276.867Z" fill="black"/>
<path d="M427.24 278.867C427.24 278.583 427.324 278.305 427.482 278.069C427.64 277.833 427.864 277.649 428.126 277.54C428.389 277.431 428.677 277.403 428.956 277.458C429.234 277.514 429.49 277.65 429.691 277.851C429.892 278.052 430.029 278.308 430.084 278.586C430.14 278.865 430.111 279.154 430.002 279.416C429.894 279.678 429.71 279.903 429.474 280.061C429.237 280.218 428.96 280.303 428.676 280.303C428.484 280.317 428.291 280.289 428.11 280.222C427.93 280.155 427.766 280.049 427.629 279.913C427.493 279.777 427.388 279.613 427.321 279.432C427.253 279.252 427.226 279.059 427.24 278.867ZM429.723 278.867C429.723 278.589 429.612 278.323 429.416 278.126C429.22 277.93 428.953 277.82 428.676 277.82C428.398 277.82 428.132 277.93 427.936 278.126C427.739 278.323 427.629 278.589 427.629 278.867C427.629 279.144 427.739 279.41 427.936 279.607C428.132 279.803 428.398 279.913 428.676 279.913C428.953 279.913 429.22 279.803 429.416 279.607C429.612 279.41 429.723 279.144 429.723 278.867Z" fill="black"/>
<path d="M432.312 277.43V277.806H432.218C431.628 277.806 431.279 278.182 431.279 278.853V280.289H430.89V277.471H431.252V278.021C431.349 277.827 431.501 277.667 431.691 277.561C431.88 277.456 432.097 277.41 432.312 277.43Z" fill="black"/>
<path d="M435.587 277.457V279.926C435.616 280.118 435.601 280.314 435.54 280.499C435.48 280.683 435.377 280.851 435.24 280.988C435.102 281.126 434.935 281.229 434.75 281.289C434.566 281.349 434.369 281.365 434.178 281.335C433.692 281.364 433.214 281.211 432.836 280.906L433.024 280.611C433.337 280.869 433.732 281.007 434.137 281C434.849 281 435.184 280.678 435.184 279.98V279.618C435.058 279.79 434.892 279.931 434.701 280.026C434.509 280.122 434.298 280.171 434.084 280.168C433.901 280.179 433.718 280.152 433.545 280.09C433.373 280.027 433.216 279.93 433.082 279.804C432.949 279.679 432.843 279.527 432.77 279.359C432.698 279.19 432.661 279.009 432.661 278.826C432.661 278.643 432.698 278.461 432.77 278.293C432.843 278.125 432.949 277.973 433.082 277.847C433.216 277.722 433.373 277.624 433.545 277.562C433.718 277.499 433.901 277.473 434.084 277.484C434.302 277.473 434.52 277.519 434.715 277.618C434.911 277.717 435.077 277.865 435.198 278.048V277.511L435.587 277.457ZM435.224 278.799C435.23 278.586 435.171 278.375 435.057 278.195C434.942 278.015 434.776 277.874 434.581 277.788C434.385 277.703 434.168 277.678 433.958 277.716C433.748 277.754 433.554 277.854 433.402 278.003C433.249 278.153 433.144 278.344 433.1 278.553C433.057 278.762 433.076 278.979 433.157 279.177C433.237 279.374 433.375 279.544 433.552 279.663C433.729 279.782 433.937 279.846 434.151 279.846C434.293 279.853 434.434 279.831 434.567 279.781C434.7 279.73 434.821 279.653 434.922 279.553C435.023 279.453 435.102 279.333 435.154 279.201C435.206 279.069 435.23 278.928 435.224 278.786V278.799Z" fill="black"/>
<path d="M436.379 278.867C436.379 278.486 436.53 278.121 436.799 277.851C437.069 277.582 437.434 277.431 437.815 277.431C438.196 277.431 438.561 277.582 438.83 277.851C439.099 278.121 439.251 278.486 439.251 278.867C439.251 279.247 439.099 279.613 438.83 279.882C438.561 280.151 438.196 280.303 437.815 280.303C437.434 280.303 437.069 280.151 436.799 279.882C436.53 279.613 436.379 279.247 436.379 278.867ZM438.862 278.867C438.878 278.718 438.864 278.568 438.818 278.426C438.773 278.284 438.698 278.153 438.599 278.041C438.499 277.93 438.377 277.841 438.241 277.78C438.105 277.719 437.957 277.687 437.808 277.687C437.659 277.687 437.511 277.719 437.375 277.78C437.239 277.841 437.117 277.93 437.017 278.041C436.918 278.153 436.843 278.284 436.798 278.426C436.753 278.568 436.738 278.718 436.755 278.867C436.747 279.01 436.769 279.153 436.819 279.287C436.87 279.421 436.947 279.543 437.046 279.647C437.146 279.75 437.265 279.831 437.397 279.887C437.529 279.942 437.672 279.969 437.815 279.967C437.955 279.965 438.094 279.935 438.222 279.879C438.351 279.822 438.466 279.739 438.561 279.636C438.657 279.533 438.73 279.412 438.777 279.28C438.824 279.147 438.844 279.007 438.835 278.867H438.862Z" fill="black"/>
<path d="M441.519 280.101C441.352 280.237 441.143 280.308 440.928 280.303C440.817 280.315 440.705 280.303 440.599 280.266C440.493 280.23 440.397 280.17 440.317 280.092C440.237 280.013 440.176 279.918 440.138 279.813C440.1 279.708 440.085 279.595 440.096 279.484V277.807H439.6V277.485H440.096V276.867H440.485V277.485H441.344V277.807H440.485V279.484C440.475 279.551 440.48 279.62 440.5 279.685C440.52 279.749 440.554 279.809 440.601 279.858C440.648 279.907 440.705 279.945 440.769 279.969C440.833 279.992 440.901 280.001 440.968 279.994C441.119 280.002 441.267 279.954 441.384 279.86L441.519 280.101Z" fill="black"/>
<path d="M446.631 277.807C446.631 278.599 446.054 279.149 445.088 279.149H444.082V280.33H443.692V276.465H445.034C446.054 276.465 446.631 277.002 446.631 277.807ZM446.229 277.807C446.229 277.203 445.84 276.867 445.088 276.867H444.082V278.733H445.088C445.84 278.733 446.229 278.397 446.229 277.807Z" fill="black"/>
<path d="M449.571 278.531V280.276H449.208V279.833C449.103 279.992 448.956 280.12 448.783 280.203C448.611 280.285 448.419 280.32 448.229 280.302C447.598 280.302 447.195 279.967 447.195 279.484C447.195 279.001 447.477 278.679 448.296 278.679H449.181V278.504C449.181 278.021 448.913 277.766 448.39 277.766C448.048 277.76 447.716 277.874 447.45 278.088L447.276 277.806C447.605 277.55 448.013 277.417 448.43 277.431C448.581 277.409 448.735 277.423 448.881 277.47C449.026 277.517 449.158 277.597 449.268 277.703C449.378 277.809 449.463 277.939 449.515 278.082C449.567 278.226 449.586 278.379 449.571 278.531ZM449.181 279.43V278.96H448.229C447.692 278.96 447.504 279.175 447.504 279.47C447.504 279.766 447.772 279.994 448.229 279.994C448.419 280.01 448.61 279.963 448.772 279.862C448.934 279.76 449.059 279.609 449.128 279.43H449.181Z" fill="black"/>
<path d="M450.161 279.953L450.336 279.645C450.621 279.86 450.971 279.974 451.329 279.967C451.865 279.967 452.094 279.779 452.094 279.51C452.094 278.772 450.255 279.349 450.255 278.236C450.255 277.779 450.658 277.43 451.382 277.43C451.732 277.421 452.078 277.514 452.375 277.699L452.201 277.994C451.962 277.826 451.674 277.742 451.382 277.752C450.872 277.752 450.644 277.954 450.644 278.222C450.644 278.987 452.469 278.41 452.469 279.497C452.469 279.98 452.04 280.302 451.302 280.302C450.894 280.314 450.493 280.191 450.161 279.953Z" fill="black"/>
<path d="M452.778 279.953L452.953 279.645C453.243 279.86 453.597 279.974 453.959 279.967C454.496 279.967 454.711 279.779 454.711 279.511C454.711 278.773 452.886 279.35 452.886 278.236C452.886 277.779 453.288 277.431 454 277.431C454.35 277.42 454.695 277.513 454.993 277.699L454.832 277.994C454.589 277.824 454.296 277.739 454 277.753C453.49 277.753 453.261 277.954 453.261 278.222C453.261 278.987 455.1 278.41 455.1 279.497C455.1 279.98 454.671 280.302 453.932 280.302C453.52 280.314 453.115 280.192 452.778 279.953Z" fill="black"/>
<path d="M459.891 277.458L458.817 280.276H458.455L457.569 277.968L456.683 280.276H456.281L455.221 277.458H455.583L456.469 279.847L457.381 277.458H457.703L458.603 279.847L459.502 277.458H459.891Z" fill="black"/>
<path d="M460.105 278.867C460.105 278.583 460.189 278.305 460.347 278.069C460.505 277.833 460.729 277.649 460.992 277.54C461.254 277.431 461.543 277.403 461.821 277.458C462.1 277.514 462.356 277.65 462.556 277.851C462.757 278.052 462.894 278.308 462.949 278.586C463.005 278.865 462.976 279.154 462.868 279.416C462.759 279.678 462.575 279.903 462.339 280.061C462.103 280.218 461.825 280.303 461.541 280.303C461.349 280.317 461.156 280.289 460.975 280.222C460.795 280.155 460.631 280.049 460.495 279.913C460.358 279.777 460.253 279.613 460.186 279.432C460.119 279.252 460.091 279.059 460.105 278.867ZM462.588 278.867C462.605 278.718 462.59 278.568 462.545 278.426C462.499 278.284 462.424 278.153 462.325 278.041C462.226 277.93 462.104 277.841 461.967 277.78C461.831 277.719 461.684 277.687 461.534 277.687C461.385 277.687 461.237 277.719 461.101 277.78C460.965 277.841 460.843 277.93 460.744 278.041C460.644 278.153 460.569 278.284 460.524 278.426C460.479 278.568 460.464 278.718 460.481 278.867C460.474 279.01 460.496 279.153 460.546 279.287C460.596 279.421 460.673 279.543 460.772 279.647C460.872 279.75 460.991 279.831 461.123 279.887C461.256 279.942 461.398 279.969 461.541 279.967C461.684 279.969 461.825 279.942 461.957 279.887C462.088 279.831 462.207 279.749 462.305 279.646C462.404 279.543 462.48 279.42 462.528 279.286C462.577 279.152 462.597 279.009 462.588 278.867Z" fill="black"/>
<path d="M465.165 277.431V277.807H465.084C464.949 277.799 464.814 277.822 464.688 277.873C464.563 277.925 464.45 278.003 464.359 278.104C464.268 278.204 464.2 278.323 464.161 278.453C464.121 278.583 464.111 278.719 464.132 278.853V280.289H463.756V277.471H464.118V278.021C464.212 277.829 464.363 277.669 464.55 277.564C464.737 277.458 464.951 277.412 465.165 277.431Z" fill="black"/>
<path d="M468.359 276.29V280.316H467.996V279.752C467.882 279.94 467.72 280.093 467.526 280.197C467.333 280.301 467.115 280.351 466.896 280.343C466.515 280.343 466.15 280.192 465.881 279.922C465.611 279.653 465.46 279.288 465.46 278.907C465.46 278.526 465.611 278.161 465.881 277.892C466.15 277.622 466.515 277.471 466.896 277.471C467.107 277.462 467.317 277.508 467.505 277.604C467.694 277.701 467.853 277.844 467.969 278.021V276.33L468.359 276.29ZM467.983 278.867C468 278.718 467.985 278.568 467.94 278.426C467.894 278.284 467.82 278.153 467.72 278.041C467.621 277.93 467.499 277.841 467.363 277.78C467.226 277.719 467.079 277.687 466.929 277.687C466.78 277.687 466.633 277.719 466.496 277.78C466.36 277.841 466.238 277.93 466.139 278.041C466.039 278.153 465.965 278.284 465.919 278.426C465.874 278.568 465.859 278.718 465.876 278.867C465.859 279.015 465.874 279.165 465.919 279.307C465.965 279.45 466.039 279.581 466.139 279.692C466.238 279.803 466.36 279.892 466.496 279.953C466.633 280.014 466.78 280.046 466.929 280.046C467.079 280.046 467.226 280.014 467.363 279.953C467.499 279.892 467.621 279.803 467.72 279.692C467.82 279.581 467.894 279.45 467.94 279.307C467.985 279.165 468 279.015 467.983 278.867Z" fill="black"/>
<path d="M471.177 277.47C471.177 277.095 470.869 276.826 470.318 276.826C470.127 276.814 469.935 276.846 469.758 276.92C469.581 276.995 469.423 277.11 469.298 277.256L469.017 277.041C469.182 276.852 469.39 276.703 469.623 276.608C469.856 276.512 470.108 276.472 470.359 276.491C471.11 276.491 471.593 276.84 471.593 277.417C471.593 278.329 470.614 278.383 470.614 279.148H470.211C470.198 278.262 471.177 278.182 471.177 277.47ZM470.117 280.02C470.117 279.984 470.124 279.948 470.139 279.914C470.153 279.881 470.174 279.851 470.2 279.826C470.227 279.8 470.258 279.781 470.292 279.768C470.326 279.756 470.363 279.75 470.399 279.752C470.435 279.75 470.472 279.756 470.506 279.768C470.54 279.781 470.571 279.8 470.597 279.826C470.624 279.851 470.645 279.881 470.659 279.914C470.673 279.948 470.681 279.984 470.681 280.02C470.681 280.095 470.651 280.167 470.598 280.22C470.545 280.272 470.474 280.302 470.399 280.302C470.325 280.299 470.255 280.268 470.203 280.216C470.151 280.164 470.12 280.094 470.117 280.02Z" fill="black"/>
</g>
<path d="M391.261 227.347H384.752V233.855H391.261V227.347Z" fill="white"/>
<path d="M433.695 247.853H434.768V254.428H438.794V255.354H433.654L433.695 247.853Z" fill="white"/>
<path d="M439.318 252.51C439.307 251.921 439.472 251.342 439.791 250.848C440.111 250.353 440.57 249.964 441.111 249.732C441.652 249.499 442.25 249.433 442.828 249.541C443.407 249.649 443.941 249.927 444.361 250.34C444.781 250.752 445.069 251.281 445.188 251.857C445.307 252.434 445.251 253.033 445.028 253.578C444.806 254.123 444.425 254.59 443.937 254.918C443.448 255.246 442.872 255.422 442.283 255.422C441.894 255.441 441.504 255.378 441.139 255.239C440.775 255.1 440.443 254.887 440.164 254.614C439.886 254.34 439.667 254.012 439.521 253.65C439.375 253.288 439.306 252.9 439.318 252.51ZM444.189 252.51C444.171 252.134 444.042 251.772 443.82 251.469C443.598 251.166 443.291 250.935 442.939 250.804C442.586 250.673 442.203 250.649 441.836 250.735C441.47 250.82 441.137 251.011 440.879 251.284C440.62 251.557 440.448 251.9 440.382 252.271C440.317 252.641 440.362 253.022 440.512 253.367C440.661 253.712 440.909 254.006 441.224 254.211C441.539 254.417 441.907 254.525 442.283 254.523C442.546 254.531 442.807 254.484 443.05 254.385C443.293 254.285 443.512 254.135 443.693 253.945C443.874 253.755 444.013 253.529 444.101 253.282C444.189 253.035 444.223 252.771 444.203 252.51H444.189Z" fill="white"/>
<path d="M452.107 249.624V254.549C452.164 254.948 452.127 255.356 451.999 255.738C451.87 256.12 451.653 256.467 451.366 256.75C451.079 257.034 450.729 257.246 450.345 257.369C449.961 257.493 449.553 257.524 449.154 257.461C448.189 257.495 447.242 257.197 446.47 256.616L446.967 255.824C447.592 256.309 448.363 256.569 449.154 256.562C450.496 256.562 451.114 255.945 451.114 254.656V254.2C450.855 254.487 450.538 254.714 450.184 254.867C449.829 255.02 449.446 255.094 449.061 255.086C448.682 255.112 448.302 255.06 447.945 254.934C447.587 254.807 447.26 254.608 446.983 254.35C446.705 254.091 446.484 253.778 446.333 253.43C446.182 253.082 446.104 252.707 446.104 252.328C446.104 251.949 446.182 251.574 446.333 251.226C446.484 250.878 446.705 250.565 446.983 250.306C447.26 250.048 447.587 249.849 447.945 249.722C448.302 249.595 448.682 249.544 449.061 249.57C449.459 249.56 449.856 249.639 450.22 249.802C450.585 249.964 450.908 250.206 451.167 250.51V249.624H452.107ZM451.1 252.308C451.122 251.916 451.025 251.528 450.824 251.192C450.622 250.856 450.324 250.588 449.968 250.423C449.613 250.258 449.216 250.204 448.829 250.267C448.442 250.33 448.083 250.507 447.798 250.777C447.513 251.046 447.316 251.394 447.231 251.777C447.146 252.16 447.178 252.559 447.323 252.923C447.468 253.288 447.718 253.6 448.042 253.821C448.366 254.041 448.749 254.159 449.141 254.16C449.394 254.181 449.649 254.148 449.889 254.064C450.129 253.979 450.349 253.846 450.534 253.671C450.719 253.496 450.865 253.284 450.962 253.05C451.06 252.815 451.107 252.562 451.1 252.308Z" fill="white"/>
<path d="M453.892 247.906C453.887 247.767 453.923 247.63 453.996 247.512C454.07 247.393 454.177 247.3 454.304 247.243C454.431 247.186 454.572 247.168 454.709 247.192C454.846 247.216 454.973 247.28 455.073 247.376C455.173 247.473 455.243 247.597 455.272 247.733C455.301 247.869 455.289 248.011 455.237 248.14C455.185 248.269 455.096 248.38 454.98 248.458C454.865 248.536 454.729 248.577 454.59 248.577C454.5 248.581 454.409 248.566 454.325 248.534C454.24 248.502 454.163 248.453 454.098 248.391C454.033 248.328 453.981 248.253 453.946 248.169C453.91 248.086 453.892 247.997 453.892 247.906ZM454.067 249.664H455.1V255.354H454.067V249.664Z" fill="white"/>
<path d="M462.467 252.08V255.355H461.434V252.201C461.434 251.087 460.87 250.537 459.904 250.537C459.654 250.517 459.403 250.553 459.168 250.643C458.934 250.732 458.723 250.872 458.549 251.053C458.376 251.234 458.245 251.452 458.166 251.69C458.087 251.928 458.062 252.18 458.092 252.429V255.355H457.072V249.625H458.052V250.483C458.297 250.179 458.611 249.937 458.968 249.779C459.325 249.62 459.715 249.549 460.105 249.571C460.435 249.546 460.766 249.595 461.074 249.714C461.382 249.834 461.659 250.02 461.886 250.261C462.112 250.502 462.282 250.79 462.383 251.105C462.483 251.42 462.512 251.753 462.467 252.08Z" fill="white"/>
<path d="M387.422 232.393L385.986 230.836L386.469 230.38L387.422 231.414L389.569 229.199L390.053 229.655L387.422 232.393Z" fill="#263238"/>
<g opacity="0.4">
<path d="M499.734 213.042C498.548 212.989 497.392 212.646 496.37 212.042C495.347 211.439 494.489 210.593 493.87 209.579L493.735 209.392L493.87 209.204C494.45 208.155 495.3 207.281 496.333 206.672C497.365 206.063 498.542 205.742 499.741 205.742C500.939 205.742 502.116 206.063 503.149 206.672C504.181 207.281 505.032 208.155 505.612 209.204L505.746 209.392L505.612 209.579C504.991 210.594 504.13 211.44 503.105 212.044C502.08 212.648 500.923 212.99 499.734 213.042ZM494.554 209.365C495.082 210.273 495.838 211.026 496.749 211.55C497.659 212.074 498.691 212.35 499.741 212.35C500.791 212.35 501.823 212.074 502.733 211.55C503.643 211.026 504.4 210.273 504.928 209.365C504.4 208.457 503.643 207.703 502.733 207.179C501.823 206.655 500.791 206.38 499.741 206.38C498.691 206.38 497.659 206.655 496.749 207.179C495.838 207.703 495.082 208.457 494.554 209.365Z" fill="#263238"/>
<path d="M499.734 211.875C499.24 211.875 498.757 211.728 498.346 211.453C497.935 211.179 497.616 210.788 497.427 210.331C497.238 209.874 497.19 209.372 497.287 208.887C497.385 208.402 497.624 207.958 497.974 207.609C498.325 207.261 498.771 207.024 499.256 206.929C499.741 206.834 500.243 206.886 500.699 207.077C501.155 207.268 501.544 207.59 501.816 208.002C502.089 208.414 502.233 208.898 502.23 209.392C502.23 209.72 502.166 210.043 502.04 210.346C501.915 210.648 501.731 210.922 501.499 211.153C501.267 211.383 500.991 211.566 500.689 211.69C500.386 211.814 500.062 211.877 499.734 211.875ZM499.734 207.567C499.373 207.567 499.021 207.674 498.72 207.875C498.42 208.075 498.186 208.36 498.048 208.694C497.91 209.027 497.874 209.394 497.944 209.748C498.015 210.102 498.189 210.428 498.444 210.683C498.699 210.938 499.024 211.112 499.378 211.182C499.732 211.253 500.099 211.217 500.433 211.079C500.766 210.94 501.051 210.706 501.252 210.406C501.452 210.106 501.559 209.753 501.559 209.392C501.559 208.908 501.367 208.444 501.025 208.102C500.683 207.76 500.218 207.567 499.734 207.567Z" fill="#263238"/>
<path d="M503.462 205.199L495.548 213.113L496.022 213.588L503.936 205.674L503.462 205.199Z" fill="#263238"/>
</g>
<g opacity="0.5">
<path d="M432.191 156.919L432.473 156.382C433.071 156.915 433.847 157.202 434.647 157.187C435.869 157.187 436.405 156.664 436.405 156.02C436.405 154.222 432.379 155.322 432.379 152.893C432.379 151.927 433.131 151.081 434.808 151.081C435.532 151.072 436.242 151.277 436.848 151.672L436.62 152.222C436.08 151.87 435.453 151.675 434.808 151.658C433.601 151.658 433.064 152.182 433.064 152.839C433.064 154.651 437.09 153.564 437.09 155.953C437.09 156.919 436.325 157.751 434.647 157.751C433.754 157.789 432.878 157.492 432.191 156.919Z" fill="black"/>
<path d="M438.311 151.216C438.312 151.152 438.327 151.09 438.352 151.032C438.378 150.974 438.415 150.922 438.462 150.878C438.508 150.834 438.562 150.8 438.621 150.778C438.68 150.755 438.744 150.744 438.807 150.746C438.876 150.734 438.947 150.738 439.015 150.756C439.083 150.775 439.146 150.808 439.199 150.853C439.253 150.899 439.296 150.955 439.326 151.019C439.355 151.083 439.37 151.152 439.37 151.222C439.37 151.293 439.355 151.362 439.326 151.426C439.296 151.489 439.253 151.546 439.199 151.591C439.146 151.637 439.083 151.67 439.015 151.688C438.947 151.707 438.876 151.71 438.807 151.699C438.743 151.701 438.678 151.689 438.618 151.666C438.558 151.642 438.503 151.607 438.457 151.562C438.411 151.517 438.374 151.463 438.349 151.404C438.323 151.344 438.311 151.28 438.311 151.216ZM438.458 152.772H439.129V157.724H438.458V152.772Z" fill="black"/>
<path d="M445.544 152.773V157.121C445.594 157.457 445.565 157.799 445.458 158.122C445.352 158.444 445.171 158.737 444.931 158.977C444.691 159.217 444.398 159.397 444.076 159.504C443.754 159.61 443.411 159.64 443.075 159.59C442.24 159.626 441.42 159.36 440.767 158.839L441.102 158.329C441.65 158.777 442.34 159.015 443.048 159C444.296 159 444.873 158.423 444.873 157.201V156.571C444.66 156.882 444.37 157.135 444.032 157.304C443.694 157.473 443.319 157.553 442.941 157.537C442.611 157.562 442.28 157.518 441.968 157.409C441.656 157.3 441.37 157.127 441.128 156.902C440.885 156.677 440.692 156.405 440.56 156.102C440.428 155.799 440.359 155.472 440.359 155.141C440.359 154.811 440.428 154.484 440.56 154.181C440.692 153.878 440.885 153.605 441.128 153.381C441.37 153.156 441.656 152.983 441.968 152.874C442.28 152.765 442.611 152.721 442.941 152.746C443.324 152.728 443.705 152.809 444.048 152.98C444.392 153.152 444.685 153.408 444.9 153.726V152.773H445.544ZM444.887 155.135C444.9 154.761 444.802 154.391 444.603 154.073C444.405 153.756 444.117 153.504 443.775 153.352C443.433 153.199 443.053 153.152 442.684 153.217C442.316 153.282 441.975 153.455 441.705 153.715C441.436 153.975 441.25 154.31 441.172 154.676C441.094 155.042 441.127 155.423 441.267 155.77C441.407 156.117 441.647 156.415 441.958 156.625C442.268 156.834 442.634 156.946 443.008 156.946C443.255 156.965 443.503 156.932 443.737 156.849C443.97 156.766 444.184 156.635 444.363 156.464C444.543 156.293 444.685 156.087 444.78 155.858C444.874 155.629 444.92 155.382 444.914 155.135H444.887Z" fill="black"/>
<path d="M451.986 154.853V157.725H451.315V154.92C451.355 154.712 451.345 154.497 451.286 154.293C451.226 154.089 451.12 153.902 450.974 153.748C450.829 153.593 450.649 153.476 450.449 153.404C450.25 153.332 450.036 153.309 449.825 153.336C449.589 153.321 449.352 153.358 449.131 153.444C448.91 153.531 448.711 153.664 448.547 153.835C448.384 154.007 448.259 154.212 448.183 154.436C448.108 154.661 448.082 154.899 448.108 155.135V157.725H447.437V152.773H448.067V153.685C448.273 153.377 448.556 153.128 448.888 152.963C449.22 152.798 449.589 152.723 449.959 152.746C450.238 152.724 450.518 152.765 450.779 152.864C451.041 152.963 451.277 153.119 451.47 153.321C451.664 153.522 451.811 153.764 451.9 154.029C451.989 154.294 452.018 154.575 451.986 154.853Z" fill="black"/>
<path d="M456.106 151.216C456.125 151.1 456.185 150.995 456.274 150.919C456.364 150.842 456.478 150.801 456.595 150.801C456.713 150.801 456.827 150.842 456.917 150.919C457.006 150.995 457.066 151.1 457.085 151.216C457.087 151.282 457.076 151.347 457.051 151.408C457.027 151.469 456.99 151.525 456.944 151.571C456.898 151.618 456.842 151.654 456.781 151.678C456.72 151.703 456.655 151.714 456.589 151.712C456.524 151.713 456.46 151.7 456.401 151.674C456.341 151.649 456.287 151.613 456.242 151.566C456.197 151.52 456.162 151.465 456.139 151.405C456.115 151.345 456.104 151.281 456.106 151.216ZM456.253 152.773H456.924V157.725H456.28L456.253 152.773Z" fill="black"/>
<path d="M463.326 154.852V157.724H462.668V154.919C462.708 154.711 462.698 154.496 462.639 154.292C462.58 154.089 462.473 153.902 462.328 153.747C462.182 153.593 462.002 153.475 461.803 153.403C461.603 153.332 461.389 153.309 461.179 153.336C460.942 153.321 460.704 153.358 460.483 153.444C460.262 153.53 460.062 153.663 459.897 153.834C459.732 154.005 459.607 154.21 459.529 154.435C459.451 154.659 459.424 154.898 459.447 155.134V157.724H458.776V152.772H459.421V153.685C459.623 153.376 459.904 153.127 460.234 152.962C460.564 152.797 460.931 152.722 461.299 152.745C461.579 152.721 461.86 152.76 462.122 152.858C462.385 152.957 462.622 153.113 462.816 153.315C463.01 153.517 463.157 153.76 463.245 154.026C463.333 154.292 463.361 154.574 463.326 154.852Z" fill="black"/>
</g>
<path d="M243.278 125.167H204.722C201.573 125.167 198.552 126.418 196.324 128.646C194.097 130.873 192.846 133.894 192.846 137.044V170.594C192.846 173.744 194.097 176.765 196.324 178.992C198.552 181.219 201.573 182.471 204.722 182.471H215.968L206.574 201.111L224.02 182.471H243.332C244.891 182.471 246.435 182.163 247.875 181.566C249.315 180.969 250.623 180.094 251.725 178.991C252.827 177.888 253.7 176.579 254.296 175.138C254.891 173.697 255.197 172.153 255.195 170.594V137.044C255.197 135.48 254.89 133.932 254.291 132.487C253.692 131.043 252.814 129.731 251.706 128.627C250.599 127.524 249.284 126.65 247.838 126.056C246.391 125.462 244.842 125.16 243.278 125.167Z" fill="#E3B134"/>
<path opacity="0.7" d="M243.278 125.167H204.722C201.573 125.167 198.552 126.418 196.324 128.646C194.097 130.873 192.846 133.894 192.846 137.044V170.594C192.846 173.744 194.097 176.765 196.324 178.992C198.552 181.219 201.573 182.471 204.722 182.471H215.968L206.574 201.111L224.02 182.471H243.332C244.891 182.471 246.435 182.163 247.875 181.566C249.315 180.969 250.623 180.094 251.725 178.991C252.827 177.888 253.7 176.579 254.296 175.138C254.891 173.697 255.197 172.153 255.195 170.594V137.044C255.197 135.48 254.89 133.932 254.291 132.487C253.692 131.043 252.814 129.731 251.706 128.627C250.599 127.524 249.284 126.65 247.838 126.056C246.391 125.462 244.842 125.16 243.278 125.167Z" fill="white"/>
<path d="M221.994 162.219C221.739 162.22 221.487 162.165 221.255 162.059C221.024 161.952 220.818 161.796 220.652 161.602L213.137 152.758C212.987 152.582 212.874 152.378 212.803 152.158C212.732 151.938 212.705 151.706 212.724 151.475C212.742 151.245 212.806 151.02 212.912 150.814C213.017 150.609 213.162 150.425 213.338 150.276C213.694 149.973 214.156 149.824 214.621 149.862C214.852 149.881 215.077 149.945 215.282 150.05C215.488 150.156 215.671 150.301 215.821 150.477L221.994 157.751L232.167 145.74C232.316 145.563 232.499 145.418 232.705 145.313C232.911 145.208 233.136 145.144 233.366 145.125C233.597 145.106 233.829 145.133 234.049 145.204C234.269 145.275 234.473 145.389 234.649 145.538C234.826 145.688 234.971 145.871 235.076 146.077C235.182 146.283 235.245 146.508 235.264 146.738C235.283 146.969 235.256 147.201 235.185 147.421C235.114 147.641 235 147.845 234.851 148.021L223.323 161.602C223.16 161.796 222.957 161.952 222.727 162.058C222.498 162.165 222.247 162.22 221.994 162.219Z" fill="white"/>
<path d="M237.522 167.205C244.996 159.731 244.996 147.614 237.522 140.141C230.049 132.668 217.932 132.668 210.459 140.141C202.985 147.614 202.985 159.731 210.459 167.205C217.932 174.678 230.049 174.678 237.522 167.205Z" fill="#E3B134"/>
<path d="M275.11 485.977H353.214C353.624 485.977 354.016 485.815 354.306 485.525C354.595 485.236 354.758 484.843 354.758 484.434V479.455C354.754 479.048 354.59 478.659 354.301 478.373C354.012 478.086 353.621 477.925 353.214 477.925H279.136V318.469H351.953C352.694 318.469 353.406 318.175 353.931 317.652C354.457 317.129 354.754 316.419 354.758 315.678V310.417H275.11C274.042 310.417 273.018 310.841 272.263 311.596C271.508 312.351 271.084 313.375 271.084 314.443V481.951C271.084 483.019 271.508 484.043 272.263 484.798C273.018 485.553 274.042 485.977 275.11 485.977Z" fill="#263238"/>
<g opacity="0.3">
<path d="M271.084 314.443V481.938C271.084 483.006 271.508 484.03 272.263 484.785C273.018 485.54 274.042 485.964 275.11 485.964H353.214C353.62 485.964 354.009 485.803 354.296 485.516C354.583 485.229 354.744 484.84 354.744 484.434V479.455C354.744 479.048 354.584 478.658 354.297 478.369C354.01 478.08 353.621 477.916 353.214 477.912H279.136V318.469H351.953C352.694 318.465 353.404 318.168 353.927 317.643C354.451 317.117 354.744 316.406 354.744 315.664V310.417H275.11C274.042 310.417 273.018 310.841 272.263 311.596C271.508 312.351 271.084 313.375 271.084 314.443Z" fill="white"/>
</g>
<path opacity="0.2" d="M271.084 314.443V357.159C273.768 357.839 276.452 358.496 279.136 359.132V318.469H351.953C352.694 318.465 353.404 318.168 353.927 317.643C354.451 317.117 354.744 316.406 354.744 315.664V310.417H275.11C274.042 310.417 273.018 310.841 272.263 311.596C271.508 312.351 271.084 313.375 271.084 314.443Z" fill="black"/>
<path d="M129.838 463.499L161.858 460.708V418.717H173.118V460.762L205.326 463.499C206.693 463.633 207.961 464.27 208.884 465.287C209.806 466.304 210.318 467.628 210.318 469.002V473.269H124.806V469.002C124.807 467.622 125.324 466.292 126.255 465.274C127.186 464.256 128.464 463.623 129.838 463.499Z" fill="#263238"/>
<path opacity="0.1" d="M129.838 463.499L161.858 460.708V418.717H173.118V460.762L205.326 463.499C206.693 463.633 207.961 464.27 208.884 465.287C209.806 466.304 210.318 467.628 210.318 469.002V473.269H124.806V469.002C124.807 467.622 125.324 466.292 126.255 465.274C127.186 464.256 128.464 463.623 129.838 463.499Z" fill="white"/>
<path d="M199.877 478.57C199.877 480.027 200.309 481.451 201.119 482.663C201.928 483.875 203.079 484.819 204.425 485.377C205.771 485.934 207.253 486.08 208.682 485.796C210.111 485.511 211.424 484.81 212.454 483.779C213.485 482.749 214.186 481.436 214.471 480.007C214.755 478.578 214.609 477.097 214.051 475.75C213.494 474.404 212.549 473.253 211.338 472.444C210.126 471.634 208.702 471.202 207.245 471.202C206.277 471.2 205.318 471.39 204.423 471.759C203.528 472.129 202.715 472.672 202.031 473.356C201.346 474.041 200.804 474.854 200.434 475.748C200.065 476.643 199.875 477.602 199.877 478.57Z" fill="#263238"/>
<path d="M135.206 478.57C135.206 480.028 134.773 481.452 133.963 482.664C133.153 483.876 132.002 484.821 130.655 485.378C129.308 485.935 127.826 486.08 126.396 485.795C124.966 485.509 123.654 484.806 122.624 483.775C121.594 482.743 120.893 481.429 120.611 479.999C120.328 478.569 120.476 477.087 121.035 475.741C121.595 474.395 122.541 473.245 123.755 472.437C124.968 471.629 126.394 471.2 127.852 471.202C128.819 471.202 129.776 471.393 130.669 471.763C131.562 472.134 132.374 472.677 133.057 473.361C133.74 474.045 134.281 474.858 134.65 475.751C135.019 476.645 135.208 477.603 135.206 478.57Z" fill="#263238"/>
<path d="M170.071 427.238H164.904C163.584 427.238 162.317 426.714 161.384 425.78C160.45 424.846 159.925 423.58 159.925 422.259V386.025H175.05V422.259C175.05 423.58 174.525 424.846 173.592 425.78C172.658 426.714 171.391 427.238 170.071 427.238Z" fill="#263238"/>
<path opacity="0.2" d="M170.071 427.238H164.904C163.584 427.238 162.317 426.714 161.384 425.78C160.45 424.846 159.925 423.58 159.925 422.259V386.025H175.05V422.259C175.05 423.58 174.525 424.846 173.592 425.78C172.658 426.714 171.391 427.238 170.071 427.238Z" fill="white"/>
<path d="M134.28 302.849C134.28 302.849 137.742 372.405 152.719 384.375H136.696C136.696 384.375 122.417 360.675 121.356 302.849H134.28Z" fill="#263238"/>
<path opacity="0.1" d="M134.28 302.849C134.28 302.849 137.742 372.405 152.719 384.375H136.696C136.696 384.375 122.417 360.675 121.356 302.849H134.28Z" fill="white"/>
<path d="M132.978 378.605H203.984C205.582 378.605 207.114 379.239 208.244 380.369C209.374 381.499 210.009 383.032 210.009 384.63V390.132H126.939V384.63C126.939 383.838 127.096 383.053 127.399 382.321C127.703 381.589 128.148 380.924 128.709 380.365C129.27 379.805 129.936 379.361 130.668 379.059C131.401 378.757 132.186 378.603 132.978 378.605Z" fill="#E3B134"/>
<path d="M210.76 384.375H126.214C124.873 384.375 123.785 385.463 123.785 386.804V387.703C123.785 389.045 124.873 390.132 126.214 390.132H210.76C212.102 390.132 213.189 389.045 213.189 387.703V386.804C213.189 385.463 212.102 384.375 210.76 384.375Z" fill="#263238"/>
<path opacity="0.6" d="M210.76 384.375H126.214C124.873 384.375 123.785 385.463 123.785 386.804V387.703C123.785 389.045 124.873 390.132 126.214 390.132H210.76C212.102 390.132 213.189 389.045 213.189 387.703V386.804C213.189 385.463 212.102 384.375 210.76 384.375Z" fill="white"/>
<path d="M118.538 318.067H144.211C151.726 318.067 157.148 311.357 156.289 302.969L155.202 291.857C154.37 283.523 147.62 276.76 140.104 276.76H114.472C106.957 276.76 101.535 283.47 102.394 291.857L103.481 302.969C104.26 311.357 111.023 318.067 118.538 318.067Z" fill="#E3B134"/>
<path d="M203.258 258.066C204.855 263.126 206.734 268.4 208.801 273.231C210.545 277.257 213.028 282.383 215.86 285.081C218.436 287.376 224.569 288.248 228.555 288.771C233.923 289.456 239.64 289.711 245.209 289.939L246.202 297.454C240.298 299.039 234.244 299.997 228.139 300.313C221.322 300.554 213.377 300.313 207.472 296.126C198.897 289.416 195.166 280.478 191.368 271.044C190.295 268.051 189.328 265.313 188.51 262.173L203.272 258.066H203.258Z" fill="#B65B52"/>
<path d="M196.669 250.967C200.896 252.416 204.721 258.495 215.363 282.88C215.363 282.88 217.094 285.859 225.723 287.724L224.932 301.413C224.932 301.413 212.612 300.876 209.754 298.903C206.895 296.93 189.758 268.735 189.758 268.735L196.669 250.967Z" fill="#263238"/>
<path opacity="0.2" d="M225.724 287.751L224.932 301.439C224.932 301.439 215.055 301.01 210.935 299.494C210.52 299.355 210.123 299.165 209.754 298.93C208.103 297.776 201.702 287.858 196.535 279.699C192.791 273.767 189.825 268.762 189.825 268.762L196.669 250.967C200.897 252.416 204.721 258.495 215.377 282.866C215.377 282.893 217.095 285.859 225.724 287.751Z" fill="white"/>
<path opacity="0.2" d="M210.935 299.494C210.52 299.355 210.123 299.165 209.754 298.93C208.103 297.776 201.702 287.859 196.535 279.699C197.88 275.073 199.47 270.522 201.299 266.064C201.299 266.064 211.123 285.752 210.935 299.494Z" fill="black"/>
<path d="M242.284 290.622L251.906 287.16L250.725 300.043C250.725 300.043 241.895 301.171 240.808 296.527L242.284 290.622Z" fill="#B55B52"/>
<path d="M259.878 289.764L258.402 300.379L250.726 300.043L251.907 287.16L259.878 289.764Z" fill="#B55B52"/>
<path d="M225.79 287.16L230.702 288.636L228.904 301.949L223.992 302.794L225.79 287.16Z" fill="#263238"/>
<path d="M203.634 335.633C203.634 335.633 268.574 361.252 283.671 371.961C298.769 382.67 336.841 454.87 336.841 454.87L321.1 466.948C321.1 466.948 275.686 401.002 270.104 396.533C264.521 392.064 192.268 369.881 192.268 369.881L203.634 335.633Z" fill="#5B1DAE"/>
<path opacity="0.4" d="M336.841 454.87L321.1 466.948C321.1 466.948 310.498 451.555 298.916 435.142C286.53 417.576 273.016 398.908 270.144 396.533C266.118 393.259 226.328 380.51 205.245 373.907C197.488 371.464 192.268 369.881 192.268 369.881L203.621 335.593C203.621 335.593 268.547 361.212 283.658 371.921C298.769 382.63 336.841 454.87 336.841 454.87Z" fill="white"/>
<path d="M339.726 480.703L347.309 473.081L334.909 453.903L327.34 461.526L339.726 480.703Z" fill="#B55B52"/>
<path opacity="0.2" d="M327.34 461.526L334.909 453.917L341.994 464.881L334.157 472.101L327.34 461.526Z" fill="black"/>
<path d="M348.624 472.249C348.624 472.249 348.624 472.249 348.718 472.249C349.611 471.921 350.466 471.498 351.268 470.988C351.893 470.653 352.371 470.098 352.61 469.431C352.659 469.181 352.636 468.922 352.543 468.684C352.451 468.446 352.292 468.24 352.086 468.089C351.976 467.974 351.838 467.889 351.685 467.842C351.532 467.795 351.37 467.787 351.214 467.821C350.476 467.995 349.751 469.042 349.201 470.048C349.317 469.109 349.099 468.159 348.584 467.364C348.433 467.213 348.236 467.116 348.024 467.092C347.811 467.068 347.597 467.116 347.416 467.23C347.248 467.309 347.1 467.427 346.986 467.574C346.872 467.721 346.794 467.893 346.759 468.076C346.45 469.525 348.396 471.86 348.49 471.994L348.624 471.86L348.503 472.008C348.503 472.008 348.409 472.155 348.409 472.169C348.429 472.206 348.462 472.234 348.502 472.249C348.541 472.264 348.585 472.264 348.624 472.249ZM348.691 471.256C348.691 471.337 348.624 471.417 348.597 471.484C348.007 470.652 347.134 469.189 347.322 468.331C347.338 468.23 347.375 468.133 347.43 468.048C347.486 467.962 347.559 467.889 347.644 467.834H347.738C348.06 467.673 348.235 467.767 348.342 467.834C348.856 468.899 348.979 470.11 348.691 471.256ZM349.147 471.578C349.738 470.236 350.718 468.492 351.456 468.331C351.533 468.311 351.614 468.313 351.689 468.337C351.765 468.361 351.833 468.405 351.885 468.465C352.01 468.561 352.108 468.689 352.17 468.835C352.231 468.98 352.253 469.14 352.234 469.297C352.086 469.995 350.946 470.827 349.147 471.578Z" fill="#5B1DAE"/>
<path d="M347.161 471.565L337.15 478.275C337.064 478.326 336.988 478.394 336.928 478.474C336.868 478.555 336.825 478.647 336.802 478.744C336.778 478.842 336.774 478.943 336.79 479.042C336.806 479.142 336.842 479.236 336.895 479.322L341.726 487.575C342.003 487.992 342.433 488.283 342.924 488.384C343.414 488.485 343.925 488.387 344.343 488.112C347.792 485.709 349.322 484.394 353.737 481.402C357.757 478.929 361.6 476.181 365.238 473.175C368.54 470.102 365.413 466.921 363.749 467.928C359.723 470.303 352.905 471.323 349.067 471.041C348.39 470.988 347.716 471.174 347.161 471.565Z" fill="#263238"/>
<path d="M321.838 472.276L341.499 459.192L336.963 449.945L315.665 464.721L321.838 472.276Z" fill="#5B1DAE"/>
<path opacity="0.2" d="M321.838 472.276L341.499 459.192L336.963 449.945L315.665 464.721L321.838 472.276Z" fill="white"/>
<path opacity="0.2" d="M298.943 435.197C286.556 417.63 273.042 398.963 270.17 396.587C266.144 393.313 226.354 380.564 205.271 373.961L202.815 348.463L210.518 347.121L211.391 349.08C211.391 349.08 259.515 359.991 273.123 366.808C281.886 371.116 293.655 414.167 298.943 435.197Z" fill="black"/>
<path d="M296.058 474.799C296.072 474.805 296.088 474.808 296.105 474.808C296.121 474.808 296.137 474.805 296.152 474.799C297.105 474.788 298.054 474.675 298.983 474.463C299.694 474.363 300.34 473.999 300.795 473.443C300.928 473.23 300.999 472.984 300.999 472.732C300.999 472.481 300.928 472.234 300.795 472.021C300.728 471.874 300.626 471.747 300.497 471.651C300.368 471.554 300.216 471.492 300.057 471.471C299.305 471.377 298.272 472.142 297.373 472.907C297.784 472.074 297.884 471.122 297.655 470.223C297.565 470.03 297.413 469.873 297.223 469.778C297.033 469.683 296.816 469.655 296.608 469.699C296.424 469.727 296.248 469.793 296.091 469.892C295.934 469.991 295.799 470.122 295.695 470.276C294.93 471.551 295.991 474.396 296.044 474.557L296.205 474.463L296.044 474.571C296.044 474.571 295.897 474.678 295.91 474.691L296.058 474.799ZM296.46 473.873L296.286 474.061C295.869 472.971 295.813 471.776 296.125 470.652C296.175 470.565 296.243 470.489 296.324 470.429C296.404 470.369 296.496 470.326 296.594 470.303H296.715C297.064 470.303 297.198 470.41 297.252 470.545C297.387 471.713 297.107 472.891 296.46 473.873ZM296.769 474.329C297.775 473.255 299.278 471.94 300.03 472.034C300.109 472.042 300.184 472.072 300.248 472.119C300.312 472.166 300.361 472.23 300.392 472.303C300.467 472.441 300.507 472.595 300.507 472.752C300.507 472.909 300.467 473.064 300.392 473.202C300.07 473.806 298.728 474.222 296.769 474.329Z" fill="#5B1DAE"/>
<path d="M284.866 479.817L294.542 475.134L288.784 452.078L279.122 456.762L284.866 479.817Z" fill="#B55B52"/>
<path opacity="0.2" d="M279.122 456.762L288.784 452.092L292.072 465.27L282.276 469.471L279.122 456.762Z" fill="black"/>
<path d="M294.904 473.659L283.228 476.678C283.13 476.697 283.036 476.736 282.953 476.792C282.87 476.848 282.798 476.92 282.743 477.003C282.688 477.087 282.651 477.181 282.633 477.28C282.614 477.378 282.616 477.479 282.638 477.577L284.463 486.971C284.595 487.45 284.909 487.858 285.338 488.109C285.766 488.359 286.276 488.433 286.758 488.313C290.784 487.186 292.689 486.448 297.816 485.079C302.411 484.098 306.932 482.793 311.343 481.174C315.476 479.376 313.584 475.336 311.679 475.739C307.143 476.665 300.312 475.336 296.796 473.793C296.196 473.547 295.532 473.5 294.904 473.659Z" fill="#263238"/>
<path d="M293.495 456.454C293.495 456.454 277.123 374.31 273.768 369.425C268.319 361.373 202.803 348.396 202.803 348.396L210.492 347.054L201.608 323.435L143.271 325.729C143.271 325.729 144.493 364.272 150.424 374.605C156.356 384.938 244.109 389.689 249.813 392.051C255.516 394.413 272.922 458.842 272.922 458.842L293.495 456.454Z" fill="#5B1DAE"/>
<path opacity="0.4" d="M293.495 456.454C293.495 456.454 277.123 374.31 273.768 369.425C268.319 361.373 202.803 348.396 202.803 348.396L210.492 347.054L201.608 323.435L143.271 325.729C143.271 325.729 144.493 364.272 150.424 374.605C156.356 384.938 244.109 389.689 249.813 392.051C255.516 394.413 272.922 458.842 272.922 458.842L293.495 456.454Z" fill="white"/>
<path d="M273.271 466.116L296.165 460.292L294.944 450.065L269.956 456.95L273.271 466.116Z" fill="#5B1DAE"/>
<path opacity="0.2" d="M273.271 466.116L296.165 460.292L294.944 450.065L269.956 456.95L273.271 466.116Z" fill="white"/>
<path d="M161.737 326.628L144.828 326.347L144.466 331.46L162.462 331.889L161.737 326.628Z" fill="#263238"/>
<path d="M164.341 326.535L165.079 331.849L202.816 331.312L201.595 326.468L164.341 326.535Z" fill="#263238"/>
<path d="M182.512 327.461L182.995 330.964C183.066 331.391 183.287 331.78 183.62 332.058C183.952 332.336 184.373 332.486 184.807 332.48L190.846 332.292C191.046 332.296 191.244 332.255 191.426 332.172C191.608 332.089 191.769 331.967 191.898 331.814C192.026 331.661 192.119 331.481 192.169 331.287C192.219 331.094 192.226 330.892 192.188 330.695L191.691 327.179C191.62 326.753 191.398 326.366 191.065 326.09C190.733 325.814 190.312 325.667 189.879 325.676L183.854 325.864C183.654 325.86 183.456 325.901 183.274 325.984C183.092 326.067 182.931 326.189 182.802 326.342C182.673 326.496 182.58 326.675 182.53 326.869C182.48 327.062 182.474 327.265 182.512 327.461Z" fill="white"/>
<path d="M144.748 325.595H200.173C200.836 325.599 201.478 325.357 201.973 324.916C202.469 324.475 202.784 323.866 202.857 323.206C209.701 269.526 196.63 250.993 196.63 250.993C191.653 249.572 186.574 248.536 181.438 247.893C173.934 247.303 166.402 247.141 158.879 247.41C153.754 247.548 148.646 248.055 143.594 248.927C140.91 250.094 138.132 262.051 140.91 299.305C141.635 309.062 141.742 317.489 141.675 322.428C141.664 323.255 141.981 324.053 142.557 324.646C143.133 325.24 143.921 325.581 144.748 325.595Z" fill="#263238"/>
<path d="M188.899 269.982H199.582L200.387 282.731L194.657 286.449L188.899 283.604V269.982Z" fill="#263238"/>
<path opacity="0.2" d="M202.897 323.207C202.824 323.866 202.509 324.475 202.013 324.916C201.518 325.358 200.876 325.599 200.213 325.595H144.788C144.373 325.597 143.961 325.516 143.578 325.357C143.194 325.199 142.846 324.965 142.554 324.67C142.262 324.375 142.031 324.025 141.875 323.64C141.72 323.255 141.642 322.843 141.648 322.428C141.648 317.49 141.648 309.008 140.896 299.306C140.511 293.938 140.23 289.089 140.051 284.758C139.613 276.836 139.658 268.895 140.185 260.978C140.856 252.926 142.238 249.531 143.634 248.9C148.704 248.026 153.83 247.52 158.973 247.384C166.491 247.115 174.019 247.276 181.519 247.867C186.641 248.511 191.706 249.548 196.67 250.967C196.67 250.967 209.741 269.58 202.897 323.207Z" fill="white"/>
<path d="M159.429 246.86L177.331 252.966L178.056 247.84C176.311 244.78 175.868 242.847 177.344 239.291L165.401 225.562C165.709 232.595 164.434 242.203 159.429 246.86Z" fill="#B55B52"/>
<path d="M170.756 255.624L174.272 257.086L177.332 259.005C177.332 259.005 181.425 282.437 180.284 302.218L183.72 305.036L187.343 302.124C187.343 302.124 182.834 265.796 181.21 258.724L181.921 257.019L183.572 253.503L180.526 251.906L175.681 252.966H172.299L170.756 255.624Z" fill="white"/>
<path opacity="0.2" d="M170.259 231.158L177.331 239.291C176.8 240.537 176.374 241.825 176.056 243.142C173.063 242.243 169.346 238.257 169.521 235.01C169.53 233.692 169.781 232.387 170.259 231.158Z" fill="black"/>
<path d="M160.543 243.612C165.595 246.976 170.994 249.788 176.647 252C177.264 249.501 177.264 246.889 176.647 244.391L184.551 248.336C184.551 248.336 185.209 254.469 183.397 257.73L177.586 253.476L171.064 258.844C171.064 258.844 158.718 254.08 156.785 247.611L160.543 243.612Z" fill="#263238"/>
<path opacity="0.2" d="M200.816 291.227L182.511 305.989C156.235 311.84 144.68 295.454 140.037 284.718C139.599 276.796 139.644 268.855 140.171 260.938C146.479 260.643 154.329 260.643 156.45 262.28C160.14 265.111 172.997 284.96 174.916 286.436C176.835 287.912 200.816 291.227 200.816 291.227Z" fill="black"/>
<path d="M211.23 290.529L220.852 287.053L219.671 299.936C219.671 299.936 210.841 301.063 209.754 296.42L211.23 290.529Z" fill="#B55B52"/>
<path d="M228.81 289.656L227.347 300.271L219.671 299.936L220.852 287.053L228.81 289.656Z" fill="#B55B52"/>
<path d="M155.255 264.535C158.093 270.142 161.229 275.594 164.649 280.867C166.753 284.315 169.389 287.408 172.459 290.033C172.691 290.235 172.96 290.39 173.251 290.489C176.612 291.378 180.082 291.784 183.558 291.697C193.301 291.791 203.218 290.892 213.001 290.06L214.598 297.467C208.044 299.603 201.361 301.32 194.589 302.607C187.248 303.949 180.552 304.956 172.741 304.204C170.222 303.941 167.776 303.198 165.535 302.017C156.839 296.931 151.511 288.704 146.465 280.545C144.653 277.378 143.003 274.425 141.473 271.043L155.295 264.508L155.255 264.535Z" fill="#B65B52"/>
<path d="M143.593 248.927C126.282 255.167 148.733 298.299 158.181 303.13C167.629 307.961 183.572 305.989 183.572 305.989L184.699 290.998C184.699 290.998 176.432 289.992 173.963 289.402C170.031 288.462 162.086 271.097 156.732 261.662C153.776 256.159 149.186 251.709 143.593 248.927Z" fill="#263238"/>
<path opacity="0.2" d="M143.593 248.927C126.282 255.167 148.733 298.299 158.181 303.13C167.629 307.961 183.572 305.989 183.572 305.989L184.699 290.998C184.699 290.998 176.432 289.992 173.963 289.402C170.031 288.462 162.086 271.097 156.732 261.662C153.776 256.159 149.186 251.709 143.593 248.927Z" fill="white"/>
<path d="M182.471 289.871L181.075 307.277L186.041 306.351L187.342 290.797L182.471 289.871Z" fill="#263238"/>
<path d="M196.173 211.418C196.857 215.444 195.126 223.255 190.094 219.953C185.061 216.652 194.978 204.52 196.173 211.418Z" fill="#263238"/>
<path d="M167.75 212.854C165.817 222.677 164.18 228.327 167.75 234.527C173.118 243.84 186.31 242.418 191.154 233.359C195.516 225.187 197.945 210.545 189.45 204.278C187.568 202.907 185.371 202.033 183.061 201.739C180.752 201.444 178.405 201.739 176.24 202.594C174.075 203.45 172.161 204.839 170.676 206.633C169.192 208.427 168.185 210.567 167.75 212.854Z" fill="#B55B52"/>
<path d="M163.025 202.024L174.151 201.514L174.446 207.902L173.788 207.539C173.788 207.539 173.09 216.933 167.763 220.06C160.556 214.558 158.436 205.553 163.025 202.024Z" fill="#263238"/>
<path d="M161.871 219.94C161.941 221.179 162.255 222.393 162.797 223.51C163.338 224.627 164.095 225.626 165.025 226.449C167.535 228.636 170.245 226.744 170.769 223.63C171.238 220.826 170.5 216.303 167.4 215.31C166.716 215.109 165.992 215.08 165.294 215.226C164.596 215.372 163.944 215.688 163.397 216.146C162.851 216.604 162.425 217.19 162.159 217.852C161.893 218.514 161.794 219.231 161.871 219.94Z" fill="#B55B52"/>
<path d="M181.733 219.255C181.518 220.047 181.733 220.785 182.297 220.919C182.86 221.053 183.397 220.516 183.639 219.725C183.88 218.933 183.639 218.195 183.075 218.074C182.512 217.953 181.934 218.477 181.733 219.255Z" fill="#263238"/>
<path d="M190.657 221.51C190.456 222.288 190.657 223.04 191.221 223.161C191.784 223.281 192.335 222.758 192.563 221.98C192.791 221.201 192.563 220.45 191.999 220.315C191.436 220.181 190.872 220.718 190.657 221.51Z" fill="#263238"/>
<path d="M187.718 221.188C188.082 223.758 188.805 226.266 189.866 228.636C189.225 228.863 188.544 228.953 187.867 228.9C187.189 228.846 186.531 228.651 185.934 228.327L187.718 221.188Z" fill="#A02724"/>
<path d="M180.914 230.273C181.24 230.411 181.577 230.523 181.92 230.609C181.983 230.622 182.047 230.611 182.102 230.579C182.156 230.546 182.197 230.495 182.216 230.434C182.224 230.404 182.226 230.371 182.221 230.34C182.217 230.308 182.206 230.278 182.19 230.251C182.174 230.223 182.152 230.199 182.127 230.18C182.101 230.161 182.072 230.147 182.041 230.139C181.056 229.919 180.138 229.467 179.363 228.821C178.588 228.174 177.979 227.352 177.586 226.422C177.562 226.363 177.517 226.316 177.46 226.289C177.403 226.261 177.338 226.256 177.277 226.274C177.246 226.283 177.217 226.298 177.192 226.319C177.168 226.34 177.148 226.366 177.134 226.395C177.12 226.424 177.112 226.456 177.111 226.489C177.111 226.521 177.117 226.553 177.13 226.583C177.471 227.426 177.983 228.19 178.635 228.825C179.286 229.46 180.062 229.954 180.914 230.273Z" fill="#263238"/>
<path d="M179.734 215.699C179.812 215.728 179.897 215.737 179.979 215.722C180.062 215.708 180.139 215.672 180.203 215.618C180.667 215.232 181.214 214.96 181.801 214.823C182.388 214.685 182.999 214.686 183.585 214.826C183.645 214.847 183.708 214.856 183.772 214.851C183.835 214.847 183.896 214.83 183.953 214.801C184.009 214.772 184.059 214.732 184.1 214.683C184.14 214.635 184.171 214.578 184.189 214.518C184.21 214.46 184.219 214.398 184.215 214.336C184.211 214.275 184.195 214.214 184.168 214.159C184.14 214.104 184.102 214.055 184.055 214.015C184.007 213.975 183.953 213.945 183.894 213.927C183.156 213.73 182.382 213.714 181.637 213.88C180.892 214.046 180.197 214.389 179.613 214.88C179.563 214.918 179.52 214.966 179.489 215.021C179.458 215.075 179.438 215.136 179.43 215.198C179.423 215.261 179.428 215.325 179.445 215.385C179.463 215.446 179.492 215.502 179.532 215.551C179.587 215.615 179.656 215.665 179.734 215.699Z" fill="#263238"/>
<path d="M195.314 219.416C195.396 219.445 195.484 219.453 195.569 219.438C195.654 219.422 195.734 219.385 195.801 219.329C195.867 219.274 195.918 219.202 195.948 219.12C195.978 219.039 195.986 218.951 195.972 218.866C195.83 218.121 195.513 217.42 195.046 216.823C194.579 216.225 193.976 215.748 193.288 215.43C193.168 215.385 193.036 215.388 192.919 215.438C192.801 215.488 192.708 215.581 192.657 215.699C192.613 215.816 192.616 215.946 192.666 216.062C192.716 216.177 192.809 216.268 192.925 216.316C193.46 216.565 193.927 216.939 194.286 217.406C194.646 217.873 194.888 218.42 194.992 219C195.003 219.092 195.039 219.179 195.095 219.253C195.152 219.326 195.228 219.382 195.314 219.416Z" fill="#263238"/>
<path d="M170.353 209.928C170.567 210.109 170.796 210.271 171.037 210.411C171.682 210.797 172.412 211.014 173.163 211.045C173.913 211.075 174.658 210.918 175.332 210.586C178.096 209.244 178.969 201.353 186.833 205.365C187.697 205.157 188.603 205.203 189.441 205.499C190.279 205.794 191.014 206.326 191.557 207.029C193.583 209.512 192.187 218.571 196.509 217.323C200.83 216.075 200.078 214.733 200.078 214.733C200.078 214.733 198.871 215.497 198.159 214.894C198.8 214.355 199.257 213.629 199.466 212.819C199.675 212.008 199.627 211.153 199.327 210.371C199.327 210.371 198.28 211.619 197.582 211.378C198.303 207.713 197.886 203.915 196.388 200.494C193.878 194.24 178.526 195.636 178.526 195.636C178.526 195.636 176.593 192.402 169.655 194.656C162.717 196.911 159.55 205.271 160.65 208.908" fill="#263238"/>
<path d="M261.958 298.93L260.965 295.186H220.262L201.528 297.051L200.816 298.93H261.958Z" fill="#263238"/>
<path opacity="0.5" d="M261.958 298.93L260.965 295.186H220.262L201.528 297.051L200.816 298.93H261.958Z" fill="white"/>
<path opacity="0.2" d="M220.262 295.186V298.93H261.958L260.965 295.186H220.262Z" fill="black"/>
<path d="M234.031 277.257C233.977 277.71 234.021 278.171 234.16 278.606C234.299 279.042 234.529 279.442 234.835 279.782C235.142 280.121 235.517 280.391 235.936 280.573C236.355 280.756 236.808 280.847 237.265 280.84H299.614C300.589 280.816 301.522 280.44 302.24 279.781C302.958 279.122 303.413 278.225 303.52 277.257L307.224 237.346C307.259 236.959 307.232 236.569 307.143 236.191C306.972 235.488 306.567 234.864 305.993 234.422C305.42 233.981 304.713 233.748 303.989 233.762H241.64C240.666 233.786 239.733 234.162 239.015 234.821C238.297 235.48 237.842 236.377 237.735 237.346L234.031 277.257Z" fill="#263238"/>
<path opacity="0.5" d="M234.031 277.257C233.977 277.71 234.021 278.171 234.16 278.606C234.299 279.042 234.529 279.442 234.835 279.782C235.142 280.121 235.517 280.391 235.936 280.573C236.355 280.756 236.808 280.847 237.265 280.84H299.614C300.589 280.816 301.522 280.44 302.24 279.781C302.958 279.122 303.413 278.225 303.52 277.257L307.224 237.346C307.259 236.959 307.232 236.569 307.143 236.191C306.972 235.488 306.567 234.864 305.993 234.422C305.42 233.981 304.713 233.748 303.989 233.762H241.64C240.666 233.786 239.733 234.162 239.015 234.821C238.297 235.48 237.842 236.377 237.735 237.346L234.031 277.257Z" fill="white"/>
<path opacity="0.1" d="M237.533 280.84H299.655C300.629 280.816 301.562 280.44 302.28 279.781C302.998 279.122 303.453 278.225 303.56 277.257L307.264 237.346C307.299 236.959 307.272 236.569 307.183 236.191H245.049C244.077 236.218 243.147 236.595 242.432 237.254C241.716 237.913 241.263 238.808 241.157 239.775L237.453 279.686C237.411 280.072 237.438 280.463 237.533 280.84Z" fill="black"/>
<path d="M280.317 256.361H267.42L270.856 293.293L250.471 296.353V298.93H293.428V296.353L284.625 293.293L280.317 256.361Z" fill="#263238"/>
<path opacity="0.5" d="M280.317 256.361H267.42L270.856 293.293L250.471 296.353V298.93H293.428V296.353L284.625 293.293L280.317 256.361Z" fill="white"/>
<path opacity="0.2" d="M267.42 256.361L276.975 298.339L284.624 298.111L280.317 256.361H267.42Z" fill="white"/>
<path d="M160.959 485.977H239.063C239.265 485.977 239.465 485.937 239.652 485.86C239.838 485.782 240.007 485.668 240.15 485.525C240.292 485.381 240.404 485.211 240.48 485.024C240.556 484.837 240.595 484.636 240.593 484.434V479.455C240.593 479.05 240.432 478.66 240.145 478.374C239.858 478.087 239.469 477.925 239.063 477.925H164.985V318.469H237.802C238.542 318.469 239.252 318.175 239.775 317.651C240.299 317.128 240.593 316.418 240.593 315.678V310.417H160.959C159.891 310.417 158.867 310.841 158.112 311.596C157.357 312.351 156.933 313.375 156.933 314.443V481.951C156.933 483.019 157.357 484.043 158.112 484.798C158.867 485.553 159.891 485.977 160.959 485.977Z" fill="#263238"/>
<g opacity="0.4">
<path d="M160.959 485.977H239.063C239.265 485.977 239.465 485.937 239.652 485.86C239.838 485.782 240.007 485.668 240.15 485.525C240.292 485.381 240.404 485.211 240.48 485.024C240.556 484.837 240.595 484.636 240.593 484.434V479.455C240.593 479.05 240.432 478.66 240.145 478.374C239.858 478.087 239.469 477.925 239.063 477.925H164.985V318.469H237.802C238.542 318.469 239.252 318.175 239.775 317.651C240.299 317.128 240.593 316.418 240.593 315.678V310.417H160.959C159.891 310.417 158.867 310.841 158.112 311.596C157.357 312.351 156.933 313.375 156.933 314.443V481.951C156.933 483.019 157.357 484.043 158.112 484.798C158.867 485.553 159.891 485.977 160.959 485.977Z" fill="white"/>
</g>
<path d="M356.837 311.76H150.947C150.257 311.76 149.595 311.485 149.106 310.997C148.618 310.509 148.344 309.847 148.344 309.156V302.822H359.44V309.17C359.437 309.858 359.161 310.517 358.673 311.002C358.185 311.487 357.525 311.76 356.837 311.76Z" fill="#E3B134"/>
<path opacity="0.2" d="M148.344 307.277H359.44V302.808H148.344V307.277Z" fill="black"/>
<path d="M143.929 303.962H363.883C364.55 303.962 365.19 303.698 365.662 303.228C366.135 302.758 366.402 302.119 366.406 301.453C366.406 300.784 366.14 300.142 365.667 299.669C365.194 299.196 364.552 298.93 363.883 298.93H143.929C143.26 298.93 142.618 299.196 142.145 299.669C141.672 300.142 141.406 300.784 141.406 301.453C141.41 302.119 141.677 302.758 142.15 303.228C142.623 303.698 143.262 303.962 143.929 303.962Z" fill="#E3B134"/>
</svg>
