<svg width="31" height="30" viewBox="0 0 31 30" fill="none" xmlns="http://www.w3.org/2000/svg">
<path fill-rule="evenodd" clip-rule="evenodd" d="M26.6494 5.80043C26.8155 5.62863 26.9059 5.40141 26.9016 5.16663C26.8973 4.93185 26.7986 4.70784 26.6263 4.5418C26.4541 4.37576 26.2216 4.28065 25.978 4.27651C25.7344 4.27237 25.4987 4.35951 25.3204 4.51959L5.26118 23.8529C5.1688 23.9359 5.09471 24.0359 5.04331 24.1471C4.99192 24.2583 4.96429 24.3783 4.96206 24.5C4.95983 24.6216 4.98306 24.7425 5.03035 24.8554C5.07764 24.9682 5.14803 25.0707 5.23732 25.1568C5.3266 25.2428 5.43296 25.3107 5.55004 25.3562C5.66712 25.4018 5.79253 25.4242 5.91878 25.4221C6.04503 25.4199 6.16954 25.3933 6.28488 25.3437C6.40022 25.2942 6.50403 25.2228 6.59011 25.1338L10.3951 21.4665C12.0475 22.2011 13.9393 22.6808 15.9553 22.6808C19.2375 22.6808 22.1887 21.4109 24.315 19.8376C25.3806 19.0498 26.2545 18.175 26.8663 17.3243C27.468 16.4881 27.8655 15.6109 27.8655 14.8267C27.8655 14.0425 27.468 13.1652 26.8663 12.3303C26.2545 11.4784 25.3806 10.6036 24.315 9.81693C23.9765 9.5656 23.6154 9.32151 23.2368 9.09072L26.6494 5.80043ZM19.8794 12.3278L18.5003 13.6546C18.7517 14.1619 18.8337 14.7319 18.7351 15.286C18.6364 15.8402 18.362 16.3512 17.9495 16.7487C17.537 17.1463 17.0068 17.4108 16.4319 17.5059C15.8569 17.6009 15.2656 17.5219 14.7392 17.2796L13.3601 18.6088C14.2642 19.1857 15.3474 19.4437 16.4262 19.3391C17.5051 19.2345 18.5133 18.7736 19.28 18.0347C20.0467 17.2957 20.5248 16.324 20.6334 15.2842C20.7419 14.2444 20.4742 13.2004 19.8756 12.3291L19.8794 12.3278Z" fill="black"/>
<path d="M16.7951 10.3681C16.8467 10.3774 16.8998 10.3746 16.95 10.3598C17.0002 10.3451 17.046 10.3189 17.0834 10.2835L19.5282 7.92724C19.5662 7.89121 19.5937 7.84621 19.608 7.79672C19.6223 7.74723 19.6229 7.69498 19.6097 7.64521C19.5965 7.59543 19.57 7.54986 19.5328 7.51305C19.4956 7.47624 19.4491 7.44949 19.3978 7.43545C18.2774 7.13109 17.1192 6.97539 15.9551 6.97266C12.6729 6.97266 9.72169 8.24261 7.59541 9.81586C6.52976 10.6037 5.65593 11.4785 5.04287 12.3292C4.44109 13.1654 4.04492 14.0426 4.04492 14.8268C4.04492 15.611 4.44235 16.4883 5.04287 17.3232C5.63946 18.1302 6.34432 18.8575 7.13906 19.4862C7.19853 19.5335 7.27427 19.5577 7.35132 19.5539C7.42838 19.5501 7.50115 19.5186 7.55529 19.4656L11.2412 15.9131C11.2779 15.877 11.3051 15.8329 11.3204 15.7845C11.3357 15.7361 11.3386 15.6849 11.3289 15.6352C11.1931 14.9146 11.2405 14.1729 11.4671 13.4738C11.6938 12.7747 12.0928 12.1389 12.6302 11.621C13.1676 11.1031 13.8272 10.7185 14.5525 10.5C15.2779 10.2816 16.0474 10.2359 16.7951 10.3669V10.3681Z" fill="black"/>
</svg>
