<svg width="764" height="582" viewBox="0 0 764 582" fill="none" xmlns="http://www.w3.org/2000/svg">
<path d="M763.344 512.713H0.65625V513.094H763.344V512.713Z" fill="#E0E0E0"/>
<path d="M579.277 526.776H526.804V527.158H579.277V526.776Z" fill="#E0E0E0"/>
<path d="M641.009 525.693H611.478V526.075H641.009V525.693Z" fill="#E0E0E0"/>
<path d="M377.942 526.594H338.771V526.975H377.942V526.594Z" fill="#E0E0E0"/>
<path d="M406.238 532.009H379.483V532.39H406.238V532.009Z" fill="#E0E0E0"/>
<path d="M221.333 522.734H140.503V523.116H221.333V522.734Z" fill="#E0E0E0"/>
<path d="M362.17 444.681H67.6351C65.3277 444.677 63.1162 443.757 61.4861 442.124C59.856 440.491 58.9404 438.278 58.9404 435.971V21.9383C58.9605 19.6442 59.8849 17.4506 61.5129 15.8341C63.1408 14.2176 65.3409 13.3086 67.6351 13.3047H362.17C364.48 13.3047 366.695 14.2223 368.329 15.8558C369.962 17.4892 370.88 19.7046 370.88 22.0146V435.971C370.88 438.281 369.962 440.496 368.329 442.13C366.695 443.763 364.48 444.681 362.17 444.681ZM67.6351 13.6098C65.4288 13.6138 63.3144 14.4931 61.7558 16.0545C60.1971 17.616 59.3218 19.7321 59.3218 21.9383V435.971C59.3218 438.177 60.1971 440.293 61.7558 441.855C63.3144 443.416 65.4288 444.295 67.6351 444.299H362.17C364.377 444.295 366.493 443.417 368.054 441.856C369.616 440.295 370.494 438.178 370.498 435.971V21.9383C370.494 19.7307 369.616 17.6146 368.054 16.0536C366.493 14.4926 364.377 13.6138 362.17 13.6098H67.6351Z" fill="#E0E0E0"/>
<path d="M692.124 444.681H397.574C395.265 444.677 393.052 443.758 391.42 442.125C389.787 440.493 388.868 438.28 388.864 435.971V21.9383C388.888 19.6428 389.816 17.4492 391.447 15.8331C393.077 14.217 395.278 13.3086 397.574 13.3047H692.124C694.416 13.3126 696.612 14.2233 698.236 15.8394C699.861 17.4555 700.783 19.6468 700.803 21.9383V435.971C700.803 438.276 699.89 440.486 698.263 442.119C696.636 443.751 694.429 444.673 692.124 444.681ZM397.574 13.6098C395.367 13.6138 393.25 14.4926 391.689 16.0536C390.128 17.6146 389.25 19.7307 389.246 21.9383V435.971C389.25 438.178 390.128 440.295 391.689 441.856C393.25 443.417 395.367 444.295 397.574 444.299H692.124C694.332 444.295 696.448 443.417 698.009 441.856C699.57 440.295 700.449 438.178 700.453 435.971V21.9383C700.449 19.7307 699.57 17.6146 698.009 16.0536C696.448 14.4926 694.332 13.6138 692.124 13.6098H397.574Z" fill="#E0E0E0"/>
<path d="M662.715 50.3252H432.841V247.953H662.715V50.3252Z" fill="#E0E0E0"/>
<path d="M667.825 50.3252H437.951V247.953H667.825V50.3252Z" fill="#F0F0F0"/>
<path d="M658.657 238.679V59.5996L447.118 59.5996V238.679H658.657Z" fill="#FAFAFA"/>
<path d="M591.053 238.679V59.5996H577.233V238.679H591.053Z" fill="#E0E0E0"/>
<path d="M518.354 238.679V59.5996H504.534V238.679H518.354Z" fill="#E0E0E0"/>
<path d="M595.919 244.551V52.6895H582.099V244.551H595.919Z" fill="#F0F0F0"/>
<path d="M523.204 244.567V52.7051H509.384V244.567H523.204Z" fill="#F0F0F0"/>
<path d="M658.657 238.664V59.585H654.798V238.664H658.657Z" fill="#E0E0E0"/>
<path d="M271.167 206.402C271.167 206.402 243.191 158.215 282.012 119.791C282.012 119.791 292.141 126.396 291.988 135.274C291.835 144.151 281.127 146.394 283.431 153.807C285.734 161.22 295.817 168.466 289.197 174.598C282.576 180.73 290.264 186.16 289.822 193.665C289.38 201.17 271.167 206.402 271.167 206.402Z" fill="#E0E0E0"/>
<path d="M275.559 214.288C275.559 214.288 286.908 159.71 237.974 135.518C237.974 135.518 230.438 144.975 233.398 153.349C236.357 161.724 247.202 160.473 247.355 168.237C247.507 176.001 240.231 186.069 248.438 189.79C256.644 193.512 251.077 201.109 253.868 208.095C256.66 215.081 275.559 214.288 275.559 214.288Z" fill="#E6E6E6"/>
<path d="M250.65 200.423C250.65 200.423 251.139 247.542 269.977 247.542C288.815 247.542 289.288 200.423 289.288 200.423H250.65Z" fill="#F0F0F0"/>
<path d="M137.467 229.816C137.467 229.816 138.519 247.541 178.743 247.541C218.968 247.541 220.035 229.816 220.035 229.816H137.467Z" fill="#E6E6E6"/>
<path d="M561.537 336.685H540.303C537.658 336.685 535.514 338.829 535.514 341.474V376.588C535.514 379.234 537.658 381.378 540.303 381.378H561.537C564.182 381.378 566.326 379.234 566.326 376.588V341.474C566.326 338.829 564.182 336.685 561.537 336.685Z" fill="#F0F0F0"/>
<path d="M617.853 351.297H603.56C601.783 351.297 600.342 352.738 600.342 354.515V378.159C600.342 379.936 601.783 381.377 603.56 381.377H617.853C619.631 381.377 621.072 379.936 621.072 378.159V354.515C621.072 352.738 619.631 351.297 617.853 351.297Z" fill="#E6E6E6"/>
<path d="M619.989 348.384H601.425C600.827 348.384 600.342 348.869 600.342 349.467V350.687C600.342 351.285 600.827 351.77 601.425 351.77H619.989C620.587 351.77 621.072 351.285 621.072 350.687V349.467C621.072 348.869 620.587 348.384 619.989 348.384Z" fill="#F0F0F0"/>
<path d="M486.366 356.514C486.366 356.514 487.129 381.377 516.248 381.377C545.368 381.377 546.146 356.514 546.146 356.514H486.366Z" fill="#E6E6E6"/>
<path d="M413.942 323.673H458.01V314.978H413.942V323.673Z" fill="#E0E0E0"/>
<path d="M677.099 314.993H458.01V323.688H677.099V314.993Z" fill="#F0F0F0"/>
<path d="M413.942 390.072H458.01V381.378H413.942V390.072Z" fill="#E0E0E0"/>
<path d="M677.099 381.378H458.01V390.073H677.099V381.378Z" fill="#F0F0F0"/>
<path d="M429.821 323.673H421.69V512.697H429.821V323.673Z" fill="#E0E0E0"/>
<path d="M466.14 323.673H458.01V512.697H466.14V323.673Z" fill="#F0F0F0"/>
<path d="M648.911 323.673H640.78V512.697H648.911V323.673Z" fill="#E0E0E0"/>
<path d="M677.099 323.673H668.969V512.697H677.099V323.673Z" fill="#F0F0F0"/>
<path d="M137.467 258.601H95.7939V501.273H137.467V258.601Z" fill="#E6E6E6"/>
<path d="M309.3 501.257H103.802V512.712H309.3V501.257Z" fill="#E6E6E6"/>
<path d="M137.467 501.257H317.294L317.294 258.585H137.467L137.467 501.257Z" fill="#F0F0F0"/>
<path d="M153.85 409.566H300.911V350.29H153.85V409.566Z" fill="#E6E6E6"/>
<path d="M153.85 479.643H300.911V420.366H153.85V479.643Z" fill="#E6E6E6"/>
<path d="M243.892 356.788H210.868C209.793 356.784 208.763 356.356 208.003 355.596C207.243 354.836 206.815 353.806 206.811 352.731C206.811 351.653 207.238 350.62 207.998 349.856C208.759 349.093 209.791 348.662 210.868 348.658H243.892C244.97 348.662 246.002 349.093 246.762 349.856C247.523 350.62 247.95 351.653 247.95 352.731C247.946 353.806 247.517 354.836 246.757 355.596C245.997 356.356 244.967 356.784 243.892 356.788Z" fill="#F0F0F0"/>
<path d="M153.85 339.476H300.911V280.2H153.85V339.476Z" fill="#E6E6E6"/>
<path d="M243.892 286.713H210.868C209.791 286.709 208.759 286.278 207.998 285.515C207.238 284.752 206.811 283.718 206.811 282.641C206.815 281.566 207.243 280.536 208.003 279.776C208.763 279.016 209.793 278.587 210.868 278.583H243.892C244.967 278.587 245.997 279.016 246.757 279.776C247.517 280.536 247.946 281.566 247.95 282.641C247.95 283.718 247.523 284.752 246.762 285.515C246.002 286.278 244.97 286.709 243.892 286.713Z" fill="#F0F0F0"/>
<path d="M243.892 426.865H210.868C209.793 426.861 208.763 426.432 208.003 425.672C207.243 424.912 206.815 423.882 206.811 422.807C206.811 421.73 207.238 420.696 207.998 419.933C208.759 419.169 209.791 418.738 210.868 418.734H243.892C244.97 418.738 246.002 419.169 246.762 419.933C247.523 420.696 247.95 421.73 247.95 422.807C247.946 423.882 247.517 424.912 246.757 425.672C245.997 426.432 244.967 426.861 243.892 426.865Z" fill="#F0F0F0"/>
<path d="M322.846 247.541H137.467V258.6H322.846V247.541Z" fill="#E6E6E6"/>
<path d="M89.9666 258.585H137.467V247.526H89.9666V258.585Z" fill="#E0E0E0"/>
<path d="M183.915 59.5996H116.493V133.641H183.915V59.5996Z" fill="#E6E6E6"/>
<path d="M191.221 59.5996H121.572V133.641H191.221V59.5996Z" fill="#F0F0F0"/>
<path d="M185.379 127.799V65.4268H127.399V127.799H185.379Z" fill="#FAFAFA"/>
<path d="M171.33 112.683V80.543H141.463V112.683H171.33Z" fill="#F0F0F0"/>
<path d="M254.998 37.7412H203.867V92.67H254.998V37.7412Z" fill="#E6E6E6"/>
<path d="M260.427 37.7412H208.763V92.67H260.427V37.7412Z" fill="#F0F0F0"/>
<path d="M256.096 88.3379V42.0732H213.095V88.3379H256.096Z" fill="#FAFAFA"/>
<path d="M234.588 53.498L222.827 73.8771H246.348L234.588 53.498Z" fill="#F0F0F0"/>
<path d="M382 581.598C545.341 581.598 677.755 573.867 677.755 564.331C677.755 554.794 545.341 547.063 382 547.063C218.659 547.063 86.2451 554.794 86.2451 564.331C86.2451 573.867 218.659 581.598 382 581.598Z" fill="#F5F5F5"/>
<path d="M641.009 151.839H491.37C483.476 151.839 477.077 158.238 477.077 166.132V206.829C477.077 214.722 483.476 221.121 491.37 221.121H641.009C648.903 221.121 655.302 214.722 655.302 206.829V166.132C655.302 158.238 648.903 151.839 641.009 151.839Z" fill="#E3B134"/>
<path d="M611.325 163.523H494.435C493.054 163.523 491.934 164.643 491.934 166.025V168.771C491.934 170.152 493.054 171.272 494.435 171.272H611.325C612.706 171.272 613.826 170.152 613.826 168.771V166.025C613.826 164.643 612.706 163.523 611.325 163.523Z" fill="#E3B134"/>
<path d="M574.304 182.194H494.435C493.054 182.194 491.934 183.314 491.934 184.696V187.442C491.934 188.823 493.054 189.943 494.435 189.943H574.304C575.685 189.943 576.805 188.823 576.805 187.442V184.696C576.805 183.314 575.685 182.194 574.304 182.194Z" fill="#E3B134"/>
<path d="M552.888 200.864H494.435C493.054 200.864 491.934 201.984 491.934 203.366V206.112C491.934 207.493 493.054 208.613 494.435 208.613H552.888C554.269 208.613 555.389 207.493 555.389 206.112V203.366C555.389 201.984 554.269 200.864 552.888 200.864Z" fill="#E3B134"/>
<path d="M625.328 200.864H566.876C565.494 200.864 564.374 201.984 564.374 203.366V206.112C564.374 207.493 565.494 208.613 566.876 208.613H625.328C626.71 208.613 627.83 207.493 627.83 206.112V203.366C627.83 201.984 626.71 200.864 625.328 200.864Z" fill="#E3B134"/>
<g opacity="0.5">
<path d="M611.325 163.523H494.435C493.054 163.523 491.934 164.643 491.934 166.025V168.771C491.934 170.152 493.054 171.272 494.435 171.272H611.325C612.706 171.272 613.826 170.152 613.826 168.771V166.025C613.826 164.643 612.706 163.523 611.325 163.523Z" fill="white"/>
<path d="M574.304 182.194H494.435C493.054 182.194 491.934 183.314 491.934 184.696V187.442C491.934 188.823 493.054 189.943 494.435 189.943H574.304C575.685 189.943 576.805 188.823 576.805 187.442V184.696C576.805 183.314 575.685 182.194 574.304 182.194Z" fill="white"/>
<path d="M552.888 200.864H494.435C493.054 200.864 491.934 201.984 491.934 203.366V206.112C491.934 207.493 493.054 208.613 494.435 208.613H552.888C554.269 208.613 555.389 207.493 555.389 206.112V203.366C555.389 201.984 554.269 200.864 552.888 200.864Z" fill="white"/>
<path d="M625.328 200.864H566.876C565.494 200.864 564.374 201.984 564.374 203.366V206.112C564.374 207.493 565.494 208.613 566.876 208.613H625.328C626.71 208.613 627.83 207.493 627.83 206.112V203.366C627.83 201.984 626.71 200.864 625.328 200.864Z" fill="white"/>
</g>
<path d="M521.145 135.686H351.295C339.719 135.686 330.336 145.069 330.336 156.644V216.317C330.336 227.892 339.719 237.276 351.295 237.276H521.145C532.72 237.276 542.104 227.892 542.104 216.317V156.644C542.104 145.069 532.72 135.686 521.145 135.686Z" fill="#5B1DAE"/>
<path d="M527.155 152.815H355.794C353.764 152.815 352.118 154.461 352.118 156.492V160.503C352.118 162.534 353.764 164.179 355.794 164.179H527.155C529.185 164.179 530.831 162.534 530.831 160.503V156.492C530.831 154.461 529.185 152.815 527.155 152.815Z" fill="#5B1DAE"/>
<path d="M472.867 180.195H355.794C353.764 180.195 352.118 181.841 352.118 183.871V187.883C352.118 189.913 353.764 191.559 355.794 191.559H472.867C474.897 191.559 476.543 189.913 476.543 187.883V183.871C476.543 181.841 474.897 180.195 472.867 180.195Z" fill="#5B1DAE"/>
<path d="M441.475 207.576H355.794C353.764 207.576 352.118 209.222 352.118 211.252V215.264C352.118 217.294 353.764 218.94 355.794 218.94H441.475C443.505 218.94 445.151 217.294 445.151 215.264V211.252C445.151 209.222 443.505 207.576 441.475 207.576Z" fill="#5B1DAE"/>
<path d="M533.394 207.576H462.006C459.976 207.576 458.33 209.222 458.33 211.252V215.264C458.33 217.294 459.976 218.94 462.006 218.94H533.394C535.424 218.94 537.07 217.294 537.07 215.264V211.252C537.07 209.222 535.424 207.576 533.394 207.576Z" fill="#5B1DAE"/>
<g opacity="0.5">
<path d="M527.155 152.815H355.794C353.764 152.815 352.118 154.461 352.118 156.492V160.503C352.118 162.534 353.764 164.179 355.794 164.179H527.155C529.185 164.179 530.831 162.534 530.831 160.503V156.492C530.831 154.461 529.185 152.815 527.155 152.815Z" fill="white"/>
<path d="M472.867 180.196H355.794C353.764 180.196 352.118 181.842 352.118 183.872V187.884C352.118 189.914 353.764 191.56 355.794 191.56H472.867C474.897 191.56 476.543 189.914 476.543 187.884V183.872C476.543 181.842 474.897 180.196 472.867 180.196Z" fill="white"/>
<path d="M441.475 207.576H355.794C353.764 207.576 352.118 209.222 352.118 211.252V215.264C352.118 217.294 353.764 218.94 355.794 218.94H441.475C443.505 218.94 445.151 217.294 445.151 215.264V211.252C445.151 209.222 443.505 207.576 441.475 207.576Z" fill="white"/>
<path d="M533.394 207.576H462.006C459.976 207.576 458.33 209.222 458.33 211.252V215.264C458.33 217.294 459.976 218.94 462.006 218.94H533.394C535.424 218.94 537.07 217.294 537.07 215.264V211.252C537.07 209.222 535.424 207.576 533.394 207.576Z" fill="white"/>
</g>
<path d="M415.543 255.687H333.737C328.329 255.687 323.944 260.071 323.944 265.479V388.028C323.944 393.437 328.329 397.821 333.737 397.821H415.543C420.952 397.821 425.336 393.437 425.336 388.028V265.479C425.336 260.071 420.952 255.687 415.543 255.687Z" fill="#5B1DAE"/>
<path opacity="0.4" d="M415.543 255.687H333.737C328.329 255.687 323.944 260.071 323.944 265.479V388.028C323.944 393.437 328.329 397.821 333.737 397.821H415.543C420.952 397.821 425.336 393.437 425.336 388.028V265.479C425.336 260.071 420.952 255.687 415.543 255.687Z" fill="black"/>
<path d="M411.791 270.514H337.475C336.481 270.514 335.675 271.32 335.675 272.314V275.014C335.675 276.008 336.481 276.813 337.475 276.813H411.791C412.785 276.813 413.591 276.008 413.591 275.014V272.314C413.591 271.32 412.785 270.514 411.791 270.514Z" fill="#FAFAFA"/>
<path d="M388.132 285.676H337.475C336.481 285.676 335.675 286.482 335.675 287.476V290.176C335.675 291.17 336.481 291.976 337.475 291.976H388.132C389.127 291.976 389.932 291.17 389.932 290.176V287.476C389.932 286.482 389.127 285.676 388.132 285.676Z" fill="#FAFAFA"/>
<path d="M411.791 300.853H337.475C336.481 300.853 335.675 301.658 335.675 302.652V305.352C335.675 306.346 336.481 307.152 337.475 307.152H411.791C412.785 307.152 413.591 306.346 413.591 305.352V302.652C413.591 301.658 412.785 300.853 411.791 300.853Z" fill="#FAFAFA"/>
<path d="M365.099 316.015H337.475C336.481 316.015 335.675 316.821 335.675 317.815V320.515C335.675 321.509 336.481 322.314 337.475 322.314H365.099C366.093 322.314 366.899 321.509 366.899 320.515V317.815C366.899 316.821 366.093 316.015 365.099 316.015Z" fill="#FAFAFA"/>
<path d="M403.752 316.015H376.127C375.133 316.015 374.327 316.821 374.327 317.815V320.515C374.327 321.509 375.133 322.314 376.127 322.314H403.752C404.746 322.314 405.552 321.509 405.552 320.515V317.815C405.552 316.821 404.746 316.015 403.752 316.015Z" fill="#FAFAFA"/>
<path d="M411.791 331.192H337.475C336.481 331.192 335.675 331.998 335.675 332.992V335.692C335.675 336.686 336.481 337.492 337.475 337.492H411.791C412.785 337.492 413.591 336.686 413.591 335.692V332.992C413.591 331.998 412.785 331.192 411.791 331.192Z" fill="#FAFAFA"/>
<path d="M411.791 346.354H337.475C336.481 346.354 335.675 347.16 335.675 348.154V350.854C335.675 351.848 336.481 352.654 337.475 352.654H411.791C412.785 352.654 413.591 351.848 413.591 350.854V348.154C413.591 347.16 412.785 346.354 411.791 346.354Z" fill="#FAFAFA"/>
<path d="M398.612 361.532H337.475C336.481 361.532 335.675 362.338 335.675 363.332V366.032C335.675 367.026 336.481 367.832 337.475 367.832H398.612C399.606 367.832 400.412 367.026 400.412 366.032V363.332C400.412 362.338 399.606 361.532 398.612 361.532Z" fill="#FAFAFA"/>
<path d="M365.999 376.694H337.475C336.481 376.694 335.675 377.5 335.675 378.494V381.194C335.675 382.188 336.481 382.994 337.475 382.994H365.999C366.993 382.994 367.799 382.188 367.799 381.194V378.494C367.799 377.5 366.993 376.694 365.999 376.694Z" fill="#FAFAFA"/>
<path d="M437.677 254.817H324.204L374.374 294.736L451.298 323.719V268.408C451.29 264.801 449.852 261.344 447.298 258.796C444.744 256.248 441.284 254.817 437.677 254.817Z" fill="#5B1DAE"/>
<path opacity="0.4" d="M437.677 254.817H324.204L374.374 294.736L451.298 323.719V268.408C451.29 264.801 449.852 261.344 447.298 258.796C444.744 256.248 441.284 254.817 437.677 254.817Z" fill="black"/>
<path d="M432.719 275.379H349.693C348.446 275.379 347.436 276.39 347.436 277.636V281.847C347.436 283.093 348.446 284.104 349.693 284.104H432.719C433.966 284.104 434.977 283.093 434.977 281.847V277.636C434.977 276.39 433.966 275.379 432.719 275.379Z" fill="#FAFAFA"/>
<path d="M633.916 362.875V283.067C633.916 276.951 628.958 271.993 622.842 271.993H484.261C478.145 271.993 473.187 276.951 473.187 283.067V362.875C473.187 368.991 478.145 373.949 484.261 373.949H622.842C628.958 373.949 633.916 368.991 633.916 362.875Z" fill="#5B1DAE"/>
<path d="M659.222 337.584V257.776C659.222 251.66 654.264 246.702 648.147 246.702H509.567C503.451 246.702 498.493 251.66 498.493 257.776V337.584C498.493 343.7 503.451 348.658 509.567 348.658H648.147C654.264 348.658 659.222 343.7 659.222 337.584Z" fill="#5B1DAE"/>
<path opacity="0.5" d="M659.222 337.584V257.776C659.222 251.66 654.264 246.702 648.147 246.702H509.567C503.451 246.702 498.493 251.66 498.493 257.776V337.584C498.493 343.7 503.451 348.658 509.567 348.658H648.147C654.264 348.658 659.222 343.7 659.222 337.584Z" fill="white"/>
<path d="M645.158 310.234V261.102C645.158 258.381 642.952 256.175 640.231 256.175H594.943C592.222 256.175 590.016 258.381 590.016 261.102V310.234C590.016 312.955 592.222 315.161 594.943 315.161H640.231C642.952 315.161 645.158 312.955 645.158 310.234Z" fill="#5B1DAE"/>
<path opacity="0.7" d="M645.158 310.234V261.102C645.158 258.381 642.952 256.175 640.231 256.175H594.943C592.222 256.175 590.016 258.381 590.016 261.102V310.234C590.016 312.955 592.222 315.161 594.943 315.161H640.231C642.952 315.161 645.158 312.955 645.158 310.234Z" fill="white"/>
<path d="M581.382 334V296.353C581.382 294.264 579.688 292.57 577.599 292.57H542.897C540.807 292.57 539.114 294.264 539.114 296.353V334C539.114 336.089 540.807 337.782 542.897 337.782H577.599C579.688 337.782 581.382 336.089 581.382 334Z" fill="#5B1DAE"/>
<path opacity="0.3" d="M581.382 334V296.353C581.382 294.264 579.688 292.57 577.599 292.57H542.897C540.807 292.57 539.114 294.264 539.114 296.353V334C539.114 336.089 540.807 337.782 542.897 337.782H577.599C579.688 337.782 581.382 336.089 581.382 334Z" fill="white"/>
<path d="M560.24 95.3083V74.975C560.24 68.7578 555.2 63.7178 548.983 63.7178L176.593 63.7178C170.376 63.7178 165.336 68.7578 165.336 74.975V95.3083C165.336 101.526 170.376 106.566 176.593 106.566L548.983 106.566C555.2 106.566 560.24 101.526 560.24 95.3083Z" fill="#5B1DAE"/>
<path opacity="0.5" d="M560.24 95.3083V74.975C560.24 68.7578 555.2 63.7178 548.983 63.7178L176.593 63.7178C170.376 63.7178 165.336 68.7578 165.336 74.975V95.3083C165.336 101.526 170.376 106.566 176.593 106.566L548.983 106.566C555.2 106.566 560.24 101.526 560.24 95.3083Z" fill="white"/>
<path d="M489.783 113.735V98.9844H382.626V113.735H489.783Z" fill="#5B1DAE"/>
<path opacity="0.5" d="M489.783 113.735V98.9844H382.626V113.735H489.783Z" fill="white"/>
<path d="M598.664 32.0056V11.6723C598.664 5.4551 593.624 0.415039 587.407 0.415039L215.017 0.415039C208.8 0.415039 203.76 5.4551 203.76 11.6723V32.0056C203.76 38.2228 208.8 43.2628 215.017 43.2628L587.407 43.2628C593.624 43.2628 598.664 38.2228 598.664 32.0056Z" fill="#E3B134"/>
<path d="M199.504 225.729C198.162 228.779 196.682 232.074 195.385 235.293C194.089 238.511 192.747 241.821 191.572 245.116C189.162 251.539 187.23 258.132 185.791 264.839L185.348 267.28L185.196 268.195C185.196 268.454 185.196 268.79 185.104 269.095C185.046 270.58 185.077 272.068 185.196 273.549C185.486 276.768 186.004 280.215 186.721 283.662C188.003 290.572 189.635 297.696 191.297 304.713L183.472 307.763C179.825 301.114 176.718 294.182 174.183 287.034C172.847 283.313 171.767 279.506 170.949 275.639C170.491 273.499 170.205 271.326 170.095 269.141C170.095 268.531 170.095 267.951 170.095 267.295C170.095 266.639 170.095 265.907 170.202 265.48L170.507 262.429C170.962 258.5 171.66 254.603 172.596 250.76C173.451 246.947 174.549 243.24 175.647 239.579C176.745 235.918 178.118 232.318 179.567 228.779C180.284 227.01 181.093 225.256 181.794 223.502C182.496 221.747 183.32 220.07 184.296 218.193L199.504 225.729Z" fill="#E4897B"/>
<path d="M190.886 302.653L196.835 308.465L183.854 314.566C183.854 314.566 180.711 309.06 182.893 304.087L190.886 302.653Z" fill="#E4897B"/>
<path d="M201.64 317.114L190.672 321.598L183.869 314.505L196.835 308.465L201.64 317.114Z" fill="#E4897B"/>
<path opacity="0.4" d="M423.811 310.86C402.228 308.437 381.849 299.669 365.248 285.665C348.648 271.661 336.572 253.049 330.548 232.183C324.524 211.317 324.821 189.134 331.403 168.437C337.984 147.74 350.554 129.459 367.524 115.905C384.494 102.351 405.101 94.1321 426.741 92.2882C448.381 90.4443 470.081 95.0577 489.1 105.545C508.118 116.033 523.6 131.924 533.588 151.209C543.576 170.494 547.623 192.307 545.216 213.892C543.616 228.232 539.207 242.117 532.239 254.753C525.271 267.389 515.881 278.528 504.607 287.533C493.332 296.538 480.393 303.233 466.53 307.236C452.667 311.238 438.15 312.47 423.811 310.86Z" fill="#FAFAFA"/>
<path opacity="0.4" d="M503.71 115.185L336.681 248.64C335.979 247.115 335.293 245.589 334.652 244.064C330.465 234.104 327.786 223.575 326.705 212.824L470.975 97.5518C482.82 101.503 493.894 107.468 503.71 115.185Z" fill="#FAFAFA"/>
<path opacity="0.4" d="M542.256 173.653L385.219 299.115C370.3 291.338 357.372 280.231 347.436 266.655L518.903 129.646C529.956 142.332 537.946 157.388 542.256 173.653Z" fill="#FAFAFA"/>
<path d="M312.428 159.741L310.979 159.253C313.488 151.847 316.643 144.676 320.405 137.822L321.732 138.554C318.019 145.332 314.906 152.421 312.428 159.741ZM330.946 124.139L329.71 123.239C342.246 106.289 358.652 92.5811 377.561 83.2589L378.248 84.6317C359.553 93.8577 343.335 107.419 330.946 124.185V124.139ZM498.112 86.7215C493.127 84.0479 487.97 81.7089 482.675 79.72L483.224 78.2861C488.571 80.3217 493.779 82.7064 498.813 85.4249L498.112 86.7215Z" fill="#E3B134"/>
<path opacity="0.3" d="M312.428 159.741L310.979 159.253C313.488 151.847 316.643 144.676 320.405 137.822L321.732 138.554C318.019 145.332 314.906 152.421 312.428 159.741ZM330.946 124.139L329.71 123.239C342.246 106.289 358.652 92.5811 377.561 83.2589L378.248 84.6317C359.553 93.8577 343.335 107.419 330.946 124.185V124.139ZM498.112 86.7215C493.127 84.0479 487.97 81.7089 482.675 79.72L483.224 78.2861C488.571 80.3217 493.779 82.7064 498.813 85.4249L498.112 86.7215Z" fill="black" fill-opacity="0.5"/>
<path d="M549.593 145.616C535.468 116.322 510.612 93.586 480.178 82.1223C449.744 70.6587 416.065 71.3463 386.124 84.0425C356.183 96.7388 332.276 120.47 319.359 150.316C306.442 180.163 305.506 213.835 316.744 244.353C306.555 247.923 296.487 251.752 286.481 255.702C272.051 261.428 257.753 267.407 243.587 273.641C229.432 279.91 215.337 286.301 201.38 292.982C194.379 296.262 187.469 299.725 180.498 303.08C176.871 304.639 173.586 306.893 170.827 309.716C169.334 311.279 168.019 313.003 166.907 314.856C165.549 317.048 164.521 319.428 163.856 321.919C162.708 326.408 163.204 331.159 165.255 335.314C167.306 339.468 170.776 342.752 175.037 344.571C177.403 345.563 179.9 346.21 182.45 346.493C184.604 346.737 186.779 346.737 188.933 346.493C192.847 346.017 196.631 344.779 200.068 342.847C206.978 339.354 213.934 335.983 220.798 332.398C234.526 325.397 248.255 318.09 261.815 310.677C275.376 303.263 288.952 295.499 302.192 287.537C311.344 282 320.588 276.341 329.649 270.422C347.048 297.889 374.347 317.609 405.889 325.497C437.432 333.384 470.8 328.834 499.079 312.789C527.358 296.745 548.381 270.435 557.791 239.313C567.2 208.19 564.276 174.641 549.623 145.616H549.593ZM480.249 291.335C462.522 300.085 442.599 303.382 422.998 300.81C403.397 298.237 385 289.91 370.131 276.882C355.263 263.854 344.591 246.709 339.466 227.617C334.341 208.524 334.992 188.34 341.338 169.617C347.683 150.894 359.438 134.474 375.115 122.431C390.793 110.389 409.689 103.265 429.415 101.961C449.14 100.658 468.81 105.233 485.936 115.107C503.061 124.982 516.875 139.713 525.629 157.438C531.443 169.209 534.881 182.01 535.746 195.11C536.612 208.21 534.889 221.352 530.675 233.786C526.461 246.22 519.839 257.702 511.186 267.577C502.534 277.451 492.022 285.524 480.249 291.335Z" fill="#E3B134"/>
<path opacity="0.3" d="M549.593 145.616C535.468 116.322 510.612 93.586 480.178 82.1223C449.744 70.6587 416.065 71.3463 386.124 84.0425C356.183 96.7388 332.276 120.47 319.359 150.316C306.442 180.163 305.506 213.835 316.744 244.353C306.555 247.923 296.487 251.752 286.481 255.702C272.051 261.428 257.753 267.407 243.587 273.641C229.432 279.91 215.337 286.301 201.38 292.982C194.379 296.262 187.469 299.725 180.498 303.08C176.871 304.639 173.586 306.893 170.827 309.716C169.334 311.279 168.019 313.003 166.907 314.856C165.549 317.048 164.521 319.428 163.856 321.919C162.708 326.408 163.204 331.159 165.255 335.314C167.306 339.468 170.776 342.752 175.037 344.571C177.403 345.563 179.9 346.21 182.45 346.493C184.604 346.737 186.779 346.737 188.933 346.493C192.847 346.017 196.631 344.779 200.068 342.847C206.978 339.354 213.934 335.983 220.798 332.398C234.526 325.397 248.255 318.09 261.815 310.677C275.376 303.263 288.952 295.499 302.192 287.537C311.344 282 320.588 276.341 329.649 270.422C347.048 297.889 374.347 317.609 405.889 325.497C437.432 333.384 470.8 328.834 499.079 312.789C527.358 296.745 548.381 270.435 557.791 239.313C567.2 208.19 564.276 174.641 549.623 145.616H549.593ZM480.249 291.335C462.522 300.085 442.599 303.382 422.998 300.81C403.397 298.237 385 289.91 370.131 276.882C355.263 263.854 344.591 246.709 339.466 227.617C334.341 208.524 334.992 188.34 341.338 169.617C347.683 150.894 359.438 134.474 375.115 122.431C390.793 110.389 409.689 103.265 429.415 101.961C449.14 100.658 468.81 105.233 485.936 115.107C503.061 124.982 516.875 139.713 525.629 157.438C531.443 169.209 534.881 182.01 535.746 195.11C536.612 208.21 534.889 221.352 530.675 233.786C526.461 246.22 519.839 257.702 511.186 267.577C502.534 277.451 492.022 285.524 480.249 291.335Z" fill="black" fill-opacity="0.4"/>
<path d="M241.666 171.257C241.666 172.157 242.139 172.889 242.734 172.889C243.329 172.889 243.802 172.157 243.802 171.257C243.802 170.357 243.329 169.625 242.734 169.625C242.139 169.625 241.666 170.418 241.666 171.257Z" fill="#263238"/>
<path d="M242.093 172.89C243.172 175.652 244.625 178.254 246.41 180.623C245.793 181.065 245.086 181.366 244.341 181.505C243.595 181.645 242.828 181.62 242.093 181.432V172.89Z" fill="#DE5753"/>
<path d="M238.508 166.239C238.423 166.239 238.339 166.22 238.262 166.183C238.185 166.146 238.118 166.092 238.065 166.026C237.986 165.909 237.954 165.767 237.977 165.627C238 165.488 238.075 165.363 238.187 165.278C238.859 164.769 239.644 164.429 240.475 164.288C241.307 164.148 242.16 164.21 242.962 164.47C243.034 164.489 243.101 164.524 243.159 164.571C243.217 164.618 243.264 164.677 243.298 164.744C243.331 164.81 243.351 164.883 243.355 164.958C243.358 165.032 243.347 165.107 243.32 165.176C243.293 165.246 243.252 165.309 243.199 165.362C243.146 165.415 243.083 165.456 243.013 165.483C242.944 165.51 242.869 165.522 242.795 165.518C242.72 165.514 242.647 165.495 242.58 165.461C241.943 165.266 241.269 165.226 240.613 165.346C239.957 165.465 239.34 165.74 238.813 166.148C238.722 166.208 238.616 166.239 238.508 166.239Z" fill="#263238"/>
<path d="M210.853 178.045C212.379 186.236 214.057 201.261 208.321 206.737C208.321 206.737 210.564 215.051 225.802 215.051C242.581 215.051 233.795 206.737 233.795 206.737C224.643 204.541 224.902 197.768 226.489 191.392L210.853 178.045Z" fill="#E4897B"/>
<path d="M201.472 211.055C203.287 208.233 200.236 201.384 200.236 201.384C200.236 201.384 227.205 194.596 238.233 205.014C240.521 207.165 237.989 210.338 237.989 210.338L201.472 211.055Z" fill="#5B1DAE"/>
<path opacity="0.1" d="M201.472 211.055C203.287 208.233 200.236 201.384 200.236 201.384C200.236 201.384 227.205 194.596 238.233 205.014C240.521 207.165 237.989 210.338 237.989 210.338L201.472 211.055Z" fill="#5B1DAE"/>
<path d="M156.855 522.277C155.436 522.277 153.164 519.912 152.493 519.028C152.464 518.985 152.448 518.934 152.448 518.883C152.448 518.831 152.464 518.781 152.493 518.738C152.517 518.695 152.553 518.66 152.596 518.636C152.639 518.612 152.687 518.6 152.737 518.601C152.904 518.601 156.642 518.936 157.664 520.263C157.775 520.403 157.854 520.566 157.896 520.74C157.938 520.914 157.942 521.095 157.908 521.27C157.894 521.497 157.811 521.714 157.669 521.892C157.527 522.07 157.333 522.199 157.114 522.262L156.855 522.277ZM153.316 519.226C154.43 520.507 156.214 521.956 156.977 521.773C156.977 521.773 157.282 521.697 157.374 521.209C157.394 521.107 157.39 521.002 157.364 520.902C157.338 520.801 157.289 520.708 157.221 520.629C156.091 519.774 154.732 519.274 153.316 519.196V519.226Z" fill="#407BFF"/>
<path d="M153.484 519.195C153.21 519.223 152.934 519.223 152.66 519.195C152.612 519.192 152.566 519.174 152.528 519.144C152.49 519.114 152.462 519.073 152.447 519.027C152.425 518.985 152.414 518.938 152.414 518.89C152.414 518.842 152.425 518.795 152.447 518.753C152.553 518.661 154.796 516.328 156.489 516.328C156.692 516.323 156.893 516.361 157.08 516.44C157.266 516.519 157.434 516.637 157.572 516.785C157.724 516.912 157.828 517.087 157.867 517.281C157.905 517.476 157.877 517.677 157.786 517.853C157.343 518.707 155.009 519.195 153.484 519.195ZM153.286 518.661C154.811 518.661 157.023 518.188 157.389 517.517C157.389 517.517 157.496 517.319 157.252 517.075C157.163 516.978 157.054 516.903 156.933 516.852C156.812 516.802 156.681 516.779 156.55 516.785C155.3 517.072 154.163 517.725 153.286 518.661Z" fill="#407BFF"/>
<path d="M257.514 556.903C256.358 556.895 255.205 556.788 254.067 556.582C254.011 556.572 253.96 556.541 253.923 556.497C253.887 556.452 253.868 556.396 253.869 556.338C253.86 556.286 253.867 556.232 253.889 556.183C253.911 556.134 253.946 556.093 253.991 556.064C254.159 555.972 258.064 553.73 259.94 554.249C260.114 554.288 260.278 554.362 260.422 554.467C260.566 554.572 260.688 554.705 260.779 554.859C260.898 555.028 260.962 555.231 260.962 555.438C260.962 555.646 260.898 555.848 260.779 556.018C260.336 556.705 258.948 556.903 257.514 556.903ZM254.937 556.186C257.011 556.491 259.848 556.476 260.367 555.743C260.443 555.652 260.504 555.484 260.367 555.164C260.25 554.974 260.064 554.837 259.848 554.783C258.658 554.477 256.294 555.484 254.937 556.186Z" fill="#407BFF"/>
<path d="M254.128 556.598C254.078 556.612 254.025 556.612 253.975 556.598C253.933 556.571 253.9 556.531 253.881 556.485C253.862 556.439 253.857 556.387 253.868 556.338C253.972 554.751 254.581 553.238 255.607 552.022C255.815 551.843 256.058 551.71 256.322 551.634C256.585 551.558 256.861 551.539 257.133 551.579C257.865 551.579 258.078 552.022 258.124 552.311C258.322 553.577 255.653 556.003 254.295 556.613L254.128 556.598ZM256.858 552.022C256.522 552.019 256.197 552.138 255.943 552.357C255.08 553.321 254.546 554.533 254.417 555.82C255.79 554.981 257.621 553.089 257.468 552.327C257.468 552.327 257.468 552.067 256.95 552.022H256.858Z" fill="#407BFF"/>
<path d="M241.803 556.324H253.014L254.128 530.377H242.916L241.803 556.324Z" fill="#E4897B"/>
<path d="M141.967 511.783L151.333 517.915L172.017 500.449L162.636 494.302L141.967 511.783Z" fill="#E4897B"/>
<path d="M152.873 517.335L143.142 509.357C142.97 509.216 142.754 509.139 142.531 509.139C142.309 509.139 142.093 509.216 141.921 509.357L133.898 515.657C133.704 515.811 133.547 516.007 133.44 516.23C133.332 516.454 133.276 516.698 133.276 516.946C133.276 517.194 133.332 517.438 133.44 517.661C133.547 517.885 133.704 518.081 133.898 518.235C137.345 520.965 139.16 522.125 143.447 525.633C146.086 527.784 152.599 534.373 156.275 537.348C159.951 540.322 163.322 537.119 162.102 535.578C156.626 528.638 154.475 522.704 153.85 519.028C153.742 518.364 153.394 517.761 152.873 517.335Z" fill="#263238"/>
<path d="M252.938 555.026H240.735C240.512 555.027 240.297 555.103 240.122 555.241C239.948 555.38 239.825 555.573 239.774 555.789L237.562 565.75C237.507 565.991 237.507 566.242 237.562 566.483C237.618 566.725 237.728 566.95 237.884 567.143C238.04 567.335 238.237 567.49 238.462 567.595C238.686 567.7 238.931 567.752 239.179 567.748C243.587 567.672 249.963 567.412 255.516 567.412C261.999 567.412 267.612 567.763 275.208 567.763C279.785 567.763 281.096 563.111 279.159 562.699C270.403 560.777 263.234 560.579 255.668 555.896C254.856 555.358 253.911 555.057 252.938 555.026Z" fill="#263238"/>
<path d="M186.233 210.078C176.517 214.655 170.979 245.315 170.979 245.315L194.73 254.787C198.206 246.299 201.016 237.552 203.134 228.627C206.399 214.502 196.179 205.35 186.233 210.078Z" fill="#263238"/>
<path d="M198.833 227.361C192.961 233.31 190.276 244.963 189.102 252.545L194.791 254.817C198.169 246.57 200.922 238.08 203.028 229.42C202.525 226.186 201.274 224.89 198.833 227.361Z" fill="#203048"/>
<path d="M251.032 209.865C251.032 209.865 262.96 223.349 251.703 306.726H191.771C191.359 297.574 197.14 252.652 188.263 209.301C194.886 208.016 201.587 207.17 208.321 206.768C216.805 206.265 225.311 206.265 233.795 206.768C239.612 207.354 245.375 208.389 251.032 209.865Z" fill="#263238"/>
<path d="M256.507 242.234L246.409 224.829C244.46 232.95 243.664 241.304 244.045 249.647C244.319 255.626 249.795 277.775 254.722 281.009C256.03 268.126 256.626 255.182 256.507 242.234Z" fill="#203048"/>
<path d="M257.911 221.778C259.436 229.192 260.962 236.788 262.594 244.232C264.226 251.676 265.919 259.15 267.887 266.365C268.39 268.15 268.863 269.98 269.412 271.689L269.824 273L270.022 273.656V273.58C269.916 273.443 269.794 273.428 269.885 273.58C270.512 274.265 271.314 274.766 272.204 275.029C273.646 275.566 275.131 275.979 276.643 276.265C283.854 277.408 291.156 277.883 298.455 277.683L299.905 285.981C297.861 286.637 295.954 287.11 293.94 287.583C291.927 288.056 289.944 288.452 287.915 288.758C283.718 289.456 279.462 289.742 275.209 289.612C272.845 289.548 270.493 289.241 268.192 288.697C265.266 288.056 262.516 286.781 260.138 284.959C258.585 283.705 257.303 282.148 256.37 280.383C256.126 279.926 255.913 279.407 255.714 278.965L255.44 278.248L254.876 276.722C254.098 274.785 253.457 272.878 252.755 270.972C250.177 263.345 248.027 255.642 246.135 247.954C244.244 240.266 242.611 232.593 241.254 224.707L257.911 221.778Z" fill="#E4897B"/>
<path d="M236.067 218.04C232.91 228.276 245.708 258.798 245.708 258.798L271.197 252.392C271.197 252.392 270.221 236.528 264.409 223.943C255.653 204.968 239.85 205.761 236.067 218.04Z" fill="#263238"/>
<path d="M298.241 277.683L310.933 277.362L304.831 290.572C304.831 290.572 299.66 291.258 295.42 284.287L290.95 278.949L296.091 277.927C296.798 277.778 297.518 277.696 298.241 277.683Z" fill="#E4897B"/>
<path d="M318.941 279.818L311.68 290.77L304.831 290.572L310.933 277.362L318.941 279.818Z" fill="#E4897B"/>
<path d="M254.128 530.377L253.548 543.754H242.337L242.917 530.377H254.128Z" fill="#CE6F64"/>
<path d="M162.636 494.302L172.017 500.449L161.339 509.449L151.974 503.317L162.636 494.302Z" fill="#CE6F64"/>
<path d="M211.555 169.32C212.226 180.41 212.058 186.954 217.656 192.643C226.076 201.231 239.789 196.152 242.443 185.017C244.838 175.041 243.343 158.567 232.483 154.143C230.086 153.176 227.483 152.833 224.918 153.147C222.353 153.462 219.91 154.422 217.818 155.94C215.726 157.457 214.054 159.481 212.958 161.821C211.863 164.162 211.38 166.742 211.555 169.32Z" fill="#E4897B"/>
<path d="M198.497 167.368C201.258 177.481 207.756 189.135 216.161 189.882C226.595 190.797 231.308 180.013 232.681 168.878C238.935 164.591 235.655 159.878 241.925 159.283C249.979 158.52 247.401 143.785 236.799 141.421C236.799 141.421 240.353 148.056 232.894 144.7C225.801 141.329 217.92 139.963 210.105 140.75C210.105 140.75 219.624 145.509 210.319 147.629C201.014 149.749 198.238 155.485 202.524 158.947C202.524 158.963 196.682 160.717 198.497 167.368Z" fill="#263238"/>
<path d="M226.32 171.166C226.525 173.923 227.635 176.534 229.478 178.595C231.918 181.295 234.466 179.617 234.893 176.337C235.289 173.393 234.481 168.436 231.491 166.941C228.501 165.446 226.122 167.841 226.32 171.166Z" fill="#E4897B"/>
<path d="M230.438 306.726C230.438 306.726 241.36 385.817 232.757 417.514C219.12 467.699 166.983 510.059 166.983 510.059L149.304 498.466C149.304 498.466 193.707 462.696 199.138 420.672C204.019 382.949 191.77 337.325 191.77 306.711L230.438 306.726Z" fill="#5B1DAE"/>
<path opacity="0.1" d="M230.438 306.726C230.438 306.726 241.36 385.817 232.757 417.514C219.12 467.699 166.983 510.059 166.983 510.059L149.304 498.466C149.304 498.466 193.707 462.696 199.138 420.672C204.019 382.949 191.77 337.325 191.77 306.711L230.438 306.726Z" fill="black"/>
<path d="M234.954 351.938C232.046 348.607 228.845 345.544 225.39 342.786C227.251 368.458 228.776 406.486 227.083 433.5C229.359 428.321 231.256 422.984 232.757 417.53C236.952 402.047 236.51 375.307 234.954 351.938Z" fill="#5B1DAE"/>
<path opacity="0.3" d="M234.954 351.938C232.046 348.607 228.845 345.544 225.39 342.786C227.251 368.458 228.776 406.486 227.083 433.5C229.359 428.321 231.256 422.984 232.757 417.53C236.952 402.047 236.51 375.307 234.954 351.938Z" fill="black"/>
<path d="M174.106 506.108C174.183 506.108 167.258 510.684 167.258 510.684L147.946 498.024L154.048 492.975L174.106 506.108Z" fill="#5B1DAE"/>
<path opacity="0.3" d="M174.106 506.108C174.183 506.108 167.258 510.684 167.258 510.684L147.946 498.024L154.048 492.975L174.106 506.108Z" fill="black"/>
<path d="M251.702 306.726C251.702 306.726 268.573 378.266 269.763 412.449C271.105 450.767 257.727 541.16 257.727 541.16H238.737C238.737 541.16 236.403 450.065 235.564 415.165C234.633 377.106 212.302 306.726 212.302 306.726H251.702Z" fill="#5B1DAE"/>
<path opacity="0.1" d="M251.702 306.726C251.702 306.726 268.573 378.266 269.763 412.449C271.105 450.767 257.727 541.16 257.727 541.16H238.737C238.737 541.16 236.403 450.065 235.564 415.165C234.633 377.106 212.302 306.726 212.302 306.726H251.702Z" fill="black"/>
<path d="M261.373 533.61C261.465 533.61 260.306 541.481 260.306 541.481H237.211L236.586 534.449L261.373 533.61Z" fill="#5B1DAE"/>
<path opacity="0.3" d="M261.373 533.61C261.465 533.61 260.306 541.481 260.306 541.481H237.211L236.586 534.449L261.373 533.61Z" fill="black"/>
<path d="M543.69 237.978C544.987 239.198 546.009 240.235 547.077 241.394C548.144 242.554 549.151 243.682 550.127 244.857C552.11 247.191 553.971 249.647 555.771 252.118C559.366 257.075 562.564 262.308 565.335 267.768L565.9 268.882C566.175 269.421 566.405 269.982 566.586 270.56C566.955 271.676 567.18 272.834 567.257 274.007C567.356 276.075 567.072 278.144 566.418 280.108C565.304 283.372 563.649 286.424 561.522 289.139C557.689 294.061 553.168 298.407 548.099 302.043L544.3 297.681C546.085 295.591 547.946 293.349 549.609 291.106C551.301 288.934 552.83 286.639 554.185 284.242C555.45 282.15 556.387 279.876 556.961 277.5C557.158 276.65 557.194 275.77 557.068 274.907C557.013 274.616 556.921 274.334 556.793 274.068C556.736 273.951 556.67 273.839 556.595 273.732L556.107 272.909C553.165 268.112 549.972 263.473 546.543 259.012C544.849 256.77 543.034 254.619 541.204 252.499C540.304 251.431 539.373 250.394 538.443 249.357C537.512 248.32 536.506 247.282 535.697 246.474L543.69 237.978Z" fill="#E4897B"/>
<path d="M545.765 296.399L534.37 294.538L540.334 304.514C540.334 304.514 547.671 304.255 549.761 299.938L545.765 296.399Z" fill="#E4897B"/>
<path d="M525.95 299.145L531.381 307.244L540.334 304.514L534.37 294.538L525.95 299.145Z" fill="#E4897B"/>
<path d="M545.215 556.765C544.441 556.832 543.668 556.621 543.034 556.17C542.843 555.99 542.702 555.763 542.624 555.511C542.547 555.26 542.536 554.993 542.592 554.736C542.603 554.573 542.658 554.415 542.752 554.281C542.846 554.146 542.976 554.04 543.126 553.974C544.453 553.379 547.931 555.606 548.327 555.865C548.372 555.893 548.407 555.935 548.427 555.984C548.446 556.034 548.448 556.088 548.434 556.14C548.428 556.192 548.406 556.241 548.37 556.279C548.334 556.318 548.287 556.344 548.236 556.353C547.248 556.604 546.234 556.742 545.215 556.765ZM543.69 554.401C543.579 554.384 543.466 554.384 543.354 554.401C543.287 554.432 543.23 554.481 543.19 554.543C543.149 554.605 543.127 554.678 543.126 554.752C543.085 554.922 543.089 555.1 543.137 555.268C543.185 555.436 543.276 555.589 543.4 555.713C543.98 556.231 545.475 556.307 547.473 555.911C546.328 555.155 545.041 554.641 543.69 554.401Z" fill="#5B1DAE"/>
<path d="M548.266 556.338H548.129C547.046 555.713 544.956 553.287 545.215 551.96C545.265 551.751 545.381 551.564 545.546 551.426C545.711 551.289 545.916 551.208 546.131 551.198C546.337 551.168 546.547 551.185 546.745 551.249C546.943 551.312 547.124 551.42 547.275 551.564C548.526 552.662 548.541 555.957 548.541 556.14C548.538 556.186 548.524 556.231 548.5 556.271C548.476 556.311 548.443 556.344 548.403 556.369L548.266 556.338ZM546.314 551.762H546.192C545.856 551.762 545.78 551.945 545.749 552.082C545.597 552.86 546.893 554.721 547.976 555.591C548.003 554.311 547.636 553.054 546.924 551.991C546.833 551.906 546.724 551.841 546.606 551.802C546.487 551.762 546.362 551.749 546.237 551.762H546.314Z" fill="#5B1DAE"/>
<path d="M493.231 556.765C492.257 556.858 491.281 556.61 490.47 556.063C490.287 555.901 490.146 555.697 490.058 555.469C489.971 555.241 489.939 554.994 489.967 554.751C489.977 554.603 490.024 554.46 490.104 554.334C490.184 554.209 490.294 554.106 490.424 554.035C491.843 553.241 496.388 555.56 496.907 555.85C496.955 555.881 496.993 555.924 497.017 555.975C497.041 556.026 497.051 556.083 497.044 556.14C497.036 556.193 497.01 556.242 496.972 556.281C496.934 556.319 496.884 556.344 496.831 556.353C495.647 556.605 494.441 556.743 493.231 556.765ZM491.202 554.401C491.028 554.389 490.854 554.426 490.699 554.507C490.644 554.533 490.598 554.574 490.565 554.626C490.533 554.677 490.516 554.737 490.516 554.797C490.492 554.956 490.508 555.118 490.561 555.27C490.614 555.421 490.703 555.557 490.821 555.667C491.523 556.292 493.399 556.399 495.931 555.972C494.454 555.185 492.856 554.654 491.202 554.401Z" fill="#5B1DAE"/>
<path d="M496.785 556.339H496.663C495.305 555.728 492.605 553.288 492.819 551.961C492.819 551.656 493.093 551.274 493.841 551.198C494.114 551.169 494.39 551.195 494.652 551.277C494.915 551.358 495.157 551.492 495.366 551.671C496.8 552.861 497.074 555.942 497.074 556.079C497.08 556.126 497.074 556.173 497.055 556.216C497.036 556.259 497.006 556.296 496.968 556.323C496.91 556.348 496.846 556.353 496.785 556.339ZM494.054 551.762H493.886C493.398 551.762 493.368 552.007 493.352 552.068C493.23 552.845 495.061 554.783 496.403 555.622C496.271 554.318 495.738 553.087 494.878 552.098C494.646 551.901 494.358 551.783 494.054 551.762Z" fill="#5B1DAE"/>
<path d="M514.815 202.909C514.373 209.804 513.183 223.807 518.476 227.681C518.476 227.681 517.515 234.744 505.022 236.391C491.294 238.176 497.563 230.427 497.563 230.427C504.839 227.651 503.909 222.114 501.926 217.049L514.815 202.909Z" fill="#E4897B"/>
<path d="M486.397 190.721C486.321 190.721 486.247 190.705 486.178 190.673C486.11 190.642 486.049 190.595 486 190.538C485.564 190.021 485.012 189.613 484.39 189.348C483.767 189.083 483.091 188.968 482.415 189.013C482.344 189.026 482.271 189.024 482.2 189.008C482.13 188.991 482.063 188.961 482.004 188.918C481.946 188.875 481.897 188.821 481.86 188.759C481.823 188.696 481.799 188.627 481.79 188.555C481.773 188.411 481.813 188.267 481.901 188.153C481.99 188.039 482.12 187.964 482.263 187.945C483.124 187.872 483.99 188.009 484.787 188.343C485.584 188.678 486.288 189.201 486.839 189.867C486.905 189.946 486.947 190.043 486.961 190.145C486.975 190.248 486.959 190.352 486.916 190.446C486.873 190.54 486.804 190.62 486.718 190.677C486.631 190.734 486.531 190.765 486.427 190.767L486.397 190.721Z" fill="#263238"/>
<path d="M484.018 197.479C483.476 199.666 482.64 201.77 481.531 203.733C482.04 204.007 482.604 204.165 483.181 204.197C483.758 204.228 484.336 204.132 484.872 203.916L484.018 197.479Z" fill="#DE5753"/>
<path d="M484.627 195.801C484.749 196.716 484.368 197.509 483.773 197.601C483.178 197.692 482.583 196.991 482.476 196.075C482.37 195.16 482.736 194.367 483.331 194.291C483.926 194.214 484.52 194.824 484.627 195.801Z" fill="#263238"/>
<path d="M483.606 194.306L481.333 193.955C481.333 193.955 482.675 195.526 483.606 194.306Z" fill="#263238"/>
<path d="M509.354 556.094H497.914L497.151 529.629H508.592L509.354 556.094Z" fill="#E4897B"/>
<path d="M561.293 556.094H549.853L546.177 529.629H557.617L561.293 556.094Z" fill="#E4897B"/>
<path d="M549.151 554.813H561.994C562.213 554.811 562.425 554.888 562.591 555.032C562.757 555.175 562.865 555.374 562.894 555.59L564.42 565.765C564.448 566.021 564.421 566.281 564.342 566.526C564.262 566.772 564.132 566.998 563.959 567.189C563.786 567.381 563.575 567.534 563.339 567.638C563.103 567.742 562.847 567.795 562.589 567.793C558.12 567.717 555.954 567.458 550.31 567.458C546.832 567.458 541.753 567.809 536.963 567.809C532.173 567.809 531.914 563.065 533.912 562.638C542.866 560.716 544.285 558.062 547.29 555.514C547.814 555.079 548.469 554.832 549.151 554.813Z" fill="#263238"/>
<path d="M497.533 554.813H510.361C510.582 554.81 510.796 554.887 510.964 555.03C511.132 555.173 511.243 555.372 511.276 555.591L512.802 565.765C512.83 566.021 512.803 566.281 512.724 566.526C512.644 566.772 512.514 566.998 512.341 567.189C512.168 567.381 511.957 567.534 511.721 567.638C511.485 567.742 511.229 567.795 510.971 567.794C506.502 567.717 504.336 567.458 498.692 567.458C495.214 567.458 488.014 567.809 483.225 567.809C478.435 567.809 478.176 563.065 480.174 562.638C489.128 560.716 492.651 558.062 495.672 555.514C496.196 555.079 496.851 554.832 497.533 554.813Z" fill="#263238"/>
<path d="M497.151 529.629L497.548 543.281H508.988L508.592 529.629H497.151Z" fill="#CE6F64"/>
<path d="M557.617 529.629H546.177L548.083 543.281H559.509L557.617 529.629Z" fill="#CE6F64"/>
<path d="M514.967 188.631C515.745 199.949 516.309 204.724 511.398 211.237C504 221.015 489.936 219.505 485.787 208.644C482.049 198.866 481.409 182.011 491.812 176.093C494.1 174.781 496.686 174.076 499.324 174.044C501.961 174.012 504.563 174.655 506.883 175.911C509.202 177.167 511.162 178.995 512.577 181.221C513.992 183.447 514.815 185.998 514.967 188.631Z" fill="#E4897B"/>
<path d="M521.557 199.141C527.903 202.68 532.616 193.955 532.616 193.955C532.616 193.955 521.237 195.19 522.259 188.418C523.601 179.433 517.164 168.512 501.026 169.915C500.126 169.991 499.272 170.098 498.433 170.235C496.743 169.434 494.833 169.228 493.011 169.648C491.189 170.069 489.563 171.093 488.396 172.554C483.82 172.935 477.642 178.396 481.837 185.611C482.131 184.782 482.587 184.02 483.179 183.369C483.53 187.594 487.221 194.306 491.828 194.748C492.819 200.529 488.975 207.226 490.302 213.266C492.27 221.976 506.96 223.944 506.96 223.944C506.453 222.856 506.264 221.647 506.416 220.457C506.567 219.267 507.051 218.143 507.814 217.217C517.79 221.793 524.364 217.324 524.364 217.324C517.561 214.791 519.62 210.276 519.62 210.276C521.969 211.319 524.631 211.411 527.046 210.532C529.461 209.653 531.442 207.872 532.571 205.563C530.311 205.67 528.068 205.121 526.114 203.981C524.16 202.842 522.577 201.161 521.557 199.141Z" fill="#263238"/>
<path d="M495.809 196.487C495.836 197.573 495.647 198.654 495.255 199.667C494.862 200.68 494.273 201.606 493.521 202.39C491.507 204.48 489.036 203.016 488.365 200.346C487.77 197.936 488.106 193.955 490.729 192.857C491.307 192.63 491.932 192.551 492.547 192.627C493.163 192.703 493.75 192.932 494.255 193.293C494.759 193.653 495.166 194.134 495.437 194.692C495.709 195.25 495.836 195.867 495.809 196.487Z" fill="#E4897B"/>
<path d="M505.312 301.936C505.312 301.936 508.21 377.228 515.104 421.434C520.657 457.158 545.322 540.626 545.322 540.626H560.911C560.911 540.626 548.053 460.01 545.231 424.698C538.092 335.326 556.625 316.137 539.129 297.527L505.312 301.936Z" fill="#263238"/>
<path d="M518.339 325.748C518.339 325.748 511.291 324.527 507.173 337.951C508.698 363.379 511.307 397.12 515.105 421.434C515.944 426.85 517.225 433.378 518.796 440.532C515.822 397.578 518.339 325.748 518.339 325.748Z" fill="#161F33"/>
<path d="M493.155 303.522C493.155 303.522 480.311 386.823 481.059 421.678C481.837 457.936 495.123 540.657 495.123 540.657H510.575C510.575 540.657 508.134 460.087 509.492 424.485C511.017 385.664 526.866 299.145 526.866 299.145L493.155 303.522Z" fill="#263238"/>
<path d="M563.169 541.359H542.439L540.822 534.403L563.017 534.556L563.169 541.359Z" fill="#5B1DAE"/>
<path opacity="0.2" d="M563.169 541.359H542.439L540.822 534.403L563.017 534.556L563.169 541.359Z" fill="black"/>
<path d="M538.351 227.697C544.315 228.276 553.376 245.223 553.376 245.223L538.321 256.77C538.321 256.77 525.858 245.833 527.338 239.686C528.878 233.295 532.631 227.163 538.351 227.697Z" fill="#5B1DAE"/>
<path opacity="0.1" d="M538.351 227.697C544.315 228.276 553.376 245.223 553.376 245.223L538.321 256.77C538.321 256.77 525.858 245.833 527.338 239.686C528.878 233.295 532.631 227.163 538.351 227.697Z" fill="black"/>
<path d="M533.851 234.987C532.331 234.578 530.757 234.403 529.184 234.469C528.383 236.136 527.764 237.885 527.338 239.685C525.813 245.787 538.321 256.77 538.321 256.77L539.434 255.915L533.851 234.987Z" fill="#5B1DAE"/>
<path opacity="0.3" d="M533.851 234.987C532.331 234.578 530.757 234.403 529.184 234.469C528.383 236.136 527.764 237.885 527.338 239.685C525.813 245.787 538.321 256.77 538.321 256.77L539.434 255.915L533.851 234.987Z" fill="black"/>
<path d="M488.045 251.263C483.697 262.261 479.121 273.442 475.475 284.47C475.231 285.172 475.033 285.843 474.82 286.529L474.301 288.222C474.159 288.721 474.159 289.249 474.301 289.748C475.162 291.655 476.528 293.29 478.252 294.477C482.812 297.749 487.781 300.41 493.033 302.393L491.66 308.007C485.2 307.155 478.953 305.117 473.233 301.997C469.713 300.116 466.846 297.212 465.011 293.668C463.958 291.403 463.592 288.878 463.959 286.407C463.994 286.105 464.044 285.804 464.111 285.507L464.264 284.867L464.523 283.707C464.706 282.929 464.889 282.182 465.088 281.419C466.613 275.318 468.566 269.521 470.625 263.771C472.684 258.02 474.835 252.346 477.26 246.687L488.045 251.263Z" fill="#E4897B"/>
<path d="M478.786 235.827C478.786 235.827 473.63 238.435 493.155 303.523L539.191 297.513C535.957 278.873 534.431 267.326 538.352 227.696C531.75 227.224 525.123 227.224 518.522 227.696C511.494 228.105 504.504 229.023 497.609 230.442C488.777 232.41 478.786 235.827 478.786 235.827Z" fill="#5B1DAE"/>
<path opacity="0.1" d="M478.786 235.827C478.786 235.827 473.63 238.435 493.155 303.523L539.191 297.513C535.957 278.873 534.431 267.326 538.352 227.696C531.75 227.224 525.123 227.224 518.522 227.696C511.494 228.105 504.504 229.023 497.609 230.442C488.777 232.41 478.786 235.827 478.786 235.827Z" fill="black"/>
<path d="M539.526 294.721L542.165 298.549C542.363 298.854 542.027 299.221 541.509 299.297L493.231 305.612C492.819 305.612 492.437 305.505 492.376 305.246L491.431 301.173C491.354 300.898 491.69 300.609 492.148 300.548L538.763 294.446C538.903 294.424 539.046 294.437 539.18 294.485C539.313 294.533 539.432 294.614 539.526 294.721Z" fill="#5B1DAE"/>
<path opacity="0.2" d="M539.526 294.721L542.165 298.549C542.363 298.854 542.027 299.221 541.509 299.297L493.231 305.612C492.819 305.612 492.437 305.505 492.376 305.246L491.431 301.173C491.354 300.898 491.69 300.609 492.148 300.548L538.763 294.446C538.903 294.424 539.046 294.437 539.18 294.485C539.313 294.533 539.432 294.614 539.526 294.721Z" fill="black"/>
<path d="M533.943 300.746L535.194 300.579C535.438 300.579 535.606 300.396 535.575 300.243L534.294 294.965C534.246 294.875 534.167 294.805 534.073 294.766C533.978 294.727 533.873 294.722 533.775 294.752L532.525 294.904C532.265 294.904 532.097 295.087 532.143 295.255L533.425 300.518C533.455 300.685 533.699 300.777 533.943 300.746Z" fill="#263238"/>
<path d="M503.68 304.651L504.931 304.483C505.175 304.483 505.358 304.3 505.312 304.148L504.031 298.87C503.981 298.781 503.903 298.71 503.81 298.669C503.716 298.628 503.612 298.618 503.512 298.641L502.261 298.809C502.017 298.809 501.834 298.992 501.88 299.144L503.161 304.422C503.192 304.651 503.436 304.743 503.68 304.651Z" fill="#263238"/>
<path d="M480.937 257.914C482.203 263.802 483.987 271.261 486.596 280.703L487.16 256.77L480.937 257.914Z" fill="#5B1DAE"/>
<path opacity="0.3" d="M480.937 257.914C482.203 263.802 483.987 271.261 486.596 280.703L487.16 256.77L480.937 257.914Z" fill="black"/>
<path d="M478.785 235.827C473.065 238.13 468.107 257.701 468.107 257.701L487.785 267.28C487.785 267.28 497.288 243.347 493.032 238.679C488.776 234.012 485.375 233.188 478.785 235.827Z" fill="#5B1DAE"/>
<path opacity="0.1" d="M478.785 235.827C473.065 238.13 468.107 257.701 468.107 257.701L487.785 267.28C487.785 267.28 497.288 243.347 493.032 238.679C488.776 234.012 485.375 233.188 478.785 235.827Z" fill="black"/>
<path d="M513.213 541.359H492.483L490.866 534.403L513.945 534.556L513.213 541.359Z" fill="#5B1DAE"/>
<path opacity="0.2" d="M513.213 541.359H492.483L490.866 534.403L513.945 534.556L513.213 541.359Z" fill="black"/>
<path d="M493.353 300.503L491.69 299.816C491.281 299.65 490.836 299.595 490.399 299.656C489.962 299.718 489.549 299.894 489.202 300.166C488.855 300.439 488.586 300.799 488.423 301.209C488.26 301.618 488.208 302.064 488.273 302.501L489.478 310.448C489.536 310.846 489.682 311.226 489.904 311.56C490.127 311.895 490.421 312.176 490.765 312.383C491.11 312.591 491.496 312.719 491.896 312.759C492.296 312.799 492.7 312.749 493.078 312.614C493.683 312.394 494.249 312.08 494.756 311.684C495.308 311.226 495.744 310.645 496.03 309.988C496.316 309.331 496.444 308.616 496.403 307.901L496.236 304.606C496.207 303.715 495.918 302.853 495.406 302.124C494.894 301.395 494.18 300.832 493.353 300.503Z" fill="#E4897B"/>
</svg>
